; NON-PLATED HOLES START AT T1
; THROUGH (PLATED) HOLES START AT T100
M48
INCH
T1C0.125984
T100C0.038522
T101C0.042000
T102C0.039370
T103C0.038000
T104C0.036111
T105C0.035000
T106C0.032000
T107C0.035433
T108C0.031496
%
T1
X034996Y023860
X034996Y002860
X009996Y001360
X003996Y023860
T100
X010496Y013360
X014500Y013360
X010491Y018363
X014500Y014360
X010496Y015360
X010495Y014360
X014500Y015360
X014496Y018363
X014500Y016360
X010496Y017360
X010495Y016360
X014500Y017360
T101
X021996Y002860
X021996Y005860
T102
X018996Y017360
X021996Y017360
X027996Y003360
X007476Y004360
X029496Y008860
X029996Y003360
X031996Y003360
X018996Y015360
X004996Y004360
X021996Y015360
X006295Y002391
X027496Y008860
T103
X020496Y022360
X000996Y022360
X020496Y020360
X000996Y020360
X020496Y023360
X020496Y021360
X000996Y018360
T104
X007996Y019360
X023996Y018360
X023996Y022360
X007996Y016360
X007996Y020360
X016996Y018360
X032996Y017360
X032996Y021360
X016996Y015360
X007996Y018360
X023996Y017360
X023996Y021360
X007996Y015360
X032996Y019360
X032996Y023360
X016996Y017360
X032996Y016360
X016996Y021360
X032996Y020360
X016996Y014360
X023996Y019360
X023996Y023360
X007996Y017360
X023996Y016360
X007996Y021360
X023996Y020360
X016996Y019360
X007996Y014360
X032996Y018360
X032996Y022360
X016996Y016360
X016996Y020360
T105
X001996Y012860
X017996Y022360
X002996Y012860
X018996Y021360
X018996Y009860
X018996Y022360
X003996Y012860
X005496Y018860
X014996Y009860
X005496Y013860
X001996Y016860
X002996Y016860
X017996Y018360
X003996Y016860
T106
X004996Y010360
X004996Y007360
X005996Y010360
X005996Y007360
X001996Y010360
X002996Y010360
X001996Y007360
X002996Y007360
T107
X012496Y021360
X013996Y021360
X020496Y013360
X006996Y012360
X005496Y021360
X015996Y019360
T108
X012996Y004360
X011496Y008860
X009496Y008860
X010996Y004360
T00
M30
