G04 MADE WITH FRITZING*
G04 WWW.FRITZING.ORG*
G04 DOUBLE SIDED*
G04 HOLES PLATED*
G04 CONTOUR ON CENTER OF CONTOUR VECTOR*
%ASAXBY*%
%FSLAX23Y23*%
%MOIN*%
%OFA0B0*%
%SFA1.0B1.0*%
%ADD10C,0.075000*%
%ADD11C,0.074803*%
%ADD12C,0.078000*%
%ADD13C,0.078740*%
%ADD14C,0.077778*%
%ADD15C,0.074000*%
%ADD16C,0.082000*%
%ADD17C,0.079370*%
%ADD18C,0.052000*%
%ADD19C,0.059370*%
%ADD20C,0.075433*%
%ADD21R,0.118110X0.118110*%
%ADD22R,0.196850X0.196850*%
%ADD23R,0.078000X0.078000*%
%ADD24R,0.079370X0.079370*%
%ADD25C,0.024000*%
%ADD26C,0.048000*%
%ADD27C,0.032000*%
%ADD28C,0.020000*%
%ADD29R,0.001000X0.001000*%
%LNCOPPER1*%
G90*
G70*
G54D10*
X550Y1886D03*
X550Y1386D03*
X400Y1686D03*
X400Y1286D03*
G54D11*
X1049Y1836D03*
X1050Y1336D03*
X1050Y1436D03*
X1050Y1536D03*
X1050Y1636D03*
X1050Y1736D03*
X1450Y1836D03*
X1450Y1336D03*
X1450Y1436D03*
X1450Y1536D03*
X1450Y1636D03*
X1450Y1736D03*
G54D12*
X100Y2236D03*
X100Y2036D03*
X100Y1836D03*
X2050Y2336D03*
X2050Y2236D03*
X2050Y2136D03*
X2050Y2036D03*
G54D13*
X748Y436D03*
X500Y436D03*
X630Y239D03*
X748Y436D03*
X500Y436D03*
X630Y239D03*
G54D10*
X1500Y986D03*
X1900Y986D03*
X1800Y2236D03*
X1800Y1836D03*
X1900Y2236D03*
X1900Y2136D03*
G54D14*
X800Y2136D03*
X800Y2036D03*
X800Y1936D03*
X800Y1836D03*
X800Y1736D03*
X800Y1636D03*
X800Y1536D03*
X800Y1436D03*
X1700Y1436D03*
X1700Y1536D03*
X1700Y1636D03*
X1700Y1736D03*
X1700Y1836D03*
X1700Y1936D03*
X1700Y2036D03*
X1700Y2136D03*
X2400Y2336D03*
X2400Y2236D03*
X2400Y2136D03*
X2400Y2036D03*
X2400Y1936D03*
X2400Y1836D03*
X2400Y1736D03*
X2400Y1636D03*
X3300Y1636D03*
X3300Y1736D03*
X3300Y1836D03*
X3300Y1936D03*
X3300Y2036D03*
X3300Y2136D03*
X3300Y2236D03*
X3300Y2336D03*
G54D15*
X1300Y436D03*
X1100Y436D03*
X1300Y436D03*
X1100Y436D03*
X1150Y886D03*
X950Y886D03*
X1150Y886D03*
X950Y886D03*
G54D16*
X2200Y286D03*
X2200Y586D03*
G54D17*
X2750Y886D03*
X2950Y886D03*
X3200Y336D03*
X3000Y336D03*
X2800Y336D03*
G54D10*
X300Y1686D03*
X300Y1286D03*
X200Y1686D03*
X200Y1286D03*
G54D18*
X500Y736D03*
X600Y736D03*
X600Y1036D03*
X500Y1036D03*
X500Y736D03*
X600Y736D03*
X600Y1036D03*
X500Y1036D03*
X200Y736D03*
X300Y736D03*
X300Y1036D03*
X200Y1036D03*
X200Y736D03*
X300Y736D03*
X300Y1036D03*
X200Y1036D03*
G54D19*
X1900Y1736D03*
X2200Y1736D03*
X1900Y1536D03*
X2200Y1536D03*
X1900Y1736D03*
X2200Y1736D03*
X1900Y1536D03*
X2200Y1536D03*
G54D20*
X1400Y2136D03*
X1250Y2136D03*
X700Y1236D03*
X2050Y1336D03*
X1600Y1936D03*
X550Y2136D03*
G54D21*
X300Y1836D03*
G54D22*
X2600Y286D03*
X3400Y736D03*
G54D23*
X100Y2236D03*
G54D24*
X2750Y886D03*
X3200Y336D03*
G54D25*
X550Y1136D02*
X550Y1357D01*
D02*
X400Y1136D02*
X400Y1257D01*
D02*
X550Y1857D02*
X550Y1836D01*
D02*
X550Y1836D02*
X130Y1836D01*
D02*
X587Y1060D02*
X550Y1136D01*
D02*
X480Y1055D02*
X400Y1136D01*
G54D26*
D02*
X3201Y636D02*
X3309Y691D01*
D02*
X3200Y378D02*
X3201Y636D01*
G54D25*
D02*
X650Y1436D02*
X770Y1436D01*
D02*
X650Y1836D02*
X650Y1436D01*
D02*
X358Y1836D02*
X650Y1836D01*
D02*
X241Y1836D02*
X130Y1836D01*
D02*
X1026Y1617D02*
X822Y1454D01*
G54D26*
D02*
X3200Y637D02*
X2950Y636D01*
D02*
X2950Y636D02*
X2776Y853D01*
D02*
X3200Y378D02*
X3200Y637D01*
G54D25*
D02*
X2550Y737D02*
X2250Y988D01*
D02*
X2250Y988D02*
X1928Y986D01*
D02*
X2550Y486D02*
X2550Y737D01*
D02*
X2849Y486D02*
X2550Y486D01*
D02*
X2978Y358D02*
X2849Y486D01*
D02*
X770Y2036D02*
X130Y2036D01*
D02*
X2026Y2017D02*
X1822Y1854D01*
D02*
X1250Y1184D02*
X1477Y1004D01*
D02*
X1250Y1837D02*
X1250Y1184D01*
D02*
X1419Y1837D02*
X1250Y1837D01*
G54D27*
D02*
X1701Y836D02*
X1198Y836D01*
D02*
X1198Y836D02*
X1172Y863D01*
G54D25*
D02*
X3049Y1435D02*
X1729Y1436D01*
D02*
X3277Y1618D02*
X3049Y1435D01*
G54D27*
D02*
X1700Y1401D02*
X1701Y836D01*
G54D25*
D02*
X1150Y2236D02*
X1771Y2236D01*
D02*
X1150Y1636D02*
X1150Y2236D01*
D02*
X1080Y1636D02*
X1150Y1636D01*
D02*
X1928Y2236D02*
X2020Y2236D01*
D02*
X1871Y2236D02*
X1828Y2236D01*
D02*
X1771Y1836D02*
X1729Y1836D01*
D02*
X300Y1063D02*
X300Y1257D01*
D02*
X200Y1063D02*
X200Y1257D01*
D02*
X371Y1686D02*
X328Y1686D01*
D02*
X271Y1686D02*
X228Y1686D01*
D02*
X300Y1778D02*
X300Y1715D01*
G54D26*
D02*
X2510Y286D02*
X2232Y286D01*
D02*
X2750Y284D02*
X2771Y306D01*
D02*
X2701Y285D02*
X2750Y284D01*
G54D25*
D02*
X1869Y1736D02*
X1729Y1736D01*
D02*
X130Y2236D02*
X650Y2236D01*
D02*
X650Y2236D02*
X750Y2336D01*
D02*
X750Y2336D02*
X2020Y2336D01*
D02*
X1501Y1635D02*
X1600Y1436D01*
D02*
X1600Y1436D02*
X1670Y1436D01*
D02*
X1480Y1635D02*
X1501Y1635D01*
D02*
X1428Y2136D02*
X1670Y2136D01*
D02*
X1250Y2036D02*
X1670Y2036D01*
D02*
X1250Y2107D02*
X1250Y2036D01*
D02*
X798Y1236D02*
X799Y1407D01*
D02*
X728Y1236D02*
X798Y1236D01*
D02*
X1729Y1436D02*
X2050Y1436D01*
D02*
X2050Y1436D02*
X2050Y1365D01*
D02*
X1628Y1936D02*
X1670Y1936D01*
D02*
X578Y2136D02*
X770Y2136D01*
G54D28*
X2169Y317D02*
X2231Y317D01*
X2231Y255D01*
X2169Y255D01*
X2169Y317D01*
D02*
G54D29*
X1870Y1766D02*
X1928Y1766D01*
X2170Y1766D02*
X2228Y1766D01*
X1870Y1765D02*
X1928Y1765D01*
X2170Y1765D02*
X2228Y1765D01*
X1870Y1764D02*
X1928Y1764D01*
X2170Y1764D02*
X2228Y1764D01*
X1870Y1763D02*
X1928Y1763D01*
X2170Y1763D02*
X2228Y1763D01*
X1870Y1762D02*
X1928Y1762D01*
X2170Y1762D02*
X2228Y1762D01*
X1870Y1761D02*
X1928Y1761D01*
X2170Y1761D02*
X2228Y1761D01*
X1870Y1760D02*
X1928Y1760D01*
X2170Y1760D02*
X2228Y1760D01*
X1870Y1759D02*
X1928Y1759D01*
X2170Y1759D02*
X2228Y1759D01*
X1870Y1758D02*
X1928Y1758D01*
X2170Y1758D02*
X2228Y1758D01*
X1870Y1757D02*
X1928Y1757D01*
X2170Y1757D02*
X2228Y1757D01*
X1870Y1756D02*
X1897Y1756D01*
X1901Y1756D02*
X1928Y1756D01*
X2170Y1756D02*
X2197Y1756D01*
X2201Y1756D02*
X2228Y1756D01*
X1870Y1755D02*
X1892Y1755D01*
X1906Y1755D02*
X1928Y1755D01*
X2170Y1755D02*
X2192Y1755D01*
X2206Y1755D02*
X2228Y1755D01*
X1870Y1754D02*
X1890Y1754D01*
X1908Y1754D02*
X1928Y1754D01*
X2170Y1754D02*
X2190Y1754D01*
X2208Y1754D02*
X2228Y1754D01*
X1870Y1753D02*
X1888Y1753D01*
X1910Y1753D02*
X1928Y1753D01*
X2170Y1753D02*
X2188Y1753D01*
X2210Y1753D02*
X2228Y1753D01*
X1870Y1752D02*
X1887Y1752D01*
X1912Y1752D02*
X1928Y1752D01*
X2170Y1752D02*
X2187Y1752D01*
X2212Y1752D02*
X2228Y1752D01*
X1870Y1751D02*
X1885Y1751D01*
X1913Y1751D02*
X1928Y1751D01*
X2170Y1751D02*
X2185Y1751D01*
X2213Y1751D02*
X2228Y1751D01*
X1870Y1750D02*
X1884Y1750D01*
X1914Y1750D02*
X1928Y1750D01*
X2170Y1750D02*
X2184Y1750D01*
X2214Y1750D02*
X2228Y1750D01*
X1870Y1749D02*
X1884Y1749D01*
X1915Y1749D02*
X1928Y1749D01*
X2170Y1749D02*
X2184Y1749D01*
X2215Y1749D02*
X2228Y1749D01*
X1870Y1748D02*
X1883Y1748D01*
X1915Y1748D02*
X1928Y1748D01*
X2170Y1748D02*
X2183Y1748D01*
X2215Y1748D02*
X2228Y1748D01*
X1870Y1747D02*
X1882Y1747D01*
X1916Y1747D02*
X1928Y1747D01*
X2170Y1747D02*
X2182Y1747D01*
X2216Y1747D02*
X2228Y1747D01*
X1870Y1746D02*
X1881Y1746D01*
X1917Y1746D02*
X1928Y1746D01*
X2170Y1746D02*
X2181Y1746D01*
X2217Y1746D02*
X2228Y1746D01*
X1870Y1745D02*
X1881Y1745D01*
X1917Y1745D02*
X1928Y1745D01*
X2170Y1745D02*
X2181Y1745D01*
X2217Y1745D02*
X2228Y1745D01*
X1870Y1744D02*
X1880Y1744D01*
X1918Y1744D02*
X1928Y1744D01*
X2170Y1744D02*
X2180Y1744D01*
X2218Y1744D02*
X2228Y1744D01*
X1870Y1743D02*
X1880Y1743D01*
X1918Y1743D02*
X1928Y1743D01*
X2170Y1743D02*
X2180Y1743D01*
X2218Y1743D02*
X2228Y1743D01*
X1870Y1742D02*
X1880Y1742D01*
X1918Y1742D02*
X1928Y1742D01*
X2170Y1742D02*
X2180Y1742D01*
X2218Y1742D02*
X2228Y1742D01*
X1870Y1741D02*
X1879Y1741D01*
X1919Y1741D02*
X1928Y1741D01*
X2170Y1741D02*
X2179Y1741D01*
X2219Y1741D02*
X2228Y1741D01*
X1870Y1740D02*
X1879Y1740D01*
X1919Y1740D02*
X1928Y1740D01*
X2170Y1740D02*
X2179Y1740D01*
X2219Y1740D02*
X2228Y1740D01*
X1870Y1739D02*
X1879Y1739D01*
X1919Y1739D02*
X1928Y1739D01*
X2170Y1739D02*
X2179Y1739D01*
X2219Y1739D02*
X2228Y1739D01*
X1870Y1738D02*
X1879Y1738D01*
X1919Y1738D02*
X1928Y1738D01*
X2170Y1738D02*
X2179Y1738D01*
X2219Y1738D02*
X2228Y1738D01*
X1870Y1737D02*
X1879Y1737D01*
X1919Y1737D02*
X1928Y1737D01*
X2170Y1737D02*
X2179Y1737D01*
X2219Y1737D02*
X2228Y1737D01*
X1870Y1736D02*
X1879Y1736D01*
X1919Y1736D02*
X1928Y1736D01*
X2170Y1736D02*
X2179Y1736D01*
X2219Y1736D02*
X2228Y1736D01*
X1870Y1735D02*
X1879Y1735D01*
X1919Y1735D02*
X1928Y1735D01*
X2170Y1735D02*
X2179Y1735D01*
X2219Y1735D02*
X2228Y1735D01*
X1870Y1734D02*
X1879Y1734D01*
X1919Y1734D02*
X1928Y1734D01*
X2170Y1734D02*
X2179Y1734D01*
X2219Y1734D02*
X2228Y1734D01*
X1870Y1733D02*
X1879Y1733D01*
X1919Y1733D02*
X1928Y1733D01*
X2170Y1733D02*
X2179Y1733D01*
X2219Y1733D02*
X2228Y1733D01*
X1870Y1732D02*
X1879Y1732D01*
X1919Y1732D02*
X1928Y1732D01*
X2170Y1732D02*
X2179Y1732D01*
X2219Y1732D02*
X2228Y1732D01*
X1870Y1731D02*
X1880Y1731D01*
X1918Y1731D02*
X1928Y1731D01*
X2170Y1731D02*
X2180Y1731D01*
X2218Y1731D02*
X2228Y1731D01*
X1870Y1730D02*
X1880Y1730D01*
X1918Y1730D02*
X1928Y1730D01*
X2170Y1730D02*
X2180Y1730D01*
X2218Y1730D02*
X2228Y1730D01*
X1870Y1729D02*
X1880Y1729D01*
X1918Y1729D02*
X1928Y1729D01*
X2170Y1729D02*
X2180Y1729D01*
X2218Y1729D02*
X2228Y1729D01*
X1870Y1728D02*
X1881Y1728D01*
X1917Y1728D02*
X1928Y1728D01*
X2170Y1728D02*
X2181Y1728D01*
X2217Y1728D02*
X2228Y1728D01*
X1870Y1727D02*
X1881Y1727D01*
X1917Y1727D02*
X1928Y1727D01*
X2170Y1727D02*
X2181Y1727D01*
X2217Y1727D02*
X2228Y1727D01*
X1870Y1726D02*
X1882Y1726D01*
X1916Y1726D02*
X1928Y1726D01*
X2170Y1726D02*
X2182Y1726D01*
X2216Y1726D02*
X2228Y1726D01*
X1870Y1725D02*
X1883Y1725D01*
X1916Y1725D02*
X1928Y1725D01*
X2170Y1725D02*
X2183Y1725D01*
X2216Y1725D02*
X2228Y1725D01*
X1870Y1724D02*
X1883Y1724D01*
X1915Y1724D02*
X1928Y1724D01*
X2170Y1724D02*
X2183Y1724D01*
X2215Y1724D02*
X2228Y1724D01*
X1870Y1723D02*
X1884Y1723D01*
X1914Y1723D02*
X1928Y1723D01*
X2170Y1723D02*
X2184Y1723D01*
X2214Y1723D02*
X2228Y1723D01*
X1870Y1722D02*
X1885Y1722D01*
X1913Y1722D02*
X1928Y1722D01*
X2170Y1722D02*
X2185Y1722D01*
X2213Y1722D02*
X2228Y1722D01*
X1870Y1721D02*
X1887Y1721D01*
X1912Y1721D02*
X1928Y1721D01*
X2170Y1721D02*
X2187Y1721D01*
X2212Y1721D02*
X2228Y1721D01*
X1870Y1720D02*
X1888Y1720D01*
X1910Y1720D02*
X1928Y1720D01*
X2170Y1720D02*
X2188Y1720D01*
X2210Y1720D02*
X2228Y1720D01*
X1870Y1719D02*
X1890Y1719D01*
X1908Y1719D02*
X1928Y1719D01*
X2170Y1719D02*
X2190Y1719D01*
X2208Y1719D02*
X2228Y1719D01*
X1870Y1718D02*
X1892Y1718D01*
X1906Y1718D02*
X1928Y1718D01*
X2170Y1718D02*
X2192Y1718D01*
X2206Y1718D02*
X2228Y1718D01*
X1870Y1717D02*
X1896Y1717D01*
X1902Y1717D02*
X1928Y1717D01*
X2170Y1717D02*
X2196Y1717D01*
X2202Y1717D02*
X2228Y1717D01*
X1870Y1716D02*
X1928Y1716D01*
X2170Y1716D02*
X2228Y1716D01*
X1870Y1715D02*
X1928Y1715D01*
X2170Y1715D02*
X2228Y1715D01*
X1870Y1714D02*
X1928Y1714D01*
X2170Y1714D02*
X2228Y1714D01*
X1870Y1713D02*
X1928Y1713D01*
X2170Y1713D02*
X2228Y1713D01*
X1870Y1712D02*
X1928Y1712D01*
X2170Y1712D02*
X2228Y1712D01*
X1870Y1711D02*
X1928Y1711D01*
X2170Y1711D02*
X2228Y1711D01*
X1870Y1710D02*
X1928Y1710D01*
X2170Y1710D02*
X2228Y1710D01*
X1870Y1709D02*
X1928Y1709D01*
X2170Y1709D02*
X2228Y1709D01*
X1870Y1708D02*
X1928Y1708D01*
X2170Y1708D02*
X2228Y1708D01*
X1870Y1707D02*
X1928Y1707D01*
X2170Y1707D02*
X2228Y1707D01*
X1870Y1566D02*
X1928Y1566D01*
X2170Y1566D02*
X2228Y1566D01*
X1870Y1565D02*
X1928Y1565D01*
X2170Y1565D02*
X2228Y1565D01*
X1870Y1564D02*
X1928Y1564D01*
X2170Y1564D02*
X2228Y1564D01*
X1870Y1563D02*
X1928Y1563D01*
X2170Y1563D02*
X2228Y1563D01*
X1870Y1562D02*
X1928Y1562D01*
X2170Y1562D02*
X2228Y1562D01*
X1870Y1561D02*
X1928Y1561D01*
X2170Y1561D02*
X2228Y1561D01*
X1870Y1560D02*
X1928Y1560D01*
X2170Y1560D02*
X2228Y1560D01*
X1870Y1559D02*
X1928Y1559D01*
X2170Y1559D02*
X2228Y1559D01*
X1870Y1558D02*
X1928Y1558D01*
X2170Y1558D02*
X2228Y1558D01*
X1870Y1557D02*
X1928Y1557D01*
X2170Y1557D02*
X2228Y1557D01*
X1870Y1556D02*
X1897Y1556D01*
X1901Y1556D02*
X1928Y1556D01*
X2170Y1556D02*
X2197Y1556D01*
X2201Y1556D02*
X2228Y1556D01*
X1870Y1555D02*
X1892Y1555D01*
X1906Y1555D02*
X1928Y1555D01*
X2170Y1555D02*
X2192Y1555D01*
X2206Y1555D02*
X2228Y1555D01*
X1870Y1554D02*
X1890Y1554D01*
X1908Y1554D02*
X1928Y1554D01*
X2170Y1554D02*
X2190Y1554D01*
X2208Y1554D02*
X2228Y1554D01*
X1870Y1553D02*
X1888Y1553D01*
X1910Y1553D02*
X1928Y1553D01*
X2170Y1553D02*
X2188Y1553D01*
X2210Y1553D02*
X2228Y1553D01*
X1870Y1552D02*
X1887Y1552D01*
X1912Y1552D02*
X1928Y1552D01*
X2170Y1552D02*
X2187Y1552D01*
X2212Y1552D02*
X2228Y1552D01*
X1870Y1551D02*
X1885Y1551D01*
X1913Y1551D02*
X1928Y1551D01*
X2170Y1551D02*
X2185Y1551D01*
X2213Y1551D02*
X2228Y1551D01*
X1870Y1550D02*
X1884Y1550D01*
X1914Y1550D02*
X1928Y1550D01*
X2170Y1550D02*
X2184Y1550D01*
X2214Y1550D02*
X2228Y1550D01*
X1870Y1549D02*
X1884Y1549D01*
X1915Y1549D02*
X1928Y1549D01*
X2170Y1549D02*
X2184Y1549D01*
X2215Y1549D02*
X2228Y1549D01*
X1870Y1548D02*
X1883Y1548D01*
X1915Y1548D02*
X1928Y1548D01*
X2170Y1548D02*
X2183Y1548D01*
X2215Y1548D02*
X2228Y1548D01*
X1870Y1547D02*
X1882Y1547D01*
X1916Y1547D02*
X1928Y1547D01*
X2170Y1547D02*
X2182Y1547D01*
X2216Y1547D02*
X2228Y1547D01*
X1870Y1546D02*
X1881Y1546D01*
X1917Y1546D02*
X1928Y1546D01*
X2170Y1546D02*
X2181Y1546D01*
X2217Y1546D02*
X2228Y1546D01*
X1870Y1545D02*
X1881Y1545D01*
X1917Y1545D02*
X1928Y1545D01*
X2170Y1545D02*
X2181Y1545D01*
X2217Y1545D02*
X2228Y1545D01*
X1870Y1544D02*
X1880Y1544D01*
X1918Y1544D02*
X1928Y1544D01*
X2170Y1544D02*
X2180Y1544D01*
X2218Y1544D02*
X2228Y1544D01*
X1870Y1543D02*
X1880Y1543D01*
X1918Y1543D02*
X1928Y1543D01*
X2170Y1543D02*
X2180Y1543D01*
X2218Y1543D02*
X2228Y1543D01*
X1870Y1542D02*
X1880Y1542D01*
X1918Y1542D02*
X1928Y1542D01*
X2170Y1542D02*
X2180Y1542D01*
X2218Y1542D02*
X2228Y1542D01*
X1870Y1541D02*
X1879Y1541D01*
X1919Y1541D02*
X1928Y1541D01*
X2170Y1541D02*
X2179Y1541D01*
X2219Y1541D02*
X2228Y1541D01*
X1870Y1540D02*
X1879Y1540D01*
X1919Y1540D02*
X1928Y1540D01*
X2170Y1540D02*
X2179Y1540D01*
X2219Y1540D02*
X2228Y1540D01*
X1870Y1539D02*
X1879Y1539D01*
X1919Y1539D02*
X1928Y1539D01*
X2170Y1539D02*
X2179Y1539D01*
X2219Y1539D02*
X2228Y1539D01*
X1870Y1538D02*
X1879Y1538D01*
X1919Y1538D02*
X1928Y1538D01*
X2170Y1538D02*
X2179Y1538D01*
X2219Y1538D02*
X2228Y1538D01*
X1870Y1537D02*
X1879Y1537D01*
X1919Y1537D02*
X1928Y1537D01*
X2170Y1537D02*
X2179Y1537D01*
X2219Y1537D02*
X2228Y1537D01*
X1870Y1536D02*
X1879Y1536D01*
X1919Y1536D02*
X1928Y1536D01*
X2170Y1536D02*
X2179Y1536D01*
X2219Y1536D02*
X2228Y1536D01*
X1870Y1535D02*
X1879Y1535D01*
X1919Y1535D02*
X1928Y1535D01*
X2170Y1535D02*
X2179Y1535D01*
X2219Y1535D02*
X2228Y1535D01*
X1870Y1534D02*
X1879Y1534D01*
X1919Y1534D02*
X1928Y1534D01*
X2170Y1534D02*
X2179Y1534D01*
X2219Y1534D02*
X2228Y1534D01*
X1870Y1533D02*
X1879Y1533D01*
X1919Y1533D02*
X1928Y1533D01*
X2170Y1533D02*
X2179Y1533D01*
X2219Y1533D02*
X2228Y1533D01*
X1870Y1532D02*
X1879Y1532D01*
X1919Y1532D02*
X1928Y1532D01*
X2170Y1532D02*
X2179Y1532D01*
X2219Y1532D02*
X2228Y1532D01*
X1870Y1531D02*
X1880Y1531D01*
X1918Y1531D02*
X1928Y1531D01*
X2170Y1531D02*
X2180Y1531D01*
X2218Y1531D02*
X2228Y1531D01*
X1870Y1530D02*
X1880Y1530D01*
X1918Y1530D02*
X1928Y1530D01*
X2170Y1530D02*
X2180Y1530D01*
X2218Y1530D02*
X2228Y1530D01*
X1870Y1529D02*
X1880Y1529D01*
X1918Y1529D02*
X1928Y1529D01*
X2170Y1529D02*
X2180Y1529D01*
X2218Y1529D02*
X2228Y1529D01*
X1870Y1528D02*
X1881Y1528D01*
X1917Y1528D02*
X1928Y1528D01*
X2170Y1528D02*
X2181Y1528D01*
X2217Y1528D02*
X2228Y1528D01*
X1870Y1527D02*
X1881Y1527D01*
X1917Y1527D02*
X1928Y1527D01*
X2170Y1527D02*
X2181Y1527D01*
X2217Y1527D02*
X2228Y1527D01*
X1870Y1526D02*
X1882Y1526D01*
X1916Y1526D02*
X1928Y1526D01*
X2170Y1526D02*
X2182Y1526D01*
X2216Y1526D02*
X2228Y1526D01*
X1870Y1525D02*
X1883Y1525D01*
X1916Y1525D02*
X1928Y1525D01*
X2170Y1525D02*
X2183Y1525D01*
X2216Y1525D02*
X2228Y1525D01*
X1870Y1524D02*
X1883Y1524D01*
X1915Y1524D02*
X1928Y1524D01*
X2170Y1524D02*
X2183Y1524D01*
X2215Y1524D02*
X2228Y1524D01*
X1870Y1523D02*
X1884Y1523D01*
X1914Y1523D02*
X1928Y1523D01*
X2170Y1523D02*
X2184Y1523D01*
X2214Y1523D02*
X2228Y1523D01*
X1870Y1522D02*
X1885Y1522D01*
X1913Y1522D02*
X1928Y1522D01*
X2170Y1522D02*
X2185Y1522D01*
X2213Y1522D02*
X2228Y1522D01*
X1870Y1521D02*
X1887Y1521D01*
X1912Y1521D02*
X1928Y1521D01*
X2170Y1521D02*
X2187Y1521D01*
X2212Y1521D02*
X2228Y1521D01*
X1870Y1520D02*
X1888Y1520D01*
X1910Y1520D02*
X1928Y1520D01*
X2170Y1520D02*
X2188Y1520D01*
X2210Y1520D02*
X2228Y1520D01*
X1870Y1519D02*
X1890Y1519D01*
X1908Y1519D02*
X1928Y1519D01*
X2170Y1519D02*
X2190Y1519D01*
X2208Y1519D02*
X2228Y1519D01*
X1870Y1518D02*
X1892Y1518D01*
X1906Y1518D02*
X1928Y1518D01*
X2170Y1518D02*
X2192Y1518D01*
X2206Y1518D02*
X2228Y1518D01*
X1870Y1517D02*
X1896Y1517D01*
X1902Y1517D02*
X1928Y1517D01*
X2170Y1517D02*
X2196Y1517D01*
X2202Y1517D02*
X2228Y1517D01*
X1870Y1516D02*
X1928Y1516D01*
X2170Y1516D02*
X2228Y1516D01*
X1870Y1515D02*
X1928Y1515D01*
X2170Y1515D02*
X2228Y1515D01*
X1870Y1514D02*
X1928Y1514D01*
X2170Y1514D02*
X2228Y1514D01*
X1870Y1513D02*
X1928Y1513D01*
X2170Y1513D02*
X2228Y1513D01*
X1870Y1512D02*
X1928Y1512D01*
X2170Y1512D02*
X2228Y1512D01*
X1870Y1511D02*
X1928Y1511D01*
X2170Y1511D02*
X2228Y1511D01*
X1870Y1510D02*
X1928Y1510D01*
X2170Y1510D02*
X2228Y1510D01*
X1870Y1509D02*
X1928Y1509D01*
X2170Y1509D02*
X2228Y1509D01*
X1870Y1508D02*
X1928Y1508D01*
X2170Y1508D02*
X2228Y1508D01*
X1870Y1507D02*
X1928Y1507D01*
X2170Y1507D02*
X2228Y1507D01*
X195Y1088D02*
X204Y1088D01*
X295Y1088D02*
X304Y1088D01*
X495Y1088D02*
X504Y1088D01*
X595Y1088D02*
X604Y1088D01*
X191Y1087D02*
X207Y1087D01*
X291Y1087D02*
X307Y1087D01*
X491Y1087D02*
X507Y1087D01*
X591Y1087D02*
X607Y1087D01*
X189Y1086D02*
X210Y1086D01*
X289Y1086D02*
X310Y1086D01*
X489Y1086D02*
X510Y1086D01*
X589Y1086D02*
X610Y1086D01*
X187Y1085D02*
X211Y1085D01*
X287Y1085D02*
X311Y1085D01*
X487Y1085D02*
X511Y1085D01*
X587Y1085D02*
X611Y1085D01*
X185Y1084D02*
X213Y1084D01*
X285Y1084D02*
X313Y1084D01*
X485Y1084D02*
X513Y1084D01*
X585Y1084D02*
X613Y1084D01*
X184Y1083D02*
X214Y1083D01*
X284Y1083D02*
X314Y1083D01*
X484Y1083D02*
X514Y1083D01*
X584Y1083D02*
X614Y1083D01*
X183Y1082D02*
X216Y1082D01*
X283Y1082D02*
X316Y1082D01*
X483Y1082D02*
X516Y1082D01*
X583Y1082D02*
X616Y1082D01*
X181Y1081D02*
X217Y1081D01*
X281Y1081D02*
X317Y1081D01*
X481Y1081D02*
X517Y1081D01*
X581Y1081D02*
X617Y1081D01*
X181Y1080D02*
X218Y1080D01*
X281Y1080D02*
X318Y1080D01*
X481Y1080D02*
X518Y1080D01*
X581Y1080D02*
X618Y1080D01*
X180Y1079D02*
X219Y1079D01*
X280Y1079D02*
X319Y1079D01*
X480Y1079D02*
X519Y1079D01*
X580Y1079D02*
X619Y1079D01*
X179Y1078D02*
X219Y1078D01*
X279Y1078D02*
X319Y1078D01*
X479Y1078D02*
X519Y1078D01*
X579Y1078D02*
X619Y1078D01*
X178Y1077D02*
X220Y1077D01*
X278Y1077D02*
X320Y1077D01*
X478Y1077D02*
X520Y1077D01*
X578Y1077D02*
X620Y1077D01*
X178Y1076D02*
X221Y1076D01*
X278Y1076D02*
X321Y1076D01*
X477Y1076D02*
X521Y1076D01*
X577Y1076D02*
X621Y1076D01*
X177Y1075D02*
X221Y1075D01*
X277Y1075D02*
X321Y1075D01*
X477Y1075D02*
X521Y1075D01*
X577Y1075D02*
X621Y1075D01*
X176Y1074D02*
X222Y1074D01*
X276Y1074D02*
X322Y1074D01*
X476Y1074D02*
X522Y1074D01*
X576Y1074D02*
X622Y1074D01*
X176Y1073D02*
X222Y1073D01*
X276Y1073D02*
X322Y1073D01*
X476Y1073D02*
X522Y1073D01*
X576Y1073D02*
X622Y1073D01*
X175Y1072D02*
X223Y1072D01*
X275Y1072D02*
X323Y1072D01*
X475Y1072D02*
X523Y1072D01*
X575Y1072D02*
X623Y1072D01*
X175Y1071D02*
X223Y1071D01*
X275Y1071D02*
X323Y1071D01*
X475Y1071D02*
X523Y1071D01*
X575Y1071D02*
X623Y1071D01*
X175Y1070D02*
X224Y1070D01*
X275Y1070D02*
X324Y1070D01*
X475Y1070D02*
X523Y1070D01*
X575Y1070D02*
X623Y1070D01*
X174Y1069D02*
X224Y1069D01*
X274Y1069D02*
X324Y1069D01*
X474Y1069D02*
X524Y1069D01*
X574Y1069D02*
X624Y1069D01*
X174Y1068D02*
X224Y1068D01*
X274Y1068D02*
X324Y1068D01*
X474Y1068D02*
X524Y1068D01*
X574Y1068D02*
X624Y1068D01*
X174Y1067D02*
X224Y1067D01*
X274Y1067D02*
X324Y1067D01*
X474Y1067D02*
X524Y1067D01*
X574Y1067D02*
X624Y1067D01*
X174Y1066D02*
X224Y1066D01*
X274Y1066D02*
X324Y1066D01*
X474Y1066D02*
X524Y1066D01*
X574Y1066D02*
X624Y1066D01*
X174Y1065D02*
X224Y1065D01*
X274Y1065D02*
X324Y1065D01*
X474Y1065D02*
X524Y1065D01*
X574Y1065D02*
X624Y1065D01*
X174Y1064D02*
X225Y1064D01*
X274Y1064D02*
X325Y1064D01*
X474Y1064D02*
X525Y1064D01*
X574Y1064D02*
X625Y1064D01*
X174Y1063D02*
X225Y1063D01*
X274Y1063D02*
X325Y1063D01*
X474Y1063D02*
X525Y1063D01*
X574Y1063D02*
X625Y1063D01*
X174Y1062D02*
X225Y1062D01*
X274Y1062D02*
X325Y1062D01*
X474Y1062D02*
X525Y1062D01*
X574Y1062D02*
X625Y1062D01*
X174Y1061D02*
X225Y1061D01*
X274Y1061D02*
X325Y1061D01*
X474Y1061D02*
X525Y1061D01*
X574Y1061D02*
X625Y1061D01*
X174Y1060D02*
X225Y1060D01*
X274Y1060D02*
X325Y1060D01*
X474Y1060D02*
X525Y1060D01*
X574Y1060D02*
X625Y1060D01*
X174Y1059D02*
X225Y1059D01*
X274Y1059D02*
X325Y1059D01*
X474Y1059D02*
X525Y1059D01*
X574Y1059D02*
X625Y1059D01*
X174Y1058D02*
X225Y1058D01*
X274Y1058D02*
X325Y1058D01*
X474Y1058D02*
X525Y1058D01*
X574Y1058D02*
X625Y1058D01*
X174Y1057D02*
X225Y1057D01*
X274Y1057D02*
X325Y1057D01*
X474Y1057D02*
X525Y1057D01*
X574Y1057D02*
X625Y1057D01*
X174Y1056D02*
X225Y1056D01*
X274Y1056D02*
X325Y1056D01*
X474Y1056D02*
X525Y1056D01*
X574Y1056D02*
X625Y1056D01*
X174Y1055D02*
X225Y1055D01*
X274Y1055D02*
X325Y1055D01*
X474Y1055D02*
X525Y1055D01*
X574Y1055D02*
X625Y1055D01*
X174Y1054D02*
X225Y1054D01*
X274Y1054D02*
X325Y1054D01*
X474Y1054D02*
X525Y1054D01*
X574Y1054D02*
X625Y1054D01*
X174Y1053D02*
X225Y1053D01*
X274Y1053D02*
X325Y1053D01*
X474Y1053D02*
X525Y1053D01*
X574Y1053D02*
X625Y1053D01*
X174Y1052D02*
X195Y1052D01*
X203Y1052D02*
X225Y1052D01*
X274Y1052D02*
X295Y1052D01*
X303Y1052D02*
X325Y1052D01*
X474Y1052D02*
X495Y1052D01*
X503Y1052D02*
X525Y1052D01*
X574Y1052D02*
X595Y1052D01*
X603Y1052D02*
X625Y1052D01*
X174Y1051D02*
X192Y1051D01*
X206Y1051D02*
X225Y1051D01*
X274Y1051D02*
X292Y1051D01*
X306Y1051D02*
X325Y1051D01*
X474Y1051D02*
X492Y1051D01*
X506Y1051D02*
X525Y1051D01*
X574Y1051D02*
X592Y1051D01*
X606Y1051D02*
X625Y1051D01*
X174Y1050D02*
X190Y1050D01*
X208Y1050D02*
X225Y1050D01*
X274Y1050D02*
X290Y1050D01*
X308Y1050D02*
X325Y1050D01*
X474Y1050D02*
X490Y1050D01*
X508Y1050D02*
X525Y1050D01*
X574Y1050D02*
X590Y1050D01*
X608Y1050D02*
X625Y1050D01*
X174Y1049D02*
X189Y1049D01*
X209Y1049D02*
X225Y1049D01*
X274Y1049D02*
X289Y1049D01*
X309Y1049D02*
X325Y1049D01*
X474Y1049D02*
X489Y1049D01*
X509Y1049D02*
X525Y1049D01*
X574Y1049D02*
X589Y1049D01*
X609Y1049D02*
X625Y1049D01*
X174Y1048D02*
X188Y1048D01*
X211Y1048D02*
X225Y1048D01*
X274Y1048D02*
X288Y1048D01*
X311Y1048D02*
X325Y1048D01*
X474Y1048D02*
X488Y1048D01*
X511Y1048D02*
X525Y1048D01*
X574Y1048D02*
X588Y1048D01*
X611Y1048D02*
X625Y1048D01*
X174Y1047D02*
X187Y1047D01*
X212Y1047D02*
X225Y1047D01*
X274Y1047D02*
X287Y1047D01*
X312Y1047D02*
X325Y1047D01*
X474Y1047D02*
X487Y1047D01*
X512Y1047D02*
X525Y1047D01*
X574Y1047D02*
X587Y1047D01*
X612Y1047D02*
X625Y1047D01*
X174Y1046D02*
X186Y1046D01*
X212Y1046D02*
X225Y1046D01*
X274Y1046D02*
X286Y1046D01*
X312Y1046D02*
X325Y1046D01*
X474Y1046D02*
X486Y1046D01*
X512Y1046D02*
X525Y1046D01*
X574Y1046D02*
X586Y1046D01*
X612Y1046D02*
X625Y1046D01*
X174Y1045D02*
X185Y1045D01*
X213Y1045D02*
X225Y1045D01*
X274Y1045D02*
X285Y1045D01*
X313Y1045D02*
X325Y1045D01*
X474Y1045D02*
X485Y1045D01*
X513Y1045D02*
X525Y1045D01*
X574Y1045D02*
X585Y1045D01*
X613Y1045D02*
X625Y1045D01*
X174Y1044D02*
X185Y1044D01*
X214Y1044D02*
X225Y1044D01*
X274Y1044D02*
X285Y1044D01*
X314Y1044D02*
X325Y1044D01*
X474Y1044D02*
X485Y1044D01*
X514Y1044D02*
X525Y1044D01*
X574Y1044D02*
X585Y1044D01*
X614Y1044D02*
X625Y1044D01*
X174Y1043D02*
X184Y1043D01*
X214Y1043D02*
X225Y1043D01*
X274Y1043D02*
X284Y1043D01*
X314Y1043D02*
X325Y1043D01*
X474Y1043D02*
X484Y1043D01*
X514Y1043D02*
X525Y1043D01*
X574Y1043D02*
X584Y1043D01*
X614Y1043D02*
X625Y1043D01*
X174Y1042D02*
X184Y1042D01*
X215Y1042D02*
X225Y1042D01*
X274Y1042D02*
X284Y1042D01*
X315Y1042D02*
X325Y1042D01*
X474Y1042D02*
X484Y1042D01*
X515Y1042D02*
X525Y1042D01*
X574Y1042D02*
X584Y1042D01*
X615Y1042D02*
X625Y1042D01*
X174Y1041D02*
X183Y1041D01*
X215Y1041D02*
X225Y1041D01*
X274Y1041D02*
X283Y1041D01*
X315Y1041D02*
X325Y1041D01*
X474Y1041D02*
X483Y1041D01*
X515Y1041D02*
X525Y1041D01*
X574Y1041D02*
X583Y1041D01*
X615Y1041D02*
X625Y1041D01*
X174Y1040D02*
X183Y1040D01*
X215Y1040D02*
X225Y1040D01*
X274Y1040D02*
X283Y1040D01*
X315Y1040D02*
X325Y1040D01*
X474Y1040D02*
X483Y1040D01*
X515Y1040D02*
X525Y1040D01*
X574Y1040D02*
X583Y1040D01*
X615Y1040D02*
X625Y1040D01*
X174Y1039D02*
X183Y1039D01*
X215Y1039D02*
X225Y1039D01*
X274Y1039D02*
X283Y1039D01*
X315Y1039D02*
X325Y1039D01*
X474Y1039D02*
X483Y1039D01*
X515Y1039D02*
X525Y1039D01*
X574Y1039D02*
X583Y1039D01*
X615Y1039D02*
X625Y1039D01*
X174Y1038D02*
X183Y1038D01*
X215Y1038D02*
X225Y1038D01*
X274Y1038D02*
X283Y1038D01*
X315Y1038D02*
X325Y1038D01*
X474Y1038D02*
X483Y1038D01*
X515Y1038D02*
X525Y1038D01*
X574Y1038D02*
X583Y1038D01*
X615Y1038D02*
X625Y1038D01*
X174Y1037D02*
X183Y1037D01*
X216Y1037D02*
X225Y1037D01*
X274Y1037D02*
X283Y1037D01*
X316Y1037D02*
X325Y1037D01*
X474Y1037D02*
X483Y1037D01*
X516Y1037D02*
X525Y1037D01*
X574Y1037D02*
X583Y1037D01*
X616Y1037D02*
X625Y1037D01*
X174Y1036D02*
X183Y1036D01*
X216Y1036D02*
X225Y1036D01*
X274Y1036D02*
X283Y1036D01*
X316Y1036D02*
X325Y1036D01*
X474Y1036D02*
X483Y1036D01*
X516Y1036D02*
X525Y1036D01*
X574Y1036D02*
X583Y1036D01*
X616Y1036D02*
X625Y1036D01*
X174Y1035D02*
X183Y1035D01*
X215Y1035D02*
X225Y1035D01*
X274Y1035D02*
X283Y1035D01*
X315Y1035D02*
X325Y1035D01*
X474Y1035D02*
X483Y1035D01*
X515Y1035D02*
X525Y1035D01*
X574Y1035D02*
X583Y1035D01*
X615Y1035D02*
X625Y1035D01*
X174Y1034D02*
X183Y1034D01*
X215Y1034D02*
X225Y1034D01*
X274Y1034D02*
X283Y1034D01*
X315Y1034D02*
X325Y1034D01*
X474Y1034D02*
X483Y1034D01*
X515Y1034D02*
X525Y1034D01*
X574Y1034D02*
X583Y1034D01*
X615Y1034D02*
X625Y1034D01*
X174Y1033D02*
X183Y1033D01*
X215Y1033D02*
X225Y1033D01*
X274Y1033D02*
X283Y1033D01*
X315Y1033D02*
X325Y1033D01*
X474Y1033D02*
X483Y1033D01*
X515Y1033D02*
X525Y1033D01*
X574Y1033D02*
X583Y1033D01*
X615Y1033D02*
X625Y1033D01*
X174Y1032D02*
X183Y1032D01*
X215Y1032D02*
X225Y1032D01*
X274Y1032D02*
X283Y1032D01*
X315Y1032D02*
X325Y1032D01*
X474Y1032D02*
X483Y1032D01*
X515Y1032D02*
X525Y1032D01*
X574Y1032D02*
X583Y1032D01*
X615Y1032D02*
X625Y1032D01*
X174Y1031D02*
X184Y1031D01*
X215Y1031D02*
X225Y1031D01*
X274Y1031D02*
X284Y1031D01*
X315Y1031D02*
X325Y1031D01*
X474Y1031D02*
X484Y1031D01*
X515Y1031D02*
X525Y1031D01*
X574Y1031D02*
X584Y1031D01*
X615Y1031D02*
X625Y1031D01*
X174Y1030D02*
X184Y1030D01*
X214Y1030D02*
X225Y1030D01*
X274Y1030D02*
X284Y1030D01*
X314Y1030D02*
X325Y1030D01*
X474Y1030D02*
X484Y1030D01*
X514Y1030D02*
X525Y1030D01*
X574Y1030D02*
X584Y1030D01*
X614Y1030D02*
X625Y1030D01*
X174Y1029D02*
X185Y1029D01*
X214Y1029D02*
X225Y1029D01*
X274Y1029D02*
X285Y1029D01*
X314Y1029D02*
X325Y1029D01*
X474Y1029D02*
X485Y1029D01*
X514Y1029D02*
X525Y1029D01*
X574Y1029D02*
X585Y1029D01*
X614Y1029D02*
X625Y1029D01*
X174Y1028D02*
X185Y1028D01*
X213Y1028D02*
X225Y1028D01*
X274Y1028D02*
X285Y1028D01*
X313Y1028D02*
X325Y1028D01*
X474Y1028D02*
X485Y1028D01*
X513Y1028D02*
X525Y1028D01*
X574Y1028D02*
X585Y1028D01*
X613Y1028D02*
X625Y1028D01*
X174Y1027D02*
X186Y1027D01*
X212Y1027D02*
X225Y1027D01*
X274Y1027D02*
X286Y1027D01*
X312Y1027D02*
X325Y1027D01*
X474Y1027D02*
X486Y1027D01*
X512Y1027D02*
X525Y1027D01*
X574Y1027D02*
X586Y1027D01*
X612Y1027D02*
X625Y1027D01*
X174Y1026D02*
X187Y1026D01*
X212Y1026D02*
X225Y1026D01*
X274Y1026D02*
X287Y1026D01*
X312Y1026D02*
X325Y1026D01*
X474Y1026D02*
X487Y1026D01*
X512Y1026D02*
X525Y1026D01*
X574Y1026D02*
X587Y1026D01*
X612Y1026D02*
X625Y1026D01*
X174Y1025D02*
X188Y1025D01*
X211Y1025D02*
X225Y1025D01*
X274Y1025D02*
X288Y1025D01*
X311Y1025D02*
X325Y1025D01*
X474Y1025D02*
X488Y1025D01*
X511Y1025D02*
X525Y1025D01*
X574Y1025D02*
X588Y1025D01*
X611Y1025D02*
X625Y1025D01*
X174Y1024D02*
X189Y1024D01*
X210Y1024D02*
X225Y1024D01*
X274Y1024D02*
X289Y1024D01*
X310Y1024D02*
X325Y1024D01*
X474Y1024D02*
X489Y1024D01*
X510Y1024D02*
X525Y1024D01*
X574Y1024D02*
X589Y1024D01*
X610Y1024D02*
X625Y1024D01*
X174Y1023D02*
X190Y1023D01*
X208Y1023D02*
X225Y1023D01*
X274Y1023D02*
X290Y1023D01*
X308Y1023D02*
X325Y1023D01*
X474Y1023D02*
X490Y1023D01*
X508Y1023D02*
X525Y1023D01*
X574Y1023D02*
X590Y1023D01*
X608Y1023D02*
X625Y1023D01*
X174Y1022D02*
X192Y1022D01*
X206Y1022D02*
X225Y1022D01*
X274Y1022D02*
X292Y1022D01*
X306Y1022D02*
X325Y1022D01*
X474Y1022D02*
X492Y1022D01*
X506Y1022D02*
X525Y1022D01*
X574Y1022D02*
X592Y1022D01*
X606Y1022D02*
X625Y1022D01*
X174Y1021D02*
X195Y1021D01*
X203Y1021D02*
X225Y1021D01*
X274Y1021D02*
X295Y1021D01*
X303Y1021D02*
X325Y1021D01*
X474Y1021D02*
X495Y1021D01*
X503Y1021D02*
X525Y1021D01*
X574Y1021D02*
X595Y1021D01*
X603Y1021D02*
X625Y1021D01*
X174Y1020D02*
X225Y1020D01*
X274Y1020D02*
X325Y1020D01*
X474Y1020D02*
X525Y1020D01*
X574Y1020D02*
X625Y1020D01*
X174Y1019D02*
X225Y1019D01*
X274Y1019D02*
X325Y1019D01*
X474Y1019D02*
X525Y1019D01*
X574Y1019D02*
X625Y1019D01*
X174Y1018D02*
X225Y1018D01*
X274Y1018D02*
X325Y1018D01*
X474Y1018D02*
X525Y1018D01*
X574Y1018D02*
X625Y1018D01*
X174Y1017D02*
X225Y1017D01*
X274Y1017D02*
X325Y1017D01*
X474Y1017D02*
X525Y1017D01*
X574Y1017D02*
X625Y1017D01*
X174Y1016D02*
X225Y1016D01*
X274Y1016D02*
X325Y1016D01*
X474Y1016D02*
X525Y1016D01*
X574Y1016D02*
X625Y1016D01*
X174Y1015D02*
X225Y1015D01*
X274Y1015D02*
X325Y1015D01*
X474Y1015D02*
X525Y1015D01*
X574Y1015D02*
X625Y1015D01*
X174Y1014D02*
X225Y1014D01*
X274Y1014D02*
X325Y1014D01*
X474Y1014D02*
X525Y1014D01*
X574Y1014D02*
X625Y1014D01*
X174Y1013D02*
X225Y1013D01*
X274Y1013D02*
X325Y1013D01*
X474Y1013D02*
X525Y1013D01*
X574Y1013D02*
X625Y1013D01*
X174Y1012D02*
X225Y1012D01*
X274Y1012D02*
X325Y1012D01*
X474Y1012D02*
X525Y1012D01*
X574Y1012D02*
X625Y1012D01*
X174Y1011D02*
X225Y1011D01*
X274Y1011D02*
X325Y1011D01*
X474Y1011D02*
X525Y1011D01*
X574Y1011D02*
X625Y1011D01*
X174Y1010D02*
X225Y1010D01*
X274Y1010D02*
X325Y1010D01*
X474Y1010D02*
X525Y1010D01*
X574Y1010D02*
X625Y1010D01*
X174Y1009D02*
X225Y1009D01*
X274Y1009D02*
X325Y1009D01*
X474Y1009D02*
X525Y1009D01*
X574Y1009D02*
X625Y1009D01*
X174Y1008D02*
X224Y1008D01*
X274Y1008D02*
X324Y1008D01*
X474Y1008D02*
X524Y1008D01*
X574Y1008D02*
X624Y1008D01*
X174Y1007D02*
X224Y1007D01*
X274Y1007D02*
X324Y1007D01*
X474Y1007D02*
X524Y1007D01*
X574Y1007D02*
X624Y1007D01*
X174Y1006D02*
X224Y1006D01*
X274Y1006D02*
X324Y1006D01*
X474Y1006D02*
X524Y1006D01*
X574Y1006D02*
X624Y1006D01*
X174Y1005D02*
X224Y1005D01*
X274Y1005D02*
X324Y1005D01*
X474Y1005D02*
X524Y1005D01*
X574Y1005D02*
X624Y1005D01*
X174Y1004D02*
X224Y1004D01*
X274Y1004D02*
X324Y1004D01*
X474Y1004D02*
X524Y1004D01*
X574Y1004D02*
X624Y1004D01*
X175Y1003D02*
X224Y1003D01*
X275Y1003D02*
X324Y1003D01*
X475Y1003D02*
X524Y1003D01*
X575Y1003D02*
X624Y1003D01*
X175Y1002D02*
X223Y1002D01*
X275Y1002D02*
X323Y1002D01*
X475Y1002D02*
X523Y1002D01*
X575Y1002D02*
X623Y1002D01*
X175Y1001D02*
X223Y1001D01*
X275Y1001D02*
X323Y1001D01*
X475Y1001D02*
X523Y1001D01*
X575Y1001D02*
X623Y1001D01*
X176Y1000D02*
X222Y1000D01*
X276Y1000D02*
X322Y1000D01*
X476Y1000D02*
X522Y1000D01*
X576Y1000D02*
X622Y1000D01*
X176Y999D02*
X222Y999D01*
X276Y999D02*
X322Y999D01*
X476Y999D02*
X522Y999D01*
X576Y999D02*
X622Y999D01*
X177Y998D02*
X221Y998D01*
X277Y998D02*
X321Y998D01*
X477Y998D02*
X521Y998D01*
X577Y998D02*
X621Y998D01*
X177Y997D02*
X221Y997D01*
X277Y997D02*
X321Y997D01*
X477Y997D02*
X521Y997D01*
X577Y997D02*
X621Y997D01*
X178Y996D02*
X220Y996D01*
X278Y996D02*
X320Y996D01*
X478Y996D02*
X520Y996D01*
X578Y996D02*
X620Y996D01*
X179Y995D02*
X219Y995D01*
X279Y995D02*
X319Y995D01*
X479Y995D02*
X519Y995D01*
X579Y995D02*
X619Y995D01*
X180Y994D02*
X219Y994D01*
X280Y994D02*
X319Y994D01*
X480Y994D02*
X519Y994D01*
X580Y994D02*
X619Y994D01*
X180Y993D02*
X218Y993D01*
X280Y993D02*
X318Y993D01*
X480Y993D02*
X518Y993D01*
X580Y993D02*
X618Y993D01*
X181Y992D02*
X217Y992D01*
X281Y992D02*
X317Y992D01*
X481Y992D02*
X517Y992D01*
X581Y992D02*
X617Y992D01*
X183Y991D02*
X216Y991D01*
X283Y991D02*
X316Y991D01*
X483Y991D02*
X516Y991D01*
X583Y991D02*
X616Y991D01*
X184Y990D02*
X214Y990D01*
X284Y990D02*
X314Y990D01*
X484Y990D02*
X514Y990D01*
X584Y990D02*
X614Y990D01*
X185Y989D02*
X213Y989D01*
X285Y989D02*
X313Y989D01*
X485Y989D02*
X513Y989D01*
X585Y989D02*
X613Y989D01*
X187Y988D02*
X211Y988D01*
X287Y988D02*
X311Y988D01*
X487Y988D02*
X511Y988D01*
X587Y988D02*
X611Y988D01*
X189Y987D02*
X210Y987D01*
X289Y987D02*
X310Y987D01*
X489Y987D02*
X510Y987D01*
X589Y987D02*
X610Y987D01*
X191Y986D02*
X207Y986D01*
X291Y986D02*
X307Y986D01*
X491Y986D02*
X507Y986D01*
X591Y986D02*
X607Y986D01*
X194Y985D02*
X204Y985D01*
X294Y985D02*
X304Y985D01*
X494Y985D02*
X504Y985D01*
X594Y985D02*
X604Y985D01*
X195Y788D02*
X204Y788D01*
X295Y788D02*
X304Y788D01*
X495Y788D02*
X504Y788D01*
X595Y788D02*
X604Y788D01*
X191Y787D02*
X207Y787D01*
X291Y787D02*
X307Y787D01*
X491Y787D02*
X507Y787D01*
X591Y787D02*
X607Y787D01*
X189Y786D02*
X210Y786D01*
X289Y786D02*
X310Y786D01*
X489Y786D02*
X510Y786D01*
X589Y786D02*
X610Y786D01*
X187Y785D02*
X211Y785D01*
X287Y785D02*
X311Y785D01*
X487Y785D02*
X511Y785D01*
X587Y785D02*
X611Y785D01*
X185Y784D02*
X213Y784D01*
X285Y784D02*
X313Y784D01*
X485Y784D02*
X513Y784D01*
X585Y784D02*
X613Y784D01*
X184Y783D02*
X214Y783D01*
X284Y783D02*
X314Y783D01*
X484Y783D02*
X514Y783D01*
X584Y783D02*
X614Y783D01*
X183Y782D02*
X216Y782D01*
X283Y782D02*
X316Y782D01*
X483Y782D02*
X516Y782D01*
X583Y782D02*
X616Y782D01*
X181Y781D02*
X217Y781D01*
X281Y781D02*
X317Y781D01*
X481Y781D02*
X517Y781D01*
X581Y781D02*
X617Y781D01*
X181Y780D02*
X218Y780D01*
X281Y780D02*
X318Y780D01*
X481Y780D02*
X518Y780D01*
X581Y780D02*
X618Y780D01*
X180Y779D02*
X219Y779D01*
X280Y779D02*
X319Y779D01*
X480Y779D02*
X519Y779D01*
X580Y779D02*
X619Y779D01*
X179Y778D02*
X219Y778D01*
X279Y778D02*
X319Y778D01*
X479Y778D02*
X519Y778D01*
X579Y778D02*
X619Y778D01*
X178Y777D02*
X220Y777D01*
X278Y777D02*
X320Y777D01*
X478Y777D02*
X520Y777D01*
X578Y777D02*
X620Y777D01*
X178Y776D02*
X221Y776D01*
X278Y776D02*
X321Y776D01*
X477Y776D02*
X521Y776D01*
X577Y776D02*
X621Y776D01*
X177Y775D02*
X221Y775D01*
X277Y775D02*
X321Y775D01*
X477Y775D02*
X521Y775D01*
X577Y775D02*
X621Y775D01*
X176Y774D02*
X222Y774D01*
X276Y774D02*
X322Y774D01*
X476Y774D02*
X522Y774D01*
X576Y774D02*
X622Y774D01*
X176Y773D02*
X222Y773D01*
X276Y773D02*
X322Y773D01*
X476Y773D02*
X522Y773D01*
X576Y773D02*
X622Y773D01*
X175Y772D02*
X223Y772D01*
X275Y772D02*
X323Y772D01*
X475Y772D02*
X523Y772D01*
X575Y772D02*
X623Y772D01*
X175Y771D02*
X223Y771D01*
X275Y771D02*
X323Y771D01*
X475Y771D02*
X523Y771D01*
X575Y771D02*
X623Y771D01*
X175Y770D02*
X224Y770D01*
X275Y770D02*
X324Y770D01*
X475Y770D02*
X523Y770D01*
X575Y770D02*
X623Y770D01*
X174Y769D02*
X224Y769D01*
X274Y769D02*
X324Y769D01*
X474Y769D02*
X524Y769D01*
X574Y769D02*
X624Y769D01*
X174Y768D02*
X224Y768D01*
X274Y768D02*
X324Y768D01*
X474Y768D02*
X524Y768D01*
X574Y768D02*
X624Y768D01*
X174Y767D02*
X224Y767D01*
X274Y767D02*
X324Y767D01*
X474Y767D02*
X524Y767D01*
X574Y767D02*
X624Y767D01*
X174Y766D02*
X224Y766D01*
X274Y766D02*
X324Y766D01*
X474Y766D02*
X524Y766D01*
X574Y766D02*
X624Y766D01*
X174Y765D02*
X224Y765D01*
X274Y765D02*
X324Y765D01*
X474Y765D02*
X524Y765D01*
X574Y765D02*
X624Y765D01*
X174Y764D02*
X225Y764D01*
X274Y764D02*
X325Y764D01*
X474Y764D02*
X525Y764D01*
X574Y764D02*
X625Y764D01*
X174Y763D02*
X225Y763D01*
X274Y763D02*
X325Y763D01*
X474Y763D02*
X525Y763D01*
X574Y763D02*
X625Y763D01*
X174Y762D02*
X225Y762D01*
X274Y762D02*
X325Y762D01*
X474Y762D02*
X525Y762D01*
X574Y762D02*
X625Y762D01*
X174Y761D02*
X225Y761D01*
X274Y761D02*
X325Y761D01*
X474Y761D02*
X525Y761D01*
X574Y761D02*
X625Y761D01*
X174Y760D02*
X225Y760D01*
X274Y760D02*
X325Y760D01*
X474Y760D02*
X525Y760D01*
X574Y760D02*
X625Y760D01*
X174Y759D02*
X225Y759D01*
X274Y759D02*
X325Y759D01*
X474Y759D02*
X525Y759D01*
X574Y759D02*
X625Y759D01*
X174Y758D02*
X225Y758D01*
X274Y758D02*
X325Y758D01*
X474Y758D02*
X525Y758D01*
X574Y758D02*
X625Y758D01*
X174Y757D02*
X225Y757D01*
X274Y757D02*
X325Y757D01*
X474Y757D02*
X525Y757D01*
X574Y757D02*
X625Y757D01*
X174Y756D02*
X225Y756D01*
X274Y756D02*
X325Y756D01*
X474Y756D02*
X525Y756D01*
X574Y756D02*
X625Y756D01*
X174Y755D02*
X225Y755D01*
X274Y755D02*
X325Y755D01*
X474Y755D02*
X525Y755D01*
X574Y755D02*
X625Y755D01*
X174Y754D02*
X225Y754D01*
X274Y754D02*
X325Y754D01*
X474Y754D02*
X525Y754D01*
X574Y754D02*
X625Y754D01*
X174Y753D02*
X225Y753D01*
X274Y753D02*
X325Y753D01*
X474Y753D02*
X525Y753D01*
X574Y753D02*
X625Y753D01*
X174Y752D02*
X195Y752D01*
X203Y752D02*
X225Y752D01*
X274Y752D02*
X295Y752D01*
X303Y752D02*
X325Y752D01*
X474Y752D02*
X495Y752D01*
X503Y752D02*
X525Y752D01*
X574Y752D02*
X595Y752D01*
X603Y752D02*
X625Y752D01*
X174Y751D02*
X192Y751D01*
X206Y751D02*
X225Y751D01*
X274Y751D02*
X292Y751D01*
X306Y751D02*
X325Y751D01*
X474Y751D02*
X492Y751D01*
X506Y751D02*
X525Y751D01*
X574Y751D02*
X592Y751D01*
X606Y751D02*
X625Y751D01*
X174Y750D02*
X190Y750D01*
X208Y750D02*
X225Y750D01*
X274Y750D02*
X290Y750D01*
X308Y750D02*
X325Y750D01*
X474Y750D02*
X490Y750D01*
X508Y750D02*
X525Y750D01*
X574Y750D02*
X590Y750D01*
X608Y750D02*
X625Y750D01*
X174Y749D02*
X189Y749D01*
X209Y749D02*
X225Y749D01*
X274Y749D02*
X289Y749D01*
X309Y749D02*
X325Y749D01*
X474Y749D02*
X489Y749D01*
X509Y749D02*
X525Y749D01*
X574Y749D02*
X589Y749D01*
X609Y749D02*
X625Y749D01*
X174Y748D02*
X188Y748D01*
X211Y748D02*
X225Y748D01*
X274Y748D02*
X288Y748D01*
X311Y748D02*
X325Y748D01*
X474Y748D02*
X488Y748D01*
X511Y748D02*
X525Y748D01*
X574Y748D02*
X588Y748D01*
X611Y748D02*
X625Y748D01*
X174Y747D02*
X187Y747D01*
X212Y747D02*
X225Y747D01*
X274Y747D02*
X287Y747D01*
X312Y747D02*
X325Y747D01*
X474Y747D02*
X487Y747D01*
X512Y747D02*
X525Y747D01*
X574Y747D02*
X587Y747D01*
X612Y747D02*
X625Y747D01*
X174Y746D02*
X186Y746D01*
X212Y746D02*
X225Y746D01*
X274Y746D02*
X286Y746D01*
X312Y746D02*
X325Y746D01*
X474Y746D02*
X486Y746D01*
X512Y746D02*
X525Y746D01*
X574Y746D02*
X586Y746D01*
X612Y746D02*
X625Y746D01*
X174Y745D02*
X185Y745D01*
X213Y745D02*
X225Y745D01*
X274Y745D02*
X285Y745D01*
X313Y745D02*
X325Y745D01*
X474Y745D02*
X485Y745D01*
X513Y745D02*
X525Y745D01*
X574Y745D02*
X585Y745D01*
X613Y745D02*
X625Y745D01*
X174Y744D02*
X185Y744D01*
X214Y744D02*
X225Y744D01*
X274Y744D02*
X285Y744D01*
X314Y744D02*
X325Y744D01*
X474Y744D02*
X485Y744D01*
X514Y744D02*
X525Y744D01*
X574Y744D02*
X585Y744D01*
X614Y744D02*
X625Y744D01*
X174Y743D02*
X184Y743D01*
X214Y743D02*
X225Y743D01*
X274Y743D02*
X284Y743D01*
X314Y743D02*
X325Y743D01*
X474Y743D02*
X484Y743D01*
X514Y743D02*
X525Y743D01*
X574Y743D02*
X584Y743D01*
X614Y743D02*
X625Y743D01*
X174Y742D02*
X184Y742D01*
X215Y742D02*
X225Y742D01*
X274Y742D02*
X284Y742D01*
X315Y742D02*
X325Y742D01*
X474Y742D02*
X484Y742D01*
X515Y742D02*
X525Y742D01*
X574Y742D02*
X584Y742D01*
X615Y742D02*
X625Y742D01*
X174Y741D02*
X183Y741D01*
X215Y741D02*
X225Y741D01*
X274Y741D02*
X283Y741D01*
X315Y741D02*
X325Y741D01*
X474Y741D02*
X483Y741D01*
X515Y741D02*
X525Y741D01*
X574Y741D02*
X583Y741D01*
X615Y741D02*
X625Y741D01*
X174Y740D02*
X183Y740D01*
X215Y740D02*
X225Y740D01*
X274Y740D02*
X283Y740D01*
X315Y740D02*
X325Y740D01*
X474Y740D02*
X483Y740D01*
X515Y740D02*
X525Y740D01*
X574Y740D02*
X583Y740D01*
X615Y740D02*
X625Y740D01*
X174Y739D02*
X183Y739D01*
X215Y739D02*
X225Y739D01*
X274Y739D02*
X283Y739D01*
X315Y739D02*
X325Y739D01*
X474Y739D02*
X483Y739D01*
X515Y739D02*
X525Y739D01*
X574Y739D02*
X583Y739D01*
X615Y739D02*
X625Y739D01*
X174Y738D02*
X183Y738D01*
X215Y738D02*
X225Y738D01*
X274Y738D02*
X283Y738D01*
X315Y738D02*
X325Y738D01*
X474Y738D02*
X483Y738D01*
X515Y738D02*
X525Y738D01*
X574Y738D02*
X583Y738D01*
X615Y738D02*
X625Y738D01*
X174Y737D02*
X183Y737D01*
X216Y737D02*
X225Y737D01*
X274Y737D02*
X283Y737D01*
X316Y737D02*
X325Y737D01*
X474Y737D02*
X483Y737D01*
X516Y737D02*
X525Y737D01*
X574Y737D02*
X583Y737D01*
X616Y737D02*
X625Y737D01*
X174Y736D02*
X183Y736D01*
X216Y736D02*
X225Y736D01*
X274Y736D02*
X283Y736D01*
X316Y736D02*
X325Y736D01*
X474Y736D02*
X483Y736D01*
X516Y736D02*
X525Y736D01*
X574Y736D02*
X583Y736D01*
X616Y736D02*
X625Y736D01*
X174Y735D02*
X183Y735D01*
X215Y735D02*
X225Y735D01*
X274Y735D02*
X283Y735D01*
X315Y735D02*
X325Y735D01*
X474Y735D02*
X483Y735D01*
X515Y735D02*
X525Y735D01*
X574Y735D02*
X583Y735D01*
X615Y735D02*
X625Y735D01*
X174Y734D02*
X183Y734D01*
X215Y734D02*
X225Y734D01*
X274Y734D02*
X283Y734D01*
X315Y734D02*
X325Y734D01*
X474Y734D02*
X483Y734D01*
X515Y734D02*
X525Y734D01*
X574Y734D02*
X583Y734D01*
X615Y734D02*
X625Y734D01*
X174Y733D02*
X183Y733D01*
X215Y733D02*
X225Y733D01*
X274Y733D02*
X283Y733D01*
X315Y733D02*
X325Y733D01*
X474Y733D02*
X483Y733D01*
X515Y733D02*
X525Y733D01*
X574Y733D02*
X583Y733D01*
X615Y733D02*
X625Y733D01*
X174Y732D02*
X183Y732D01*
X215Y732D02*
X225Y732D01*
X274Y732D02*
X283Y732D01*
X315Y732D02*
X325Y732D01*
X474Y732D02*
X483Y732D01*
X515Y732D02*
X525Y732D01*
X574Y732D02*
X583Y732D01*
X615Y732D02*
X625Y732D01*
X174Y731D02*
X184Y731D01*
X215Y731D02*
X225Y731D01*
X274Y731D02*
X284Y731D01*
X315Y731D02*
X325Y731D01*
X474Y731D02*
X484Y731D01*
X515Y731D02*
X525Y731D01*
X574Y731D02*
X584Y731D01*
X615Y731D02*
X625Y731D01*
X174Y730D02*
X184Y730D01*
X214Y730D02*
X225Y730D01*
X274Y730D02*
X284Y730D01*
X314Y730D02*
X325Y730D01*
X474Y730D02*
X484Y730D01*
X514Y730D02*
X525Y730D01*
X574Y730D02*
X584Y730D01*
X614Y730D02*
X625Y730D01*
X174Y729D02*
X185Y729D01*
X214Y729D02*
X225Y729D01*
X274Y729D02*
X285Y729D01*
X314Y729D02*
X325Y729D01*
X474Y729D02*
X485Y729D01*
X514Y729D02*
X525Y729D01*
X574Y729D02*
X585Y729D01*
X614Y729D02*
X625Y729D01*
X174Y728D02*
X185Y728D01*
X213Y728D02*
X225Y728D01*
X274Y728D02*
X285Y728D01*
X313Y728D02*
X325Y728D01*
X474Y728D02*
X485Y728D01*
X513Y728D02*
X525Y728D01*
X574Y728D02*
X585Y728D01*
X613Y728D02*
X625Y728D01*
X174Y727D02*
X186Y727D01*
X212Y727D02*
X225Y727D01*
X274Y727D02*
X286Y727D01*
X312Y727D02*
X325Y727D01*
X474Y727D02*
X486Y727D01*
X512Y727D02*
X525Y727D01*
X574Y727D02*
X586Y727D01*
X612Y727D02*
X625Y727D01*
X174Y726D02*
X187Y726D01*
X212Y726D02*
X225Y726D01*
X274Y726D02*
X287Y726D01*
X312Y726D02*
X325Y726D01*
X474Y726D02*
X487Y726D01*
X512Y726D02*
X525Y726D01*
X574Y726D02*
X587Y726D01*
X612Y726D02*
X625Y726D01*
X174Y725D02*
X188Y725D01*
X211Y725D02*
X225Y725D01*
X274Y725D02*
X288Y725D01*
X311Y725D02*
X325Y725D01*
X474Y725D02*
X488Y725D01*
X511Y725D02*
X525Y725D01*
X574Y725D02*
X588Y725D01*
X611Y725D02*
X625Y725D01*
X174Y724D02*
X189Y724D01*
X210Y724D02*
X225Y724D01*
X274Y724D02*
X289Y724D01*
X309Y724D02*
X325Y724D01*
X474Y724D02*
X489Y724D01*
X509Y724D02*
X525Y724D01*
X574Y724D02*
X589Y724D01*
X609Y724D02*
X625Y724D01*
X174Y723D02*
X190Y723D01*
X208Y723D02*
X225Y723D01*
X274Y723D02*
X290Y723D01*
X308Y723D02*
X325Y723D01*
X474Y723D02*
X490Y723D01*
X508Y723D02*
X525Y723D01*
X574Y723D02*
X590Y723D01*
X608Y723D02*
X625Y723D01*
X174Y722D02*
X192Y722D01*
X206Y722D02*
X225Y722D01*
X274Y722D02*
X292Y722D01*
X306Y722D02*
X325Y722D01*
X474Y722D02*
X492Y722D01*
X506Y722D02*
X525Y722D01*
X574Y722D02*
X592Y722D01*
X606Y722D02*
X625Y722D01*
X174Y721D02*
X195Y721D01*
X203Y721D02*
X225Y721D01*
X274Y721D02*
X295Y721D01*
X303Y721D02*
X325Y721D01*
X474Y721D02*
X495Y721D01*
X503Y721D02*
X525Y721D01*
X574Y721D02*
X595Y721D01*
X603Y721D02*
X625Y721D01*
X174Y720D02*
X225Y720D01*
X274Y720D02*
X325Y720D01*
X474Y720D02*
X525Y720D01*
X574Y720D02*
X625Y720D01*
X174Y719D02*
X225Y719D01*
X274Y719D02*
X325Y719D01*
X474Y719D02*
X525Y719D01*
X574Y719D02*
X625Y719D01*
X174Y718D02*
X225Y718D01*
X274Y718D02*
X325Y718D01*
X474Y718D02*
X525Y718D01*
X574Y718D02*
X625Y718D01*
X174Y717D02*
X225Y717D01*
X274Y717D02*
X325Y717D01*
X474Y717D02*
X525Y717D01*
X574Y717D02*
X625Y717D01*
X174Y716D02*
X225Y716D01*
X274Y716D02*
X325Y716D01*
X474Y716D02*
X525Y716D01*
X574Y716D02*
X625Y716D01*
X174Y715D02*
X225Y715D01*
X274Y715D02*
X325Y715D01*
X474Y715D02*
X525Y715D01*
X574Y715D02*
X625Y715D01*
X174Y714D02*
X225Y714D01*
X274Y714D02*
X325Y714D01*
X474Y714D02*
X525Y714D01*
X574Y714D02*
X625Y714D01*
X174Y713D02*
X225Y713D01*
X274Y713D02*
X325Y713D01*
X474Y713D02*
X525Y713D01*
X574Y713D02*
X625Y713D01*
X174Y712D02*
X225Y712D01*
X274Y712D02*
X325Y712D01*
X474Y712D02*
X525Y712D01*
X574Y712D02*
X625Y712D01*
X174Y711D02*
X225Y711D01*
X274Y711D02*
X325Y711D01*
X474Y711D02*
X525Y711D01*
X574Y711D02*
X625Y711D01*
X174Y710D02*
X225Y710D01*
X274Y710D02*
X325Y710D01*
X474Y710D02*
X525Y710D01*
X574Y710D02*
X625Y710D01*
X174Y709D02*
X225Y709D01*
X274Y709D02*
X325Y709D01*
X474Y709D02*
X525Y709D01*
X574Y709D02*
X625Y709D01*
X174Y708D02*
X224Y708D01*
X274Y708D02*
X324Y708D01*
X474Y708D02*
X524Y708D01*
X574Y708D02*
X624Y708D01*
X174Y707D02*
X224Y707D01*
X274Y707D02*
X324Y707D01*
X474Y707D02*
X524Y707D01*
X574Y707D02*
X624Y707D01*
X174Y706D02*
X224Y706D01*
X274Y706D02*
X324Y706D01*
X474Y706D02*
X524Y706D01*
X574Y706D02*
X624Y706D01*
X174Y705D02*
X224Y705D01*
X274Y705D02*
X324Y705D01*
X474Y705D02*
X524Y705D01*
X574Y705D02*
X624Y705D01*
X174Y704D02*
X224Y704D01*
X274Y704D02*
X324Y704D01*
X474Y704D02*
X524Y704D01*
X574Y704D02*
X624Y704D01*
X175Y703D02*
X224Y703D01*
X275Y703D02*
X324Y703D01*
X475Y703D02*
X524Y703D01*
X575Y703D02*
X624Y703D01*
X175Y702D02*
X223Y702D01*
X275Y702D02*
X323Y702D01*
X475Y702D02*
X523Y702D01*
X575Y702D02*
X623Y702D01*
X175Y701D02*
X223Y701D01*
X275Y701D02*
X323Y701D01*
X475Y701D02*
X523Y701D01*
X575Y701D02*
X623Y701D01*
X176Y700D02*
X222Y700D01*
X276Y700D02*
X322Y700D01*
X476Y700D02*
X522Y700D01*
X576Y700D02*
X622Y700D01*
X176Y699D02*
X222Y699D01*
X276Y699D02*
X322Y699D01*
X476Y699D02*
X522Y699D01*
X576Y699D02*
X622Y699D01*
X177Y698D02*
X221Y698D01*
X277Y698D02*
X321Y698D01*
X477Y698D02*
X521Y698D01*
X577Y698D02*
X621Y698D01*
X177Y697D02*
X221Y697D01*
X277Y697D02*
X321Y697D01*
X477Y697D02*
X521Y697D01*
X577Y697D02*
X621Y697D01*
X178Y696D02*
X220Y696D01*
X278Y696D02*
X320Y696D01*
X478Y696D02*
X520Y696D01*
X578Y696D02*
X620Y696D01*
X179Y695D02*
X219Y695D01*
X279Y695D02*
X319Y695D01*
X479Y695D02*
X519Y695D01*
X579Y695D02*
X619Y695D01*
X180Y694D02*
X219Y694D01*
X280Y694D02*
X319Y694D01*
X480Y694D02*
X519Y694D01*
X580Y694D02*
X619Y694D01*
X180Y693D02*
X218Y693D01*
X280Y693D02*
X318Y693D01*
X480Y693D02*
X518Y693D01*
X580Y693D02*
X618Y693D01*
X181Y692D02*
X217Y692D01*
X281Y692D02*
X317Y692D01*
X481Y692D02*
X517Y692D01*
X581Y692D02*
X617Y692D01*
X183Y691D02*
X216Y691D01*
X283Y691D02*
X316Y691D01*
X483Y691D02*
X516Y691D01*
X583Y691D02*
X616Y691D01*
X184Y690D02*
X214Y690D01*
X284Y690D02*
X314Y690D01*
X484Y690D02*
X514Y690D01*
X584Y690D02*
X614Y690D01*
X185Y689D02*
X213Y689D01*
X285Y689D02*
X313Y689D01*
X485Y689D02*
X513Y689D01*
X585Y689D02*
X613Y689D01*
X187Y688D02*
X211Y688D01*
X287Y688D02*
X311Y688D01*
X487Y688D02*
X511Y688D01*
X587Y688D02*
X611Y688D01*
X189Y687D02*
X210Y687D01*
X289Y687D02*
X310Y687D01*
X489Y687D02*
X510Y687D01*
X589Y687D02*
X610Y687D01*
X191Y686D02*
X207Y686D01*
X291Y686D02*
X307Y686D01*
X491Y686D02*
X507Y686D01*
X591Y686D02*
X607Y686D01*
X195Y685D02*
X204Y685D01*
X295Y685D02*
X304Y685D01*
X495Y685D02*
X504Y685D01*
X595Y685D02*
X604Y685D01*
X495Y515D02*
X503Y515D01*
X743Y515D02*
X751Y515D01*
X490Y514D02*
X508Y514D01*
X738Y514D02*
X756Y514D01*
X487Y513D02*
X512Y513D01*
X735Y513D02*
X760Y513D01*
X484Y512D02*
X514Y512D01*
X732Y512D02*
X762Y512D01*
X482Y511D02*
X516Y511D01*
X730Y511D02*
X764Y511D01*
X480Y510D02*
X518Y510D01*
X728Y510D02*
X766Y510D01*
X478Y509D02*
X520Y509D01*
X726Y509D02*
X768Y509D01*
X477Y508D02*
X521Y508D01*
X725Y508D02*
X769Y508D01*
X476Y507D02*
X523Y507D01*
X724Y507D02*
X771Y507D01*
X474Y506D02*
X524Y506D01*
X722Y506D02*
X772Y506D01*
X473Y505D02*
X525Y505D01*
X721Y505D02*
X773Y505D01*
X472Y504D02*
X526Y504D01*
X720Y504D02*
X774Y504D01*
X471Y503D02*
X527Y503D01*
X719Y503D02*
X775Y503D01*
X470Y502D02*
X528Y502D01*
X718Y502D02*
X776Y502D01*
X469Y501D02*
X529Y501D01*
X717Y501D02*
X777Y501D01*
X469Y500D02*
X530Y500D01*
X717Y500D02*
X778Y500D01*
X468Y499D02*
X530Y499D01*
X716Y499D02*
X778Y499D01*
X467Y498D02*
X531Y498D01*
X715Y498D02*
X779Y498D01*
X466Y497D02*
X532Y497D01*
X714Y497D02*
X780Y497D01*
X466Y496D02*
X532Y496D01*
X714Y496D02*
X780Y496D01*
X465Y495D02*
X533Y495D01*
X713Y495D02*
X781Y495D01*
X465Y494D02*
X534Y494D01*
X713Y494D02*
X782Y494D01*
X464Y493D02*
X534Y493D01*
X712Y493D02*
X782Y493D01*
X464Y492D02*
X535Y492D01*
X712Y492D02*
X783Y492D01*
X463Y491D02*
X535Y491D01*
X711Y491D02*
X783Y491D01*
X463Y490D02*
X535Y490D01*
X711Y490D02*
X783Y490D01*
X463Y489D02*
X536Y489D01*
X711Y489D02*
X784Y489D01*
X462Y488D02*
X536Y488D01*
X710Y488D02*
X784Y488D01*
X462Y487D02*
X536Y487D01*
X710Y487D02*
X784Y487D01*
X462Y486D02*
X537Y486D01*
X710Y486D02*
X785Y486D01*
X461Y485D02*
X537Y485D01*
X709Y485D02*
X785Y485D01*
X461Y484D02*
X537Y484D01*
X709Y484D02*
X785Y484D01*
X461Y483D02*
X537Y483D01*
X709Y483D02*
X785Y483D01*
X461Y482D02*
X537Y482D01*
X709Y482D02*
X785Y482D01*
X461Y481D02*
X538Y481D01*
X709Y481D02*
X786Y481D01*
X460Y480D02*
X538Y480D01*
X708Y480D02*
X786Y480D01*
X460Y479D02*
X538Y479D01*
X708Y479D02*
X786Y479D01*
X460Y478D02*
X538Y478D01*
X708Y478D02*
X786Y478D01*
X460Y477D02*
X538Y477D01*
X708Y477D02*
X786Y477D01*
X460Y476D02*
X538Y476D01*
X708Y476D02*
X786Y476D01*
X460Y475D02*
X538Y475D01*
X708Y475D02*
X786Y475D01*
X460Y474D02*
X538Y474D01*
X708Y474D02*
X786Y474D01*
X460Y473D02*
X538Y473D01*
X708Y473D02*
X786Y473D01*
X460Y472D02*
X538Y472D01*
X708Y472D02*
X786Y472D01*
X460Y471D02*
X538Y471D01*
X708Y471D02*
X786Y471D01*
X460Y470D02*
X538Y470D01*
X708Y470D02*
X786Y470D01*
X460Y469D02*
X538Y469D01*
X708Y469D02*
X786Y469D01*
X460Y468D02*
X538Y468D01*
X708Y468D02*
X786Y468D01*
X460Y467D02*
X538Y467D01*
X708Y467D02*
X786Y467D01*
X460Y466D02*
X538Y466D01*
X708Y466D02*
X786Y466D01*
X460Y465D02*
X538Y465D01*
X708Y465D02*
X786Y465D01*
X460Y464D02*
X538Y464D01*
X708Y464D02*
X786Y464D01*
X460Y463D02*
X538Y463D01*
X708Y463D02*
X786Y463D01*
X460Y462D02*
X538Y462D01*
X708Y462D02*
X786Y462D01*
X460Y461D02*
X538Y461D01*
X708Y461D02*
X786Y461D01*
X460Y460D02*
X538Y460D01*
X708Y460D02*
X786Y460D01*
X460Y459D02*
X538Y459D01*
X708Y459D02*
X786Y459D01*
X460Y458D02*
X538Y458D01*
X708Y458D02*
X786Y458D01*
X460Y457D02*
X538Y457D01*
X708Y457D02*
X786Y457D01*
X460Y456D02*
X497Y456D01*
X501Y456D02*
X538Y456D01*
X708Y456D02*
X745Y456D01*
X749Y456D02*
X786Y456D01*
X460Y455D02*
X492Y455D01*
X506Y455D02*
X538Y455D01*
X708Y455D02*
X740Y455D01*
X754Y455D02*
X786Y455D01*
X460Y454D02*
X490Y454D01*
X508Y454D02*
X538Y454D01*
X708Y454D02*
X738Y454D01*
X756Y454D02*
X786Y454D01*
X460Y453D02*
X488Y453D01*
X510Y453D02*
X538Y453D01*
X708Y453D02*
X736Y453D01*
X758Y453D02*
X786Y453D01*
X460Y452D02*
X487Y452D01*
X512Y452D02*
X538Y452D01*
X708Y452D02*
X735Y452D01*
X760Y452D02*
X786Y452D01*
X460Y451D02*
X485Y451D01*
X513Y451D02*
X538Y451D01*
X708Y451D02*
X733Y451D01*
X761Y451D02*
X786Y451D01*
X460Y450D02*
X484Y450D01*
X514Y450D02*
X538Y450D01*
X708Y450D02*
X732Y450D01*
X762Y450D02*
X786Y450D01*
X460Y449D02*
X484Y449D01*
X515Y449D02*
X538Y449D01*
X708Y449D02*
X732Y449D01*
X763Y449D02*
X786Y449D01*
X460Y448D02*
X483Y448D01*
X516Y448D02*
X538Y448D01*
X708Y448D02*
X731Y448D01*
X764Y448D02*
X786Y448D01*
X460Y447D02*
X482Y447D01*
X516Y447D02*
X538Y447D01*
X708Y447D02*
X730Y447D01*
X764Y447D02*
X786Y447D01*
X460Y446D02*
X481Y446D01*
X517Y446D02*
X538Y446D01*
X708Y446D02*
X730Y446D01*
X765Y446D02*
X786Y446D01*
X460Y445D02*
X481Y445D01*
X517Y445D02*
X538Y445D01*
X708Y445D02*
X729Y445D01*
X765Y445D02*
X786Y445D01*
X460Y444D02*
X480Y444D01*
X518Y444D02*
X538Y444D01*
X708Y444D02*
X728Y444D01*
X766Y444D02*
X786Y444D01*
X460Y443D02*
X480Y443D01*
X518Y443D02*
X538Y443D01*
X708Y443D02*
X728Y443D01*
X766Y443D02*
X786Y443D01*
X460Y442D02*
X480Y442D01*
X518Y442D02*
X538Y442D01*
X708Y442D02*
X728Y442D01*
X766Y442D02*
X786Y442D01*
X460Y441D02*
X479Y441D01*
X519Y441D02*
X538Y441D01*
X708Y441D02*
X728Y441D01*
X767Y441D02*
X786Y441D01*
X460Y440D02*
X479Y440D01*
X519Y440D02*
X538Y440D01*
X708Y440D02*
X727Y440D01*
X767Y440D02*
X786Y440D01*
X460Y439D02*
X479Y439D01*
X519Y439D02*
X538Y439D01*
X708Y439D02*
X727Y439D01*
X767Y439D02*
X786Y439D01*
X460Y438D02*
X479Y438D01*
X519Y438D02*
X538Y438D01*
X708Y438D02*
X727Y438D01*
X767Y438D02*
X786Y438D01*
X460Y437D02*
X479Y437D01*
X519Y437D02*
X538Y437D01*
X708Y437D02*
X727Y437D01*
X767Y437D02*
X786Y437D01*
X460Y436D02*
X479Y436D01*
X519Y436D02*
X538Y436D01*
X708Y436D02*
X727Y436D01*
X767Y436D02*
X786Y436D01*
X460Y435D02*
X479Y435D01*
X519Y435D02*
X538Y435D01*
X708Y435D02*
X727Y435D01*
X767Y435D02*
X786Y435D01*
X460Y434D02*
X479Y434D01*
X519Y434D02*
X538Y434D01*
X708Y434D02*
X727Y434D01*
X767Y434D02*
X786Y434D01*
X460Y433D02*
X479Y433D01*
X519Y433D02*
X538Y433D01*
X708Y433D02*
X727Y433D01*
X767Y433D02*
X786Y433D01*
X460Y432D02*
X479Y432D01*
X519Y432D02*
X538Y432D01*
X708Y432D02*
X728Y432D01*
X767Y432D02*
X786Y432D01*
X460Y431D02*
X480Y431D01*
X518Y431D02*
X538Y431D01*
X708Y431D02*
X728Y431D01*
X766Y431D02*
X786Y431D01*
X460Y430D02*
X480Y430D01*
X518Y430D02*
X538Y430D01*
X708Y430D02*
X728Y430D01*
X766Y430D02*
X786Y430D01*
X460Y429D02*
X480Y429D01*
X518Y429D02*
X538Y429D01*
X708Y429D02*
X728Y429D01*
X766Y429D02*
X786Y429D01*
X460Y428D02*
X481Y428D01*
X517Y428D02*
X538Y428D01*
X708Y428D02*
X729Y428D01*
X765Y428D02*
X786Y428D01*
X460Y427D02*
X481Y427D01*
X517Y427D02*
X538Y427D01*
X708Y427D02*
X729Y427D01*
X765Y427D02*
X786Y427D01*
X460Y426D02*
X482Y426D01*
X516Y426D02*
X538Y426D01*
X708Y426D02*
X730Y426D01*
X764Y426D02*
X786Y426D01*
X460Y425D02*
X483Y425D01*
X516Y425D02*
X538Y425D01*
X708Y425D02*
X731Y425D01*
X764Y425D02*
X786Y425D01*
X460Y424D02*
X484Y424D01*
X515Y424D02*
X538Y424D01*
X708Y424D02*
X732Y424D01*
X763Y424D02*
X786Y424D01*
X460Y423D02*
X484Y423D01*
X514Y423D02*
X538Y423D01*
X708Y423D02*
X732Y423D01*
X762Y423D02*
X786Y423D01*
X460Y422D02*
X485Y422D01*
X513Y422D02*
X538Y422D01*
X708Y422D02*
X733Y422D01*
X761Y422D02*
X786Y422D01*
X460Y421D02*
X487Y421D01*
X512Y421D02*
X538Y421D01*
X708Y421D02*
X735Y421D01*
X760Y421D02*
X786Y421D01*
X460Y420D02*
X488Y420D01*
X510Y420D02*
X538Y420D01*
X708Y420D02*
X736Y420D01*
X758Y420D02*
X786Y420D01*
X460Y419D02*
X490Y419D01*
X508Y419D02*
X538Y419D01*
X708Y419D02*
X738Y419D01*
X756Y419D02*
X786Y419D01*
X460Y418D02*
X492Y418D01*
X506Y418D02*
X538Y418D01*
X708Y418D02*
X740Y418D01*
X754Y418D02*
X786Y418D01*
X460Y417D02*
X497Y417D01*
X501Y417D02*
X538Y417D01*
X708Y417D02*
X745Y417D01*
X749Y417D02*
X786Y417D01*
X460Y416D02*
X538Y416D01*
X708Y416D02*
X786Y416D01*
X460Y415D02*
X538Y415D01*
X708Y415D02*
X786Y415D01*
X460Y414D02*
X538Y414D01*
X708Y414D02*
X786Y414D01*
X460Y413D02*
X538Y413D01*
X708Y413D02*
X786Y413D01*
X460Y412D02*
X538Y412D01*
X708Y412D02*
X786Y412D01*
X460Y411D02*
X538Y411D01*
X708Y411D02*
X786Y411D01*
X460Y410D02*
X538Y410D01*
X708Y410D02*
X786Y410D01*
X460Y409D02*
X538Y409D01*
X708Y409D02*
X786Y409D01*
X460Y408D02*
X538Y408D01*
X708Y408D02*
X786Y408D01*
X460Y407D02*
X538Y407D01*
X708Y407D02*
X786Y407D01*
X460Y406D02*
X538Y406D01*
X708Y406D02*
X786Y406D01*
X460Y405D02*
X538Y405D01*
X708Y405D02*
X786Y405D01*
X460Y404D02*
X538Y404D01*
X708Y404D02*
X786Y404D01*
X460Y403D02*
X538Y403D01*
X708Y403D02*
X786Y403D01*
X460Y402D02*
X538Y402D01*
X708Y402D02*
X786Y402D01*
X460Y401D02*
X538Y401D01*
X708Y401D02*
X786Y401D01*
X460Y400D02*
X538Y400D01*
X708Y400D02*
X786Y400D01*
X460Y399D02*
X538Y399D01*
X708Y399D02*
X786Y399D01*
X460Y398D02*
X538Y398D01*
X708Y398D02*
X786Y398D01*
X460Y397D02*
X538Y397D01*
X708Y397D02*
X786Y397D01*
X460Y396D02*
X538Y396D01*
X708Y396D02*
X786Y396D01*
X460Y395D02*
X538Y395D01*
X708Y395D02*
X786Y395D01*
X460Y394D02*
X538Y394D01*
X708Y394D02*
X786Y394D01*
X460Y393D02*
X538Y393D01*
X708Y393D02*
X786Y393D01*
X461Y392D02*
X538Y392D01*
X709Y392D02*
X786Y392D01*
X461Y391D02*
X537Y391D01*
X709Y391D02*
X785Y391D01*
X461Y390D02*
X537Y390D01*
X709Y390D02*
X785Y390D01*
X461Y389D02*
X537Y389D01*
X709Y389D02*
X785Y389D01*
X461Y388D02*
X537Y388D01*
X709Y388D02*
X785Y388D01*
X462Y387D02*
X537Y387D01*
X710Y387D02*
X785Y387D01*
X462Y386D02*
X536Y386D01*
X710Y386D02*
X784Y386D01*
X462Y385D02*
X536Y385D01*
X710Y385D02*
X784Y385D01*
X463Y384D02*
X536Y384D01*
X711Y384D02*
X784Y384D01*
X463Y383D02*
X535Y383D01*
X711Y383D02*
X783Y383D01*
X463Y382D02*
X535Y382D01*
X711Y382D02*
X783Y382D01*
X464Y381D02*
X535Y381D01*
X712Y381D02*
X783Y381D01*
X464Y380D02*
X534Y380D01*
X712Y380D02*
X782Y380D01*
X465Y379D02*
X534Y379D01*
X713Y379D02*
X782Y379D01*
X465Y378D02*
X533Y378D01*
X713Y378D02*
X781Y378D01*
X466Y377D02*
X532Y377D01*
X714Y377D02*
X780Y377D01*
X466Y376D02*
X532Y376D01*
X714Y376D02*
X780Y376D01*
X467Y375D02*
X531Y375D01*
X715Y375D02*
X779Y375D01*
X468Y374D02*
X530Y374D01*
X716Y374D02*
X778Y374D01*
X469Y373D02*
X530Y373D01*
X717Y373D02*
X778Y373D01*
X469Y372D02*
X529Y372D01*
X717Y372D02*
X777Y372D01*
X470Y371D02*
X528Y371D01*
X718Y371D02*
X776Y371D01*
X471Y370D02*
X527Y370D01*
X719Y370D02*
X775Y370D01*
X472Y369D02*
X526Y369D01*
X720Y369D02*
X774Y369D01*
X473Y368D02*
X525Y368D01*
X721Y368D02*
X773Y368D01*
X474Y367D02*
X524Y367D01*
X722Y367D02*
X772Y367D01*
X476Y366D02*
X523Y366D01*
X724Y366D02*
X771Y366D01*
X477Y365D02*
X521Y365D01*
X725Y365D02*
X769Y365D01*
X478Y364D02*
X520Y364D01*
X726Y364D02*
X768Y364D01*
X480Y363D02*
X518Y363D01*
X728Y363D02*
X766Y363D01*
X482Y362D02*
X516Y362D01*
X730Y362D02*
X764Y362D01*
X484Y361D02*
X514Y361D01*
X732Y361D02*
X762Y361D01*
X487Y360D02*
X512Y360D01*
X735Y360D02*
X760Y360D01*
X490Y359D02*
X508Y359D01*
X738Y359D02*
X756Y359D01*
X495Y358D02*
X503Y358D01*
X743Y358D02*
X751Y358D01*
X590Y279D02*
X668Y279D01*
X581Y278D02*
X677Y278D01*
X578Y277D02*
X680Y277D01*
X575Y276D02*
X683Y276D01*
X573Y275D02*
X685Y275D01*
X571Y274D02*
X687Y274D01*
X569Y273D02*
X689Y273D01*
X568Y272D02*
X690Y272D01*
X566Y271D02*
X692Y271D01*
X565Y270D02*
X693Y270D01*
X564Y269D02*
X694Y269D01*
X563Y268D02*
X695Y268D01*
X562Y267D02*
X696Y267D01*
X561Y266D02*
X697Y266D01*
X560Y265D02*
X698Y265D01*
X559Y264D02*
X699Y264D01*
X559Y263D02*
X700Y263D01*
X558Y262D02*
X700Y262D01*
X557Y261D02*
X701Y261D01*
X557Y260D02*
X702Y260D01*
X556Y259D02*
X625Y259D01*
X633Y259D02*
X702Y259D01*
X555Y258D02*
X622Y258D01*
X636Y258D02*
X703Y258D01*
X555Y257D02*
X619Y257D01*
X639Y257D02*
X703Y257D01*
X554Y256D02*
X618Y256D01*
X640Y256D02*
X704Y256D01*
X554Y255D02*
X616Y255D01*
X642Y255D02*
X704Y255D01*
X554Y254D02*
X615Y254D01*
X643Y254D02*
X705Y254D01*
X553Y253D02*
X614Y253D01*
X644Y253D02*
X705Y253D01*
X553Y252D02*
X613Y252D01*
X645Y252D02*
X705Y252D01*
X552Y251D02*
X612Y251D01*
X646Y251D02*
X706Y251D01*
X552Y250D02*
X612Y250D01*
X646Y250D02*
X706Y250D01*
X552Y249D02*
X611Y249D01*
X647Y249D02*
X706Y249D01*
X552Y248D02*
X611Y248D01*
X647Y248D02*
X706Y248D01*
X552Y247D02*
X610Y247D01*
X648Y247D02*
X707Y247D01*
X551Y246D02*
X610Y246D01*
X648Y246D02*
X707Y246D01*
X551Y245D02*
X610Y245D01*
X648Y245D02*
X707Y245D01*
X551Y244D02*
X609Y244D01*
X649Y244D02*
X707Y244D01*
X551Y243D02*
X609Y243D01*
X649Y243D02*
X707Y243D01*
X551Y242D02*
X609Y242D01*
X649Y242D02*
X707Y242D01*
X551Y241D02*
X609Y241D01*
X649Y241D02*
X707Y241D01*
X551Y240D02*
X609Y240D01*
X649Y240D02*
X707Y240D01*
X551Y239D02*
X609Y239D01*
X649Y239D02*
X707Y239D01*
X551Y238D02*
X609Y238D01*
X649Y238D02*
X707Y238D01*
X551Y237D02*
X609Y237D01*
X649Y237D02*
X707Y237D01*
X551Y236D02*
X609Y236D01*
X649Y236D02*
X707Y236D01*
X551Y235D02*
X609Y235D01*
X649Y235D02*
X707Y235D01*
X551Y234D02*
X610Y234D01*
X648Y234D02*
X707Y234D01*
X551Y233D02*
X610Y233D01*
X648Y233D02*
X707Y233D01*
X552Y232D02*
X610Y232D01*
X648Y232D02*
X707Y232D01*
X552Y231D02*
X611Y231D01*
X647Y231D02*
X706Y231D01*
X552Y230D02*
X611Y230D01*
X647Y230D02*
X706Y230D01*
X552Y229D02*
X612Y229D01*
X646Y229D02*
X706Y229D01*
X553Y228D02*
X613Y228D01*
X645Y228D02*
X706Y228D01*
X553Y227D02*
X614Y227D01*
X645Y227D02*
X705Y227D01*
X553Y226D02*
X614Y226D01*
X644Y226D02*
X705Y226D01*
X554Y225D02*
X615Y225D01*
X643Y225D02*
X704Y225D01*
X554Y224D02*
X617Y224D01*
X641Y224D02*
X704Y224D01*
X555Y223D02*
X618Y223D01*
X640Y223D02*
X704Y223D01*
X555Y222D02*
X620Y222D01*
X638Y222D02*
X703Y222D01*
X555Y221D02*
X623Y221D01*
X636Y221D02*
X703Y221D01*
X556Y220D02*
X628Y220D01*
X630Y220D02*
X702Y220D01*
X557Y219D02*
X701Y219D01*
X557Y218D02*
X701Y218D01*
X558Y217D02*
X700Y217D01*
X559Y216D02*
X699Y216D01*
X559Y215D02*
X699Y215D01*
X560Y214D02*
X698Y214D01*
X561Y213D02*
X697Y213D01*
X562Y212D02*
X696Y212D01*
X563Y211D02*
X695Y211D01*
X564Y210D02*
X694Y210D01*
X565Y209D02*
X693Y209D01*
X567Y208D02*
X691Y208D01*
X568Y207D02*
X690Y207D01*
X570Y206D02*
X688Y206D01*
X571Y205D02*
X687Y205D01*
X574Y204D02*
X685Y204D01*
X576Y203D02*
X682Y203D01*
X579Y202D02*
X679Y202D01*
X583Y201D02*
X675Y201D01*
D02*
G04 End of Copper1*
M02*