; NON-PLATED HOLES START AT T1
; THROUGH (PLATED) HOLES START AT T100
M48
INCH
T1C0.125984
T100C0.038522
T101C0.042000
T102C0.039370
T103C0.038000
T104C0.036111
T105C0.035000
T106C0.032000
T107C0.031496
%
T1
X032311Y023187
X032311Y002187
X006810Y001187
X003310Y023187
T100
X011815Y013687
X007811Y014687
X007811Y015687
X011816Y014687
X011815Y015687
X007811Y016687
X011816Y016687
X007807Y017691
X011811Y017691
X007811Y012687
X007811Y013687
X011816Y012687
T101
X019811Y002187
X019811Y005187
T102
X027311Y008187
X003610Y002219
X004791Y004187
X029811Y002687
X002311Y004187
X025811Y002687
X025311Y008187
X027811Y002687
T103
X018311Y021687
X018311Y022687
X000811Y019687
X018311Y019687
X018311Y020687
X000811Y017687
X000811Y021687
T104
X014810Y017687
X005811Y019687
X021811Y018687
X014810Y014687
X021811Y022687
X005811Y016687
X021811Y015687
X030810Y017687
X005811Y020687
X030810Y021687
X005811Y013687
X014810Y019687
X014810Y016687
X014810Y020687
X005811Y018687
X021811Y017687
X030810Y019687
X014810Y013687
X021811Y021687
X005811Y015687
X030810Y016687
X030810Y020687
X014810Y018687
X021811Y019687
X014810Y015687
X005811Y017687
X021811Y016687
X030810Y018687
X021811Y020687
X030810Y022687
X005811Y014687
X030810Y015687
T105
X012811Y008687
X001811Y015687
X016811Y020687
X002811Y015687
X015811Y017687
X015811Y021687
X016811Y021687
X016811Y008687
X001811Y011687
X002811Y011687
T106
X002311Y006687
X003311Y009687
X002311Y009687
X003311Y006687
T107
X005811Y006687
X008811Y004187
X006811Y004187
X007811Y006687
T00
M30
