G04 MADE WITH FRITZING*
G04 WWW.FRITZING.ORG*
G04 DOUBLE SIDED*
G04 HOLES PLATED*
G04 CONTOUR ON CENTER OF CONTOUR VECTOR*
%ASAXBY*%
%FSLAX23Y23*%
%MOIN*%
%OFA0B0*%
%SFA1.0B1.0*%
%ADD10R,3.622050X2.559060X3.606050X2.543060*%
%ADD11C,0.008000*%
%ADD12R,0.001000X0.001000*%
%LNSILK0*%
G90*
G70*
G54D11*
X4Y2555D02*
X3618Y2555D01*
X3618Y4D01*
X4Y4D01*
X4Y2555D01*
D02*
G54D12*
X1414Y2250D02*
X1450Y2250D01*
X1414Y2249D02*
X1450Y2249D01*
X1414Y2248D02*
X1450Y2248D01*
X1414Y2247D02*
X1450Y2247D01*
X1414Y2246D02*
X1450Y2246D01*
X1414Y2245D02*
X1450Y2245D01*
X1414Y2244D02*
X1450Y2244D01*
X1414Y2243D02*
X1450Y2243D01*
X1414Y2242D02*
X1420Y2242D01*
X1429Y2242D02*
X1435Y2242D01*
X1444Y2242D02*
X1450Y2242D01*
X1414Y2241D02*
X1420Y2241D01*
X1429Y2241D02*
X1435Y2241D01*
X1444Y2241D02*
X1450Y2241D01*
X1414Y2240D02*
X1420Y2240D01*
X1429Y2240D02*
X1435Y2240D01*
X1444Y2240D02*
X1450Y2240D01*
X1414Y2239D02*
X1420Y2239D01*
X1429Y2239D02*
X1435Y2239D01*
X1444Y2239D02*
X1450Y2239D01*
X1415Y2238D02*
X1419Y2238D01*
X1429Y2238D02*
X1435Y2238D01*
X1445Y2238D02*
X1449Y2238D01*
X1416Y2237D02*
X1418Y2237D01*
X1429Y2237D02*
X1435Y2237D01*
X1446Y2237D02*
X1448Y2237D01*
X1429Y2236D02*
X1435Y2236D01*
X1429Y2235D02*
X1435Y2235D01*
X1362Y2234D02*
X1364Y2234D01*
X1390Y2234D02*
X1393Y2234D01*
X1429Y2234D02*
X1435Y2234D01*
X1361Y2233D02*
X1366Y2233D01*
X1389Y2233D02*
X1394Y2233D01*
X1429Y2233D02*
X1435Y2233D01*
X1360Y2232D02*
X1367Y2232D01*
X1388Y2232D02*
X1395Y2232D01*
X1429Y2232D02*
X1435Y2232D01*
X1360Y2231D02*
X1367Y2231D01*
X1387Y2231D02*
X1395Y2231D01*
X1429Y2231D02*
X1435Y2231D01*
X1360Y2230D02*
X1368Y2230D01*
X1386Y2230D02*
X1395Y2230D01*
X1429Y2230D02*
X1435Y2230D01*
X1360Y2229D02*
X1369Y2229D01*
X1386Y2229D02*
X1394Y2229D01*
X1429Y2229D02*
X1435Y2229D01*
X1361Y2228D02*
X1370Y2228D01*
X1385Y2228D02*
X1394Y2228D01*
X1429Y2228D02*
X1435Y2228D01*
X1362Y2227D02*
X1371Y2227D01*
X1384Y2227D02*
X1393Y2227D01*
X1429Y2227D02*
X1435Y2227D01*
X1363Y2226D02*
X1371Y2226D01*
X1383Y2226D02*
X1392Y2226D01*
X1429Y2226D02*
X1435Y2226D01*
X1363Y2225D02*
X1372Y2225D01*
X1382Y2225D02*
X1391Y2225D01*
X1429Y2225D02*
X1435Y2225D01*
X1364Y2224D02*
X1373Y2224D01*
X1381Y2224D02*
X1390Y2224D01*
X1429Y2224D02*
X1435Y2224D01*
X1365Y2223D02*
X1374Y2223D01*
X1381Y2223D02*
X1390Y2223D01*
X1429Y2223D02*
X1435Y2223D01*
X1366Y2222D02*
X1375Y2222D01*
X1380Y2222D02*
X1389Y2222D01*
X1429Y2222D02*
X1435Y2222D01*
X1367Y2221D02*
X1376Y2221D01*
X1379Y2221D02*
X1388Y2221D01*
X1429Y2221D02*
X1435Y2221D01*
X1368Y2220D02*
X1376Y2220D01*
X1378Y2220D02*
X1387Y2220D01*
X1429Y2220D02*
X1435Y2220D01*
X1368Y2219D02*
X1386Y2219D01*
X1429Y2219D02*
X1435Y2219D01*
X1369Y2218D02*
X1385Y2218D01*
X1429Y2218D02*
X1435Y2218D01*
X1370Y2217D02*
X1385Y2217D01*
X1429Y2217D02*
X1435Y2217D01*
X1371Y2216D02*
X1384Y2216D01*
X1429Y2216D02*
X1435Y2216D01*
X1372Y2215D02*
X1383Y2215D01*
X1429Y2215D02*
X1435Y2215D01*
X1373Y2214D02*
X1382Y2214D01*
X1429Y2214D02*
X1435Y2214D01*
X1372Y2213D02*
X1382Y2213D01*
X1429Y2213D02*
X1435Y2213D01*
X1371Y2212D02*
X1383Y2212D01*
X1429Y2212D02*
X1435Y2212D01*
X1371Y2211D02*
X1384Y2211D01*
X1429Y2211D02*
X1435Y2211D01*
X1370Y2210D02*
X1385Y2210D01*
X1429Y2210D02*
X1435Y2210D01*
X1369Y2209D02*
X1386Y2209D01*
X1429Y2209D02*
X1435Y2209D01*
X1368Y2208D02*
X1386Y2208D01*
X1429Y2208D02*
X1435Y2208D01*
X1367Y2207D02*
X1376Y2207D01*
X1378Y2207D02*
X1387Y2207D01*
X1429Y2207D02*
X1435Y2207D01*
X1366Y2206D02*
X1375Y2206D01*
X1379Y2206D02*
X1388Y2206D01*
X1429Y2206D02*
X1435Y2206D01*
X1366Y2205D02*
X1375Y2205D01*
X1380Y2205D02*
X1389Y2205D01*
X1429Y2205D02*
X1435Y2205D01*
X1365Y2204D02*
X1374Y2204D01*
X1381Y2204D02*
X1390Y2204D01*
X1429Y2204D02*
X1435Y2204D01*
X1364Y2203D02*
X1373Y2203D01*
X1382Y2203D02*
X1391Y2203D01*
X1429Y2203D02*
X1435Y2203D01*
X1363Y2202D02*
X1372Y2202D01*
X1382Y2202D02*
X1391Y2202D01*
X1429Y2202D02*
X1435Y2202D01*
X1362Y2201D02*
X1371Y2201D01*
X1383Y2201D02*
X1392Y2201D01*
X1429Y2201D02*
X1435Y2201D01*
X1361Y2200D02*
X1371Y2200D01*
X1384Y2200D02*
X1393Y2200D01*
X1429Y2200D02*
X1435Y2200D01*
X1361Y2199D02*
X1370Y2199D01*
X1385Y2199D02*
X1394Y2199D01*
X1429Y2199D02*
X1435Y2199D01*
X1360Y2198D02*
X1369Y2198D01*
X1386Y2198D02*
X1395Y2198D01*
X1429Y2198D02*
X1435Y2198D01*
X1359Y2197D02*
X1368Y2197D01*
X1387Y2197D02*
X1395Y2197D01*
X1429Y2197D02*
X1435Y2197D01*
X1359Y2196D02*
X1367Y2196D01*
X1387Y2196D02*
X1396Y2196D01*
X1429Y2196D02*
X1435Y2196D01*
X1359Y2195D02*
X1366Y2195D01*
X1388Y2195D02*
X1396Y2195D01*
X1429Y2195D02*
X1435Y2195D01*
X1359Y2194D02*
X1366Y2194D01*
X1389Y2194D02*
X1395Y2194D01*
X1429Y2194D02*
X1435Y2194D01*
X1360Y2193D02*
X1365Y2193D01*
X1390Y2193D02*
X1395Y2193D01*
X1430Y2193D02*
X1434Y2193D01*
X1361Y2192D02*
X1363Y2192D01*
X1391Y2192D02*
X1393Y2192D01*
X1431Y2192D02*
X1433Y2192D01*
X255Y2169D02*
X259Y2169D01*
X254Y2168D02*
X260Y2168D01*
X254Y2167D02*
X260Y2167D01*
X254Y2166D02*
X260Y2166D01*
X254Y2165D02*
X260Y2165D01*
X254Y2164D02*
X260Y2164D01*
X254Y2163D02*
X260Y2163D01*
X254Y2162D02*
X260Y2162D01*
X254Y2161D02*
X260Y2161D01*
X254Y2160D02*
X260Y2160D01*
X254Y2159D02*
X260Y2159D01*
X254Y2158D02*
X260Y2158D01*
X253Y2157D02*
X261Y2157D01*
X237Y2156D02*
X266Y2156D01*
X296Y2156D02*
X313Y2156D01*
X347Y2156D02*
X371Y2156D01*
X405Y2156D02*
X422Y2156D01*
X457Y2156D02*
X470Y2156D01*
X482Y2156D02*
X485Y2156D01*
X236Y2155D02*
X267Y2155D01*
X294Y2155D02*
X315Y2155D01*
X345Y2155D02*
X372Y2155D01*
X403Y2155D02*
X424Y2155D01*
X455Y2155D02*
X472Y2155D01*
X481Y2155D02*
X486Y2155D01*
X235Y2154D02*
X268Y2154D01*
X293Y2154D02*
X316Y2154D01*
X344Y2154D02*
X374Y2154D01*
X402Y2154D02*
X425Y2154D01*
X454Y2154D02*
X473Y2154D01*
X480Y2154D02*
X487Y2154D01*
X235Y2153D02*
X268Y2153D01*
X291Y2153D02*
X317Y2153D01*
X343Y2153D02*
X374Y2153D01*
X401Y2153D02*
X427Y2153D01*
X453Y2153D02*
X474Y2153D01*
X480Y2153D02*
X487Y2153D01*
X235Y2152D02*
X268Y2152D01*
X290Y2152D02*
X318Y2152D01*
X342Y2152D02*
X375Y2152D01*
X400Y2152D02*
X428Y2152D01*
X452Y2152D02*
X475Y2152D01*
X480Y2152D02*
X487Y2152D01*
X236Y2151D02*
X267Y2151D01*
X289Y2151D02*
X319Y2151D01*
X342Y2151D02*
X376Y2151D01*
X399Y2151D02*
X429Y2151D01*
X452Y2151D02*
X476Y2151D01*
X480Y2151D02*
X487Y2151D01*
X236Y2150D02*
X266Y2150D01*
X288Y2150D02*
X320Y2150D01*
X341Y2150D02*
X376Y2150D01*
X398Y2150D02*
X430Y2150D01*
X451Y2150D02*
X477Y2150D01*
X480Y2150D02*
X487Y2150D01*
X253Y2149D02*
X261Y2149D01*
X288Y2149D02*
X298Y2149D01*
X311Y2149D02*
X321Y2149D01*
X342Y2149D02*
X350Y2149D01*
X368Y2149D02*
X376Y2149D01*
X397Y2149D02*
X407Y2149D01*
X420Y2149D02*
X430Y2149D01*
X451Y2149D02*
X460Y2149D01*
X468Y2149D02*
X487Y2149D01*
X254Y2148D02*
X260Y2148D01*
X287Y2148D02*
X296Y2148D01*
X312Y2148D02*
X321Y2148D01*
X342Y2148D02*
X348Y2148D01*
X370Y2148D02*
X376Y2148D01*
X396Y2148D02*
X405Y2148D01*
X422Y2148D02*
X431Y2148D01*
X450Y2148D02*
X458Y2148D01*
X469Y2148D02*
X487Y2148D01*
X254Y2147D02*
X260Y2147D01*
X287Y2147D02*
X295Y2147D01*
X313Y2147D02*
X322Y2147D01*
X343Y2147D02*
X347Y2147D01*
X370Y2147D02*
X376Y2147D01*
X396Y2147D02*
X404Y2147D01*
X423Y2147D02*
X431Y2147D01*
X450Y2147D02*
X457Y2147D01*
X470Y2147D02*
X487Y2147D01*
X254Y2146D02*
X260Y2146D01*
X286Y2146D02*
X294Y2146D01*
X315Y2146D02*
X322Y2146D01*
X369Y2146D02*
X376Y2146D01*
X396Y2146D02*
X403Y2146D01*
X424Y2146D02*
X432Y2146D01*
X450Y2146D02*
X457Y2146D01*
X471Y2146D02*
X487Y2146D01*
X254Y2145D02*
X260Y2145D01*
X286Y2145D02*
X293Y2145D01*
X315Y2145D02*
X322Y2145D01*
X368Y2145D02*
X376Y2145D01*
X396Y2145D02*
X403Y2145D01*
X425Y2145D02*
X432Y2145D01*
X450Y2145D02*
X457Y2145D01*
X472Y2145D02*
X487Y2145D01*
X254Y2144D02*
X260Y2144D01*
X286Y2144D02*
X293Y2144D01*
X316Y2144D02*
X322Y2144D01*
X366Y2144D02*
X376Y2144D01*
X395Y2144D02*
X402Y2144D01*
X425Y2144D02*
X432Y2144D01*
X450Y2144D02*
X457Y2144D01*
X474Y2144D02*
X487Y2144D01*
X254Y2143D02*
X260Y2143D01*
X286Y2143D02*
X293Y2143D01*
X316Y2143D02*
X323Y2143D01*
X364Y2143D02*
X375Y2143D01*
X395Y2143D02*
X402Y2143D01*
X425Y2143D02*
X432Y2143D01*
X450Y2143D02*
X457Y2143D01*
X475Y2143D02*
X487Y2143D01*
X254Y2142D02*
X260Y2142D01*
X286Y2142D02*
X293Y2142D01*
X316Y2142D02*
X323Y2142D01*
X361Y2142D02*
X375Y2142D01*
X395Y2142D02*
X402Y2142D01*
X425Y2142D02*
X432Y2142D01*
X450Y2142D02*
X456Y2142D01*
X476Y2142D02*
X487Y2142D01*
X254Y2141D02*
X260Y2141D01*
X286Y2141D02*
X293Y2141D01*
X316Y2141D02*
X323Y2141D01*
X359Y2141D02*
X374Y2141D01*
X395Y2141D02*
X402Y2141D01*
X425Y2141D02*
X432Y2141D01*
X451Y2141D02*
X456Y2141D01*
X477Y2141D02*
X487Y2141D01*
X254Y2140D02*
X260Y2140D01*
X286Y2140D02*
X293Y2140D01*
X316Y2140D02*
X323Y2140D01*
X357Y2140D02*
X373Y2140D01*
X395Y2140D02*
X402Y2140D01*
X425Y2140D02*
X432Y2140D01*
X452Y2140D02*
X455Y2140D01*
X478Y2140D02*
X487Y2140D01*
X254Y2139D02*
X260Y2139D01*
X286Y2139D02*
X293Y2139D01*
X316Y2139D02*
X323Y2139D01*
X354Y2139D02*
X372Y2139D01*
X395Y2139D02*
X402Y2139D01*
X425Y2139D02*
X432Y2139D01*
X479Y2139D02*
X487Y2139D01*
X254Y2138D02*
X260Y2138D01*
X286Y2138D02*
X293Y2138D01*
X316Y2138D02*
X323Y2138D01*
X352Y2138D02*
X370Y2138D01*
X395Y2138D02*
X402Y2138D01*
X425Y2138D02*
X432Y2138D01*
X480Y2138D02*
X487Y2138D01*
X254Y2137D02*
X260Y2137D01*
X286Y2137D02*
X323Y2137D01*
X350Y2137D02*
X368Y2137D01*
X395Y2137D02*
X432Y2137D01*
X480Y2137D02*
X487Y2137D01*
X254Y2136D02*
X260Y2136D01*
X286Y2136D02*
X323Y2136D01*
X347Y2136D02*
X366Y2136D01*
X395Y2136D02*
X432Y2136D01*
X480Y2136D02*
X487Y2136D01*
X254Y2135D02*
X260Y2135D01*
X286Y2135D02*
X323Y2135D01*
X346Y2135D02*
X363Y2135D01*
X395Y2135D02*
X432Y2135D01*
X480Y2135D02*
X487Y2135D01*
X254Y2134D02*
X260Y2134D01*
X286Y2134D02*
X323Y2134D01*
X345Y2134D02*
X361Y2134D01*
X395Y2134D02*
X432Y2134D01*
X480Y2134D02*
X487Y2134D01*
X254Y2133D02*
X260Y2133D01*
X286Y2133D02*
X323Y2133D01*
X344Y2133D02*
X359Y2133D01*
X395Y2133D02*
X432Y2133D01*
X480Y2133D02*
X487Y2133D01*
X254Y2132D02*
X260Y2132D01*
X286Y2132D02*
X323Y2132D01*
X343Y2132D02*
X356Y2132D01*
X396Y2132D02*
X432Y2132D01*
X480Y2132D02*
X487Y2132D01*
X254Y2131D02*
X260Y2131D01*
X287Y2131D02*
X323Y2131D01*
X342Y2131D02*
X354Y2131D01*
X397Y2131D02*
X432Y2131D01*
X480Y2131D02*
X487Y2131D01*
X254Y2130D02*
X260Y2130D01*
X289Y2130D02*
X323Y2130D01*
X342Y2130D02*
X352Y2130D01*
X399Y2130D02*
X432Y2130D01*
X480Y2130D02*
X487Y2130D01*
X254Y2129D02*
X260Y2129D01*
X316Y2129D02*
X323Y2129D01*
X341Y2129D02*
X349Y2129D01*
X425Y2129D02*
X432Y2129D01*
X480Y2129D02*
X487Y2129D01*
X254Y2128D02*
X260Y2128D01*
X316Y2128D02*
X323Y2128D01*
X341Y2128D02*
X348Y2128D01*
X425Y2128D02*
X432Y2128D01*
X480Y2128D02*
X487Y2128D01*
X233Y2127D02*
X236Y2127D01*
X254Y2127D02*
X260Y2127D01*
X316Y2127D02*
X323Y2127D01*
X341Y2127D02*
X348Y2127D01*
X425Y2127D02*
X432Y2127D01*
X480Y2127D02*
X487Y2127D01*
X232Y2126D02*
X237Y2126D01*
X254Y2126D02*
X260Y2126D01*
X316Y2126D02*
X322Y2126D01*
X341Y2126D02*
X348Y2126D01*
X425Y2126D02*
X432Y2126D01*
X480Y2126D02*
X487Y2126D01*
X231Y2125D02*
X238Y2125D01*
X254Y2125D02*
X260Y2125D01*
X315Y2125D02*
X322Y2125D01*
X341Y2125D02*
X348Y2125D01*
X424Y2125D02*
X432Y2125D01*
X480Y2125D02*
X487Y2125D01*
X231Y2124D02*
X238Y2124D01*
X253Y2124D02*
X260Y2124D01*
X314Y2124D02*
X322Y2124D01*
X341Y2124D02*
X348Y2124D01*
X373Y2124D02*
X376Y2124D01*
X423Y2124D02*
X431Y2124D01*
X480Y2124D02*
X487Y2124D01*
X231Y2123D02*
X239Y2123D01*
X253Y2123D02*
X260Y2123D01*
X313Y2123D02*
X322Y2123D01*
X341Y2123D02*
X348Y2123D01*
X371Y2123D02*
X377Y2123D01*
X422Y2123D02*
X431Y2123D01*
X480Y2123D02*
X487Y2123D01*
X232Y2122D02*
X240Y2122D01*
X252Y2122D02*
X260Y2122D01*
X311Y2122D02*
X321Y2122D01*
X341Y2122D02*
X349Y2122D01*
X369Y2122D02*
X377Y2122D01*
X421Y2122D02*
X431Y2122D01*
X480Y2122D02*
X487Y2122D01*
X232Y2121D02*
X260Y2121D01*
X288Y2121D02*
X321Y2121D01*
X342Y2121D02*
X377Y2121D01*
X397Y2121D02*
X430Y2121D01*
X480Y2121D02*
X487Y2121D01*
X232Y2120D02*
X259Y2120D01*
X287Y2120D02*
X320Y2120D01*
X342Y2120D02*
X377Y2120D01*
X396Y2120D02*
X429Y2120D01*
X480Y2120D02*
X487Y2120D01*
X233Y2119D02*
X258Y2119D01*
X286Y2119D02*
X319Y2119D01*
X343Y2119D02*
X377Y2119D01*
X396Y2119D02*
X428Y2119D01*
X480Y2119D02*
X487Y2119D01*
X234Y2118D02*
X258Y2118D01*
X286Y2118D02*
X318Y2118D01*
X343Y2118D02*
X376Y2118D01*
X395Y2118D02*
X427Y2118D01*
X480Y2118D02*
X487Y2118D01*
X235Y2117D02*
X257Y2117D01*
X286Y2117D02*
X316Y2117D01*
X344Y2117D02*
X375Y2117D01*
X395Y2117D02*
X426Y2117D01*
X480Y2117D02*
X487Y2117D01*
X236Y2116D02*
X256Y2116D01*
X286Y2116D02*
X315Y2116D01*
X346Y2116D02*
X373Y2116D01*
X396Y2116D02*
X425Y2116D01*
X481Y2116D02*
X486Y2116D01*
X238Y2115D02*
X254Y2115D01*
X287Y2115D02*
X314Y2115D01*
X347Y2115D02*
X371Y2115D01*
X397Y2115D02*
X423Y2115D01*
X481Y2115D02*
X486Y2115D01*
X241Y2114D02*
X251Y2114D01*
X289Y2114D02*
X311Y2114D01*
X350Y2114D02*
X368Y2114D01*
X398Y2114D02*
X420Y2114D01*
X483Y2114D02*
X484Y2114D01*
X1250Y2076D02*
X1279Y2076D01*
X1248Y2075D02*
X1279Y2075D01*
X1247Y2074D02*
X1279Y2074D01*
X1246Y2073D02*
X1279Y2073D01*
X1245Y2072D02*
X1279Y2072D01*
X1244Y2071D02*
X1279Y2071D01*
X1244Y2070D02*
X1279Y2070D01*
X1243Y2069D02*
X1279Y2069D01*
X1243Y2068D02*
X1251Y2068D01*
X1272Y2068D02*
X1279Y2068D01*
X1243Y2067D02*
X1250Y2067D01*
X1272Y2067D02*
X1279Y2067D01*
X1243Y2066D02*
X1249Y2066D01*
X1272Y2066D02*
X1279Y2066D01*
X1242Y2065D02*
X1249Y2065D01*
X1272Y2065D02*
X1279Y2065D01*
X1242Y2064D02*
X1249Y2064D01*
X1272Y2064D02*
X1279Y2064D01*
X1242Y2063D02*
X1249Y2063D01*
X1272Y2063D02*
X1279Y2063D01*
X1242Y2062D02*
X1249Y2062D01*
X1272Y2062D02*
X1279Y2062D01*
X1242Y2061D02*
X1249Y2061D01*
X1272Y2061D02*
X1279Y2061D01*
X1191Y2060D02*
X1193Y2060D01*
X1219Y2060D02*
X1222Y2060D01*
X1243Y2060D02*
X1249Y2060D01*
X1272Y2060D02*
X1279Y2060D01*
X1189Y2059D02*
X1194Y2059D01*
X1218Y2059D02*
X1223Y2059D01*
X1243Y2059D02*
X1250Y2059D01*
X1272Y2059D02*
X1279Y2059D01*
X1189Y2058D02*
X1195Y2058D01*
X1217Y2058D02*
X1223Y2058D01*
X1243Y2058D02*
X1251Y2058D01*
X1272Y2058D02*
X1279Y2058D01*
X1189Y2057D02*
X1196Y2057D01*
X1216Y2057D02*
X1224Y2057D01*
X1243Y2057D02*
X1279Y2057D01*
X1189Y2056D02*
X1197Y2056D01*
X1215Y2056D02*
X1224Y2056D01*
X1244Y2056D02*
X1279Y2056D01*
X1189Y2055D02*
X1198Y2055D01*
X1214Y2055D02*
X1223Y2055D01*
X1244Y2055D02*
X1279Y2055D01*
X1190Y2054D02*
X1199Y2054D01*
X1214Y2054D02*
X1223Y2054D01*
X1245Y2054D02*
X1279Y2054D01*
X1190Y2053D02*
X1199Y2053D01*
X1213Y2053D02*
X1222Y2053D01*
X1246Y2053D02*
X1279Y2053D01*
X1191Y2052D02*
X1200Y2052D01*
X1212Y2052D02*
X1221Y2052D01*
X1247Y2052D02*
X1279Y2052D01*
X1192Y2051D02*
X1201Y2051D01*
X1211Y2051D02*
X1220Y2051D01*
X1249Y2051D02*
X1279Y2051D01*
X1193Y2050D02*
X1202Y2050D01*
X1210Y2050D02*
X1219Y2050D01*
X1251Y2050D02*
X1279Y2050D01*
X1194Y2049D02*
X1203Y2049D01*
X1209Y2049D02*
X1218Y2049D01*
X1258Y2049D02*
X1266Y2049D01*
X1272Y2049D02*
X1279Y2049D01*
X1195Y2048D02*
X1204Y2048D01*
X1209Y2048D02*
X1218Y2048D01*
X1257Y2048D02*
X1265Y2048D01*
X1272Y2048D02*
X1279Y2048D01*
X1195Y2047D02*
X1204Y2047D01*
X1208Y2047D02*
X1217Y2047D01*
X1257Y2047D02*
X1265Y2047D01*
X1272Y2047D02*
X1279Y2047D01*
X1196Y2046D02*
X1205Y2046D01*
X1207Y2046D02*
X1216Y2046D01*
X1256Y2046D02*
X1264Y2046D01*
X1272Y2046D02*
X1279Y2046D01*
X1197Y2045D02*
X1215Y2045D01*
X1256Y2045D02*
X1264Y2045D01*
X1272Y2045D02*
X1279Y2045D01*
X1198Y2044D02*
X1214Y2044D01*
X1255Y2044D02*
X1263Y2044D01*
X1272Y2044D02*
X1279Y2044D01*
X1199Y2043D02*
X1213Y2043D01*
X1254Y2043D02*
X1262Y2043D01*
X1272Y2043D02*
X1279Y2043D01*
X1200Y2042D02*
X1213Y2042D01*
X1254Y2042D02*
X1262Y2042D01*
X1272Y2042D02*
X1279Y2042D01*
X1200Y2041D02*
X1212Y2041D01*
X1253Y2041D02*
X1261Y2041D01*
X1272Y2041D02*
X1279Y2041D01*
X1201Y2040D02*
X1211Y2040D01*
X1253Y2040D02*
X1261Y2040D01*
X1272Y2040D02*
X1279Y2040D01*
X1201Y2039D02*
X1211Y2039D01*
X1252Y2039D02*
X1260Y2039D01*
X1272Y2039D02*
X1279Y2039D01*
X1200Y2038D02*
X1212Y2038D01*
X1252Y2038D02*
X1259Y2038D01*
X1272Y2038D02*
X1279Y2038D01*
X1200Y2037D02*
X1213Y2037D01*
X1251Y2037D02*
X1259Y2037D01*
X1272Y2037D02*
X1279Y2037D01*
X1199Y2036D02*
X1214Y2036D01*
X1250Y2036D02*
X1258Y2036D01*
X1272Y2036D02*
X1279Y2036D01*
X1198Y2035D02*
X1214Y2035D01*
X1250Y2035D02*
X1258Y2035D01*
X1272Y2035D02*
X1279Y2035D01*
X1197Y2034D02*
X1215Y2034D01*
X1249Y2034D02*
X1257Y2034D01*
X1272Y2034D02*
X1279Y2034D01*
X1196Y2033D02*
X1205Y2033D01*
X1207Y2033D02*
X1216Y2033D01*
X1249Y2033D02*
X1257Y2033D01*
X1272Y2033D02*
X1279Y2033D01*
X1195Y2032D02*
X1204Y2032D01*
X1208Y2032D02*
X1217Y2032D01*
X1248Y2032D02*
X1256Y2032D01*
X1272Y2032D02*
X1279Y2032D01*
X1195Y2031D02*
X1203Y2031D01*
X1209Y2031D02*
X1218Y2031D01*
X1247Y2031D02*
X1255Y2031D01*
X1272Y2031D02*
X1279Y2031D01*
X1194Y2030D02*
X1203Y2030D01*
X1209Y2030D02*
X1219Y2030D01*
X1247Y2030D02*
X1255Y2030D01*
X1272Y2030D02*
X1279Y2030D01*
X1193Y2029D02*
X1202Y2029D01*
X1210Y2029D02*
X1219Y2029D01*
X1246Y2029D02*
X1254Y2029D01*
X1272Y2029D02*
X1279Y2029D01*
X1192Y2028D02*
X1201Y2028D01*
X1211Y2028D02*
X1220Y2028D01*
X1246Y2028D02*
X1254Y2028D01*
X1272Y2028D02*
X1279Y2028D01*
X1191Y2027D02*
X1200Y2027D01*
X1212Y2027D02*
X1221Y2027D01*
X1245Y2027D02*
X1253Y2027D01*
X1272Y2027D02*
X1279Y2027D01*
X1190Y2026D02*
X1199Y2026D01*
X1213Y2026D02*
X1222Y2026D01*
X1245Y2026D02*
X1252Y2026D01*
X1272Y2026D02*
X1279Y2026D01*
X1190Y2025D02*
X1199Y2025D01*
X1214Y2025D02*
X1223Y2025D01*
X1244Y2025D02*
X1252Y2025D01*
X1272Y2025D02*
X1279Y2025D01*
X1189Y2024D02*
X1198Y2024D01*
X1214Y2024D02*
X1223Y2024D01*
X1243Y2024D02*
X1251Y2024D01*
X1272Y2024D02*
X1279Y2024D01*
X1188Y2023D02*
X1197Y2023D01*
X1215Y2023D02*
X1224Y2023D01*
X1243Y2023D02*
X1251Y2023D01*
X1272Y2023D02*
X1279Y2023D01*
X1188Y2022D02*
X1196Y2022D01*
X1216Y2022D02*
X1224Y2022D01*
X1243Y2022D02*
X1250Y2022D01*
X1272Y2022D02*
X1279Y2022D01*
X1188Y2021D02*
X1195Y2021D01*
X1217Y2021D02*
X1224Y2021D01*
X1243Y2021D02*
X1250Y2021D01*
X1273Y2021D02*
X1279Y2021D01*
X1188Y2020D02*
X1194Y2020D01*
X1218Y2020D02*
X1224Y2020D01*
X1243Y2020D02*
X1249Y2020D01*
X1273Y2020D02*
X1279Y2020D01*
X1189Y2019D02*
X1194Y2019D01*
X1219Y2019D02*
X1224Y2019D01*
X1243Y2019D02*
X1248Y2019D01*
X1273Y2019D02*
X1278Y2019D01*
X1190Y2018D02*
X1192Y2018D01*
X1220Y2018D02*
X1222Y2018D01*
X1245Y2018D02*
X1247Y2018D01*
X1275Y2018D02*
X1277Y2018D01*
X1457Y1969D02*
X1475Y1969D01*
X1514Y1969D02*
X1530Y1969D01*
X1457Y1968D02*
X1477Y1968D01*
X1511Y1968D02*
X1532Y1968D01*
X1457Y1967D02*
X1478Y1967D01*
X1510Y1967D02*
X1533Y1967D01*
X1457Y1966D02*
X1478Y1966D01*
X1508Y1966D02*
X1533Y1966D01*
X1457Y1965D02*
X1478Y1965D01*
X1507Y1965D02*
X1533Y1965D01*
X1457Y1964D02*
X1478Y1964D01*
X1507Y1964D02*
X1533Y1964D01*
X1457Y1963D02*
X1477Y1963D01*
X1506Y1963D02*
X1532Y1963D01*
X1457Y1962D02*
X1476Y1962D01*
X1506Y1962D02*
X1531Y1962D01*
X1457Y1961D02*
X1463Y1961D01*
X1505Y1961D02*
X1513Y1961D01*
X1519Y1961D02*
X1526Y1961D01*
X1457Y1960D02*
X1463Y1960D01*
X1505Y1960D02*
X1512Y1960D01*
X1519Y1960D02*
X1526Y1960D01*
X1457Y1959D02*
X1463Y1959D01*
X1504Y1959D02*
X1512Y1959D01*
X1519Y1959D02*
X1526Y1959D01*
X1457Y1958D02*
X1463Y1958D01*
X1504Y1958D02*
X1511Y1958D01*
X1519Y1958D02*
X1526Y1958D01*
X1457Y1957D02*
X1463Y1957D01*
X1503Y1957D02*
X1511Y1957D01*
X1519Y1957D02*
X1526Y1957D01*
X1457Y1956D02*
X1463Y1956D01*
X1503Y1956D02*
X1510Y1956D01*
X1519Y1956D02*
X1526Y1956D01*
X1457Y1955D02*
X1463Y1955D01*
X1502Y1955D02*
X1510Y1955D01*
X1519Y1955D02*
X1526Y1955D01*
X1457Y1954D02*
X1463Y1954D01*
X1502Y1954D02*
X1509Y1954D01*
X1519Y1954D02*
X1526Y1954D01*
X1457Y1953D02*
X1463Y1953D01*
X1501Y1953D02*
X1509Y1953D01*
X1519Y1953D02*
X1526Y1953D01*
X1457Y1952D02*
X1463Y1952D01*
X1501Y1952D02*
X1508Y1952D01*
X1519Y1952D02*
X1526Y1952D01*
X1457Y1951D02*
X1463Y1951D01*
X1500Y1951D02*
X1508Y1951D01*
X1519Y1951D02*
X1526Y1951D01*
X1457Y1950D02*
X1463Y1950D01*
X1500Y1950D02*
X1507Y1950D01*
X1519Y1950D02*
X1526Y1950D01*
X1457Y1949D02*
X1463Y1949D01*
X1499Y1949D02*
X1507Y1949D01*
X1519Y1949D02*
X1526Y1949D01*
X1457Y1948D02*
X1463Y1948D01*
X1499Y1948D02*
X1506Y1948D01*
X1519Y1948D02*
X1526Y1948D01*
X1457Y1947D02*
X1463Y1947D01*
X1498Y1947D02*
X1506Y1947D01*
X1519Y1947D02*
X1526Y1947D01*
X1457Y1946D02*
X1463Y1946D01*
X1498Y1946D02*
X1505Y1946D01*
X1519Y1946D02*
X1526Y1946D01*
X1457Y1945D02*
X1463Y1945D01*
X1497Y1945D02*
X1505Y1945D01*
X1519Y1945D02*
X1526Y1945D01*
X1457Y1944D02*
X1463Y1944D01*
X1497Y1944D02*
X1504Y1944D01*
X1519Y1944D02*
X1526Y1944D01*
X1457Y1943D02*
X1463Y1943D01*
X1497Y1943D02*
X1504Y1943D01*
X1519Y1943D02*
X1526Y1943D01*
X1457Y1942D02*
X1463Y1942D01*
X1497Y1942D02*
X1503Y1942D01*
X1519Y1942D02*
X1526Y1942D01*
X1457Y1941D02*
X1463Y1941D01*
X1496Y1941D02*
X1503Y1941D01*
X1519Y1941D02*
X1526Y1941D01*
X1457Y1940D02*
X1463Y1940D01*
X1496Y1940D02*
X1503Y1940D01*
X1519Y1940D02*
X1526Y1940D01*
X1457Y1939D02*
X1463Y1939D01*
X1496Y1939D02*
X1503Y1939D01*
X1519Y1939D02*
X1526Y1939D01*
X1457Y1938D02*
X1463Y1938D01*
X1496Y1938D02*
X1503Y1938D01*
X1519Y1938D02*
X1526Y1938D01*
X1445Y1937D02*
X1445Y1937D01*
X1457Y1937D02*
X1463Y1937D01*
X1497Y1937D02*
X1503Y1937D01*
X1519Y1937D02*
X1526Y1937D01*
X1443Y1936D02*
X1447Y1936D01*
X1457Y1936D02*
X1463Y1936D01*
X1497Y1936D02*
X1504Y1936D01*
X1519Y1936D02*
X1526Y1936D01*
X1442Y1935D02*
X1448Y1935D01*
X1457Y1935D02*
X1463Y1935D01*
X1497Y1935D02*
X1504Y1935D01*
X1519Y1935D02*
X1526Y1935D01*
X1442Y1934D02*
X1448Y1934D01*
X1457Y1934D02*
X1463Y1934D01*
X1497Y1934D02*
X1505Y1934D01*
X1519Y1934D02*
X1526Y1934D01*
X1442Y1933D02*
X1448Y1933D01*
X1457Y1933D02*
X1463Y1933D01*
X1498Y1933D02*
X1505Y1933D01*
X1519Y1933D02*
X1526Y1933D01*
X1442Y1932D02*
X1448Y1932D01*
X1457Y1932D02*
X1463Y1932D01*
X1498Y1932D02*
X1506Y1932D01*
X1519Y1932D02*
X1526Y1932D01*
X1442Y1931D02*
X1448Y1931D01*
X1457Y1931D02*
X1463Y1931D01*
X1499Y1931D02*
X1506Y1931D01*
X1519Y1931D02*
X1526Y1931D01*
X1442Y1930D02*
X1448Y1930D01*
X1457Y1930D02*
X1463Y1930D01*
X1499Y1930D02*
X1507Y1930D01*
X1519Y1930D02*
X1526Y1930D01*
X1442Y1929D02*
X1448Y1929D01*
X1457Y1929D02*
X1463Y1929D01*
X1500Y1929D02*
X1507Y1929D01*
X1519Y1929D02*
X1526Y1929D01*
X1442Y1928D02*
X1448Y1928D01*
X1457Y1928D02*
X1463Y1928D01*
X1500Y1928D02*
X1508Y1928D01*
X1519Y1928D02*
X1526Y1928D01*
X1442Y1927D02*
X1448Y1927D01*
X1457Y1927D02*
X1463Y1927D01*
X1501Y1927D02*
X1508Y1927D01*
X1519Y1927D02*
X1526Y1927D01*
X1442Y1926D02*
X1448Y1926D01*
X1457Y1926D02*
X1463Y1926D01*
X1501Y1926D02*
X1509Y1926D01*
X1519Y1926D02*
X1526Y1926D01*
X1442Y1925D02*
X1448Y1925D01*
X1457Y1925D02*
X1463Y1925D01*
X1502Y1925D02*
X1509Y1925D01*
X1519Y1925D02*
X1526Y1925D01*
X1442Y1924D02*
X1448Y1924D01*
X1457Y1924D02*
X1463Y1924D01*
X1502Y1924D02*
X1510Y1924D01*
X1519Y1924D02*
X1526Y1924D01*
X1442Y1923D02*
X1448Y1923D01*
X1457Y1923D02*
X1463Y1923D01*
X1503Y1923D02*
X1510Y1923D01*
X1519Y1923D02*
X1526Y1923D01*
X1442Y1922D02*
X1448Y1922D01*
X1457Y1922D02*
X1463Y1922D01*
X1503Y1922D02*
X1511Y1922D01*
X1519Y1922D02*
X1526Y1922D01*
X1442Y1921D02*
X1448Y1921D01*
X1457Y1921D02*
X1463Y1921D01*
X1504Y1921D02*
X1511Y1921D01*
X1519Y1921D02*
X1526Y1921D01*
X1442Y1920D02*
X1448Y1920D01*
X1457Y1920D02*
X1463Y1920D01*
X1504Y1920D02*
X1512Y1920D01*
X1519Y1920D02*
X1526Y1920D01*
X1442Y1919D02*
X1448Y1919D01*
X1457Y1919D02*
X1463Y1919D01*
X1505Y1919D02*
X1512Y1919D01*
X1519Y1919D02*
X1526Y1919D01*
X1442Y1918D02*
X1448Y1918D01*
X1457Y1918D02*
X1464Y1918D01*
X1505Y1918D02*
X1514Y1918D01*
X1519Y1918D02*
X1526Y1918D01*
X1442Y1917D02*
X1477Y1917D01*
X1506Y1917D02*
X1531Y1917D01*
X1442Y1916D02*
X1478Y1916D01*
X1506Y1916D02*
X1532Y1916D01*
X1442Y1915D02*
X1478Y1915D01*
X1507Y1915D02*
X1533Y1915D01*
X1442Y1914D02*
X1478Y1914D01*
X1508Y1914D02*
X1533Y1914D01*
X1442Y1913D02*
X1478Y1913D01*
X1509Y1913D02*
X1533Y1913D01*
X1442Y1912D02*
X1478Y1912D01*
X1510Y1912D02*
X1532Y1912D01*
X1443Y1911D02*
X1477Y1911D01*
X1512Y1911D02*
X1532Y1911D01*
X2033Y1873D02*
X2035Y1873D01*
X2032Y1872D02*
X2036Y1872D01*
X2031Y1871D02*
X2037Y1871D01*
X2031Y1870D02*
X2037Y1870D01*
X2031Y1869D02*
X2037Y1869D01*
X2031Y1868D02*
X2037Y1868D01*
X2031Y1867D02*
X2037Y1867D01*
X2031Y1866D02*
X2037Y1866D01*
X2031Y1865D02*
X2037Y1865D01*
X2031Y1864D02*
X2037Y1864D01*
X2031Y1863D02*
X2037Y1863D01*
X2031Y1862D02*
X2037Y1862D01*
X2031Y1861D02*
X2037Y1861D01*
X2014Y1860D02*
X2043Y1860D01*
X2073Y1860D02*
X2089Y1860D01*
X2125Y1860D02*
X2147Y1860D01*
X2183Y1860D02*
X2198Y1860D01*
X2235Y1860D02*
X2247Y1860D01*
X2259Y1860D02*
X2262Y1860D01*
X2013Y1859D02*
X2044Y1859D01*
X2071Y1859D02*
X2091Y1859D01*
X2123Y1859D02*
X2149Y1859D01*
X2181Y1859D02*
X2201Y1859D01*
X2233Y1859D02*
X2248Y1859D01*
X2258Y1859D02*
X2263Y1859D01*
X2012Y1858D02*
X2044Y1858D01*
X2070Y1858D02*
X2092Y1858D01*
X2121Y1858D02*
X2150Y1858D01*
X2179Y1858D02*
X2202Y1858D01*
X2231Y1858D02*
X2249Y1858D01*
X2257Y1858D02*
X2263Y1858D01*
X2012Y1857D02*
X2045Y1857D01*
X2069Y1857D02*
X2094Y1857D01*
X2120Y1857D02*
X2151Y1857D01*
X2178Y1857D02*
X2203Y1857D01*
X2230Y1857D02*
X2250Y1857D01*
X2257Y1857D02*
X2264Y1857D01*
X2012Y1856D02*
X2045Y1856D01*
X2067Y1856D02*
X2095Y1856D01*
X2119Y1856D02*
X2152Y1856D01*
X2177Y1856D02*
X2204Y1856D01*
X2229Y1856D02*
X2252Y1856D01*
X2257Y1856D02*
X2264Y1856D01*
X2012Y1855D02*
X2044Y1855D01*
X2066Y1855D02*
X2096Y1855D01*
X2119Y1855D02*
X2152Y1855D01*
X2176Y1855D02*
X2205Y1855D01*
X2229Y1855D02*
X2253Y1855D01*
X2257Y1855D02*
X2264Y1855D01*
X2013Y1854D02*
X2044Y1854D01*
X2065Y1854D02*
X2097Y1854D01*
X2118Y1854D02*
X2153Y1854D01*
X2175Y1854D02*
X2206Y1854D01*
X2228Y1854D02*
X2254Y1854D01*
X2257Y1854D02*
X2264Y1854D01*
X2015Y1853D02*
X2042Y1853D01*
X2065Y1853D02*
X2098Y1853D01*
X2118Y1853D02*
X2153Y1853D01*
X2174Y1853D02*
X2207Y1853D01*
X2228Y1853D02*
X2255Y1853D01*
X2257Y1853D02*
X2264Y1853D01*
X2031Y1852D02*
X2037Y1852D01*
X2064Y1852D02*
X2073Y1852D01*
X2089Y1852D02*
X2098Y1852D01*
X2119Y1852D02*
X2125Y1852D01*
X2146Y1852D02*
X2153Y1852D01*
X2174Y1852D02*
X2183Y1852D01*
X2198Y1852D02*
X2208Y1852D01*
X2227Y1852D02*
X2235Y1852D01*
X2246Y1852D02*
X2264Y1852D01*
X2031Y1851D02*
X2037Y1851D01*
X2064Y1851D02*
X2072Y1851D01*
X2090Y1851D02*
X2099Y1851D01*
X2119Y1851D02*
X2124Y1851D01*
X2147Y1851D02*
X2153Y1851D01*
X2173Y1851D02*
X2181Y1851D01*
X2200Y1851D02*
X2208Y1851D01*
X2227Y1851D02*
X2234Y1851D01*
X2247Y1851D02*
X2264Y1851D01*
X2031Y1850D02*
X2037Y1850D01*
X2063Y1850D02*
X2071Y1850D01*
X2091Y1850D02*
X2099Y1850D01*
X2121Y1850D02*
X2122Y1850D01*
X2147Y1850D02*
X2153Y1850D01*
X2173Y1850D02*
X2180Y1850D01*
X2201Y1850D02*
X2208Y1850D01*
X2227Y1850D02*
X2234Y1850D01*
X2248Y1850D02*
X2264Y1850D01*
X2031Y1849D02*
X2037Y1849D01*
X2063Y1849D02*
X2070Y1849D01*
X2092Y1849D02*
X2099Y1849D01*
X2146Y1849D02*
X2153Y1849D01*
X2172Y1849D02*
X2180Y1849D01*
X2202Y1849D02*
X2209Y1849D01*
X2227Y1849D02*
X2234Y1849D01*
X2249Y1849D02*
X2264Y1849D01*
X2031Y1848D02*
X2037Y1848D01*
X2063Y1848D02*
X2070Y1848D01*
X2093Y1848D02*
X2099Y1848D01*
X2143Y1848D02*
X2153Y1848D01*
X2172Y1848D02*
X2179Y1848D01*
X2202Y1848D02*
X2209Y1848D01*
X2227Y1848D02*
X2234Y1848D01*
X2250Y1848D02*
X2264Y1848D01*
X2031Y1847D02*
X2037Y1847D01*
X2063Y1847D02*
X2069Y1847D01*
X2093Y1847D02*
X2099Y1847D01*
X2141Y1847D02*
X2152Y1847D01*
X2172Y1847D02*
X2179Y1847D01*
X2202Y1847D02*
X2209Y1847D01*
X2227Y1847D02*
X2234Y1847D01*
X2251Y1847D02*
X2264Y1847D01*
X2031Y1846D02*
X2037Y1846D01*
X2063Y1846D02*
X2069Y1846D01*
X2093Y1846D02*
X2099Y1846D01*
X2139Y1846D02*
X2152Y1846D01*
X2172Y1846D02*
X2179Y1846D01*
X2202Y1846D02*
X2209Y1846D01*
X2227Y1846D02*
X2233Y1846D01*
X2252Y1846D02*
X2264Y1846D01*
X2031Y1845D02*
X2037Y1845D01*
X2063Y1845D02*
X2069Y1845D01*
X2093Y1845D02*
X2099Y1845D01*
X2137Y1845D02*
X2151Y1845D01*
X2172Y1845D02*
X2179Y1845D01*
X2202Y1845D02*
X2209Y1845D01*
X2228Y1845D02*
X2233Y1845D01*
X2254Y1845D02*
X2264Y1845D01*
X2031Y1844D02*
X2037Y1844D01*
X2063Y1844D02*
X2069Y1844D01*
X2093Y1844D02*
X2099Y1844D01*
X2134Y1844D02*
X2150Y1844D01*
X2172Y1844D02*
X2179Y1844D01*
X2202Y1844D02*
X2209Y1844D01*
X2229Y1844D02*
X2232Y1844D01*
X2255Y1844D02*
X2264Y1844D01*
X2031Y1843D02*
X2037Y1843D01*
X2063Y1843D02*
X2069Y1843D01*
X2093Y1843D02*
X2099Y1843D01*
X2132Y1843D02*
X2149Y1843D01*
X2172Y1843D02*
X2179Y1843D01*
X2202Y1843D02*
X2209Y1843D01*
X2256Y1843D02*
X2264Y1843D01*
X2031Y1842D02*
X2037Y1842D01*
X2063Y1842D02*
X2069Y1842D01*
X2093Y1842D02*
X2099Y1842D01*
X2130Y1842D02*
X2148Y1842D01*
X2172Y1842D02*
X2179Y1842D01*
X2202Y1842D02*
X2209Y1842D01*
X2257Y1842D02*
X2264Y1842D01*
X2031Y1841D02*
X2037Y1841D01*
X2063Y1841D02*
X2099Y1841D01*
X2127Y1841D02*
X2145Y1841D01*
X2172Y1841D02*
X2209Y1841D01*
X2257Y1841D02*
X2264Y1841D01*
X2031Y1840D02*
X2037Y1840D01*
X2063Y1840D02*
X2099Y1840D01*
X2125Y1840D02*
X2143Y1840D01*
X2172Y1840D02*
X2209Y1840D01*
X2257Y1840D02*
X2264Y1840D01*
X2031Y1839D02*
X2037Y1839D01*
X2063Y1839D02*
X2099Y1839D01*
X2123Y1839D02*
X2141Y1839D01*
X2172Y1839D02*
X2209Y1839D01*
X2257Y1839D02*
X2264Y1839D01*
X2031Y1838D02*
X2037Y1838D01*
X2063Y1838D02*
X2099Y1838D01*
X2122Y1838D02*
X2139Y1838D01*
X2172Y1838D02*
X2209Y1838D01*
X2257Y1838D02*
X2264Y1838D01*
X2031Y1837D02*
X2037Y1837D01*
X2063Y1837D02*
X2099Y1837D01*
X2121Y1837D02*
X2136Y1837D01*
X2172Y1837D02*
X2209Y1837D01*
X2257Y1837D02*
X2264Y1837D01*
X2031Y1836D02*
X2037Y1836D01*
X2063Y1836D02*
X2099Y1836D01*
X2120Y1836D02*
X2134Y1836D01*
X2173Y1836D02*
X2209Y1836D01*
X2257Y1836D02*
X2264Y1836D01*
X2031Y1835D02*
X2037Y1835D01*
X2064Y1835D02*
X2099Y1835D01*
X2119Y1835D02*
X2132Y1835D01*
X2173Y1835D02*
X2209Y1835D01*
X2257Y1835D02*
X2264Y1835D01*
X2031Y1834D02*
X2037Y1834D01*
X2065Y1834D02*
X2099Y1834D01*
X2119Y1834D02*
X2129Y1834D01*
X2174Y1834D02*
X2209Y1834D01*
X2257Y1834D02*
X2264Y1834D01*
X2031Y1833D02*
X2037Y1833D01*
X2093Y1833D02*
X2099Y1833D01*
X2118Y1833D02*
X2127Y1833D01*
X2202Y1833D02*
X2209Y1833D01*
X2257Y1833D02*
X2264Y1833D01*
X2031Y1832D02*
X2037Y1832D01*
X2093Y1832D02*
X2099Y1832D01*
X2118Y1832D02*
X2125Y1832D01*
X2202Y1832D02*
X2209Y1832D01*
X2257Y1832D02*
X2264Y1832D01*
X2010Y1831D02*
X2013Y1831D01*
X2031Y1831D02*
X2037Y1831D01*
X2093Y1831D02*
X2099Y1831D01*
X2118Y1831D02*
X2125Y1831D01*
X2202Y1831D02*
X2209Y1831D01*
X2257Y1831D02*
X2264Y1831D01*
X2009Y1830D02*
X2014Y1830D01*
X2031Y1830D02*
X2037Y1830D01*
X2093Y1830D02*
X2099Y1830D01*
X2118Y1830D02*
X2124Y1830D01*
X2202Y1830D02*
X2209Y1830D01*
X2257Y1830D02*
X2264Y1830D01*
X2008Y1829D02*
X2014Y1829D01*
X2031Y1829D02*
X2037Y1829D01*
X2092Y1829D02*
X2099Y1829D01*
X2118Y1829D02*
X2124Y1829D01*
X2201Y1829D02*
X2209Y1829D01*
X2257Y1829D02*
X2264Y1829D01*
X2008Y1828D02*
X2015Y1828D01*
X2030Y1828D02*
X2037Y1828D01*
X2091Y1828D02*
X2099Y1828D01*
X2118Y1828D02*
X2125Y1828D01*
X2150Y1828D02*
X2152Y1828D01*
X2201Y1828D02*
X2209Y1828D01*
X2257Y1828D02*
X2264Y1828D01*
X2008Y1827D02*
X2015Y1827D01*
X2030Y1827D02*
X2037Y1827D01*
X2090Y1827D02*
X2099Y1827D01*
X2118Y1827D02*
X2125Y1827D01*
X2148Y1827D02*
X2153Y1827D01*
X2199Y1827D02*
X2208Y1827D01*
X2257Y1827D02*
X2264Y1827D01*
X2008Y1826D02*
X2016Y1826D01*
X2029Y1826D02*
X2037Y1826D01*
X2089Y1826D02*
X2098Y1826D01*
X2118Y1826D02*
X2126Y1826D01*
X2147Y1826D02*
X2154Y1826D01*
X2198Y1826D02*
X2208Y1826D01*
X2257Y1826D02*
X2264Y1826D01*
X2009Y1825D02*
X2037Y1825D01*
X2066Y1825D02*
X2098Y1825D01*
X2118Y1825D02*
X2154Y1825D01*
X2175Y1825D02*
X2207Y1825D01*
X2257Y1825D02*
X2264Y1825D01*
X2009Y1824D02*
X2036Y1824D01*
X2064Y1824D02*
X2097Y1824D01*
X2119Y1824D02*
X2154Y1824D01*
X2173Y1824D02*
X2206Y1824D01*
X2257Y1824D02*
X2264Y1824D01*
X2010Y1823D02*
X2036Y1823D01*
X2063Y1823D02*
X2096Y1823D01*
X2119Y1823D02*
X2154Y1823D01*
X2173Y1823D02*
X2205Y1823D01*
X2257Y1823D02*
X2264Y1823D01*
X2010Y1822D02*
X2035Y1822D01*
X2063Y1822D02*
X2095Y1822D01*
X2120Y1822D02*
X2153Y1822D01*
X2172Y1822D02*
X2204Y1822D01*
X2257Y1822D02*
X2264Y1822D01*
X2011Y1821D02*
X2034Y1821D01*
X2063Y1821D02*
X2094Y1821D01*
X2121Y1821D02*
X2152Y1821D01*
X2172Y1821D02*
X2203Y1821D01*
X2257Y1821D02*
X2264Y1821D01*
X2013Y1820D02*
X2033Y1820D01*
X2063Y1820D02*
X2093Y1820D01*
X2122Y1820D02*
X2151Y1820D01*
X2173Y1820D02*
X2202Y1820D01*
X2257Y1820D02*
X2263Y1820D01*
X2014Y1819D02*
X2031Y1819D01*
X2064Y1819D02*
X2091Y1819D01*
X2124Y1819D02*
X2149Y1819D01*
X2173Y1819D02*
X2200Y1819D01*
X2258Y1819D02*
X2263Y1819D01*
X2016Y1818D02*
X2029Y1818D01*
X2065Y1818D02*
X2089Y1818D01*
X2126Y1818D02*
X2146Y1818D01*
X2174Y1818D02*
X2198Y1818D01*
X2259Y1818D02*
X2262Y1818D01*
D02*
G04 End of Silk0*
M02*