G04 MADE WITH FRITZING*
G04 WWW.FRITZING.ORG*
G04 DOUBLE SIDED*
G04 HOLES PLATED*
G04 CONTOUR ON CENTER OF CONTOUR VECTOR*
%ASAXBY*%
%FSLAX23Y23*%
%MOIN*%
%OFA0B0*%
%SFA1.0B1.0*%
%ADD10C,0.074803*%
%ADD11C,0.078000*%
%ADD12C,0.078740*%
%ADD13C,0.075000*%
%ADD14C,0.077778*%
%ADD15C,0.074000*%
%ADD16C,0.082000*%
%ADD17C,0.079370*%
%ADD18C,0.052000*%
%ADD19R,0.078000X0.078000*%
%ADD20R,0.061024X0.051181*%
%ADD21R,0.079370X0.079370*%
%ADD22R,0.196850X0.196850*%
%ADD23R,0.118110X0.118110*%
%ADD24C,0.024000*%
%ADD25C,0.048000*%
%ADD26C,0.020000*%
%ADD27R,0.001000X0.001000*%
%LNCOPPER1*%
G90*
G70*
G54D10*
X781Y1769D03*
X781Y1269D03*
X781Y1369D03*
X781Y1469D03*
X781Y1569D03*
X781Y1669D03*
X1181Y1769D03*
X1182Y1269D03*
X1182Y1369D03*
X1182Y1469D03*
X1182Y1569D03*
X1182Y1669D03*
G54D11*
X81Y2169D03*
X81Y1969D03*
X81Y1769D03*
X1831Y2269D03*
X1831Y2169D03*
X1831Y2069D03*
X1831Y1969D03*
G54D12*
X479Y419D03*
X231Y419D03*
X361Y222D03*
X479Y419D03*
X231Y419D03*
X361Y222D03*
G54D13*
X1281Y869D03*
X1681Y869D03*
X1581Y2169D03*
X1581Y1769D03*
X1681Y2169D03*
X1681Y2069D03*
G54D14*
X581Y2069D03*
X581Y1969D03*
X581Y1869D03*
X581Y1769D03*
X581Y1669D03*
X581Y1569D03*
X581Y1469D03*
X581Y1369D03*
X1481Y1369D03*
X1481Y1469D03*
X1481Y1569D03*
X1481Y1669D03*
X1481Y1769D03*
X1481Y1869D03*
X1481Y1969D03*
X1481Y2069D03*
X2181Y2269D03*
X2181Y2169D03*
X2181Y2069D03*
X2181Y1969D03*
X2181Y1869D03*
X2181Y1769D03*
X2181Y1669D03*
X2181Y1569D03*
X3081Y1569D03*
X3081Y1669D03*
X3081Y1769D03*
X3081Y1869D03*
X3081Y1969D03*
X3081Y2069D03*
X3081Y2169D03*
X3081Y2269D03*
G54D15*
X781Y669D03*
X581Y669D03*
X781Y669D03*
X581Y669D03*
G54D16*
X1981Y219D03*
X1981Y519D03*
G54D17*
X2531Y819D03*
X2731Y819D03*
X2981Y269D03*
X2781Y269D03*
X2581Y269D03*
G54D18*
X231Y669D03*
X331Y669D03*
X331Y969D03*
X231Y969D03*
X231Y669D03*
X331Y669D03*
X331Y969D03*
X231Y969D03*
G54D13*
X181Y1569D03*
X181Y1169D03*
X281Y1569D03*
X281Y1169D03*
G54D15*
X881Y419D03*
X681Y419D03*
X881Y419D03*
X681Y419D03*
G54D19*
X81Y2169D03*
G54D20*
X1994Y1696D03*
X1681Y1696D03*
X1994Y1519D03*
X1681Y1519D03*
G54D21*
X2531Y819D03*
X2981Y269D03*
G54D22*
X3181Y669D03*
X1131Y219D03*
G54D23*
X431Y1769D03*
G54D24*
X431Y1769D02*
X111Y1769D01*
D02*
X1212Y1469D02*
X1452Y1469D01*
D02*
X680Y1368D02*
X610Y1369D01*
D02*
X680Y1567D02*
X680Y1368D01*
D02*
X751Y1568D02*
X680Y1567D01*
G54D25*
D02*
X2981Y570D02*
X2531Y570D01*
D02*
X2531Y570D02*
X2531Y777D01*
D02*
X2981Y311D02*
X2981Y570D01*
G54D24*
D02*
X1681Y1468D02*
X1681Y1499D01*
D02*
X2730Y1468D02*
X1681Y1468D01*
D02*
X2930Y1667D02*
X2730Y1468D01*
D02*
X3052Y1668D02*
X2930Y1667D01*
D02*
X1681Y1667D02*
X1510Y1669D01*
D02*
X2331Y669D02*
X2080Y869D01*
D02*
X1681Y1676D02*
X1681Y1667D01*
D02*
X1681Y1468D02*
X1510Y1469D01*
D02*
X2080Y869D02*
X1710Y869D01*
D02*
X2331Y418D02*
X2331Y669D01*
D02*
X2631Y418D02*
X2331Y418D01*
D02*
X2759Y290D02*
X2631Y418D01*
D02*
X1681Y1499D02*
X1681Y1468D01*
D02*
X331Y1969D02*
X111Y1969D01*
D02*
X552Y1969D02*
X331Y1969D01*
D02*
X1808Y1950D02*
X1603Y1787D01*
D02*
X1031Y869D02*
X1252Y869D01*
D02*
X1031Y1770D02*
X1031Y869D01*
D02*
X1151Y1769D02*
X1031Y1770D01*
D02*
X1481Y669D02*
X808Y669D01*
D02*
X2830Y1368D02*
X1510Y1369D01*
D02*
X3058Y1551D02*
X2830Y1368D01*
D02*
X1481Y1369D02*
X1481Y669D01*
D02*
X1510Y1369D02*
X1481Y1369D01*
D02*
X880Y2169D02*
X1552Y2169D01*
D02*
X880Y1567D02*
X880Y2169D01*
D02*
X811Y1568D02*
X880Y1567D01*
D02*
X1710Y2169D02*
X1801Y2169D01*
D02*
X1652Y2169D02*
X1610Y2169D01*
D02*
X1552Y1769D02*
X1510Y1769D01*
D02*
X181Y1597D02*
X181Y1769D01*
D02*
X181Y1769D02*
X111Y1769D01*
D02*
X181Y1069D02*
X181Y1140D01*
D02*
X219Y993D02*
X181Y1069D01*
D02*
X252Y1569D02*
X210Y1569D01*
D02*
X281Y1069D02*
X281Y1140D01*
D02*
X319Y993D02*
X281Y1069D01*
G54D25*
D02*
X2981Y669D02*
X3088Y669D01*
D02*
X2981Y311D02*
X2981Y669D01*
D02*
X1281Y219D02*
X1131Y219D01*
D02*
X1131Y219D02*
X403Y222D01*
D02*
X1232Y219D02*
X1281Y219D01*
D02*
X1232Y219D02*
X1938Y219D01*
D02*
X2531Y219D02*
X2551Y239D01*
D02*
X2024Y219D02*
X2531Y219D01*
G54D24*
D02*
X431Y1710D02*
X431Y1369D01*
D02*
X431Y1369D02*
X552Y1369D01*
G54D26*
X1950Y250D02*
X2012Y250D01*
X2012Y188D01*
X1950Y188D01*
X1950Y250D01*
D02*
G54D27*
X228Y1021D02*
X233Y1021D01*
X328Y1021D02*
X333Y1021D01*
X223Y1020D02*
X238Y1020D01*
X323Y1020D02*
X338Y1020D01*
X221Y1019D02*
X241Y1019D01*
X321Y1019D02*
X341Y1019D01*
X219Y1018D02*
X242Y1018D01*
X319Y1018D02*
X342Y1018D01*
X217Y1017D02*
X244Y1017D01*
X317Y1017D02*
X344Y1017D01*
X216Y1016D02*
X246Y1016D01*
X316Y1016D02*
X346Y1016D01*
X214Y1015D02*
X247Y1015D01*
X314Y1015D02*
X347Y1015D01*
X213Y1014D02*
X248Y1014D01*
X313Y1014D02*
X348Y1014D01*
X212Y1013D02*
X249Y1013D01*
X312Y1013D02*
X349Y1013D01*
X211Y1012D02*
X250Y1012D01*
X311Y1012D02*
X350Y1012D01*
X211Y1011D02*
X251Y1011D01*
X311Y1011D02*
X351Y1011D01*
X210Y1010D02*
X251Y1010D01*
X310Y1010D02*
X351Y1010D01*
X209Y1009D02*
X252Y1009D01*
X309Y1009D02*
X352Y1009D01*
X209Y1008D02*
X253Y1008D01*
X309Y1008D02*
X353Y1008D01*
X208Y1007D02*
X253Y1007D01*
X308Y1007D02*
X353Y1007D01*
X207Y1006D02*
X254Y1006D01*
X307Y1006D02*
X354Y1006D01*
X207Y1005D02*
X254Y1005D01*
X307Y1005D02*
X354Y1005D01*
X207Y1004D02*
X255Y1004D01*
X307Y1004D02*
X355Y1004D01*
X206Y1003D02*
X255Y1003D01*
X306Y1003D02*
X355Y1003D01*
X206Y1002D02*
X255Y1002D01*
X306Y1002D02*
X355Y1002D01*
X206Y1001D02*
X255Y1001D01*
X306Y1001D02*
X355Y1001D01*
X206Y1000D02*
X256Y1000D01*
X306Y1000D02*
X356Y1000D01*
X205Y999D02*
X256Y999D01*
X305Y999D02*
X356Y999D01*
X205Y998D02*
X256Y998D01*
X305Y998D02*
X356Y998D01*
X205Y997D02*
X256Y997D01*
X305Y997D02*
X356Y997D01*
X205Y996D02*
X256Y996D01*
X305Y996D02*
X356Y996D01*
X205Y995D02*
X256Y995D01*
X305Y995D02*
X356Y995D01*
X205Y994D02*
X256Y994D01*
X305Y994D02*
X356Y994D01*
X205Y993D02*
X256Y993D01*
X305Y993D02*
X356Y993D01*
X205Y992D02*
X256Y992D01*
X305Y992D02*
X356Y992D01*
X205Y991D02*
X256Y991D01*
X305Y991D02*
X356Y991D01*
X205Y990D02*
X256Y990D01*
X305Y990D02*
X356Y990D01*
X205Y989D02*
X256Y989D01*
X305Y989D02*
X356Y989D01*
X205Y988D02*
X256Y988D01*
X305Y988D02*
X356Y988D01*
X205Y987D02*
X256Y987D01*
X305Y987D02*
X356Y987D01*
X205Y986D02*
X256Y986D01*
X305Y986D02*
X356Y986D01*
X205Y985D02*
X228Y985D01*
X233Y985D02*
X256Y985D01*
X305Y985D02*
X328Y985D01*
X333Y985D02*
X356Y985D01*
X205Y984D02*
X224Y984D01*
X237Y984D02*
X256Y984D01*
X305Y984D02*
X324Y984D01*
X337Y984D02*
X356Y984D01*
X205Y983D02*
X222Y983D01*
X239Y983D02*
X256Y983D01*
X305Y983D02*
X322Y983D01*
X339Y983D02*
X356Y983D01*
X205Y982D02*
X221Y982D01*
X241Y982D02*
X256Y982D01*
X305Y982D02*
X321Y982D01*
X341Y982D02*
X356Y982D01*
X205Y981D02*
X219Y981D01*
X242Y981D02*
X256Y981D01*
X305Y981D02*
X319Y981D01*
X342Y981D02*
X356Y981D01*
X205Y980D02*
X218Y980D01*
X243Y980D02*
X256Y980D01*
X305Y980D02*
X318Y980D01*
X343Y980D02*
X356Y980D01*
X205Y979D02*
X218Y979D01*
X244Y979D02*
X256Y979D01*
X305Y979D02*
X318Y979D01*
X344Y979D02*
X356Y979D01*
X205Y978D02*
X217Y978D01*
X244Y978D02*
X256Y978D01*
X305Y978D02*
X317Y978D01*
X344Y978D02*
X356Y978D01*
X205Y977D02*
X216Y977D01*
X245Y977D02*
X256Y977D01*
X305Y977D02*
X316Y977D01*
X345Y977D02*
X356Y977D01*
X205Y976D02*
X216Y976D01*
X246Y976D02*
X256Y976D01*
X305Y976D02*
X316Y976D01*
X346Y976D02*
X356Y976D01*
X205Y975D02*
X215Y975D01*
X246Y975D02*
X256Y975D01*
X305Y975D02*
X315Y975D01*
X346Y975D02*
X356Y975D01*
X205Y974D02*
X215Y974D01*
X246Y974D02*
X256Y974D01*
X305Y974D02*
X315Y974D01*
X346Y974D02*
X356Y974D01*
X205Y973D02*
X215Y973D01*
X247Y973D02*
X256Y973D01*
X305Y973D02*
X315Y973D01*
X347Y973D02*
X356Y973D01*
X205Y972D02*
X214Y972D01*
X247Y972D02*
X256Y972D01*
X305Y972D02*
X314Y972D01*
X347Y972D02*
X356Y972D01*
X205Y971D02*
X214Y971D01*
X247Y971D02*
X256Y971D01*
X305Y971D02*
X314Y971D01*
X347Y971D02*
X356Y971D01*
X205Y970D02*
X214Y970D01*
X247Y970D02*
X256Y970D01*
X305Y970D02*
X314Y970D01*
X347Y970D02*
X356Y970D01*
X205Y969D02*
X214Y969D01*
X247Y969D02*
X256Y969D01*
X305Y969D02*
X314Y969D01*
X347Y969D02*
X356Y969D01*
X205Y968D02*
X214Y968D01*
X247Y968D02*
X256Y968D01*
X305Y968D02*
X314Y968D01*
X347Y968D02*
X356Y968D01*
X205Y967D02*
X214Y967D01*
X247Y967D02*
X256Y967D01*
X305Y967D02*
X314Y967D01*
X347Y967D02*
X356Y967D01*
X205Y966D02*
X214Y966D01*
X247Y966D02*
X256Y966D01*
X305Y966D02*
X314Y966D01*
X347Y966D02*
X356Y966D01*
X205Y965D02*
X215Y965D01*
X246Y965D02*
X256Y965D01*
X305Y965D02*
X315Y965D01*
X346Y965D02*
X356Y965D01*
X205Y964D02*
X215Y964D01*
X246Y964D02*
X256Y964D01*
X305Y964D02*
X315Y964D01*
X346Y964D02*
X356Y964D01*
X205Y963D02*
X215Y963D01*
X246Y963D02*
X256Y963D01*
X305Y963D02*
X315Y963D01*
X346Y963D02*
X356Y963D01*
X205Y962D02*
X216Y962D01*
X245Y962D02*
X256Y962D01*
X305Y962D02*
X316Y962D01*
X345Y962D02*
X356Y962D01*
X205Y961D02*
X216Y961D01*
X245Y961D02*
X256Y961D01*
X305Y961D02*
X316Y961D01*
X345Y961D02*
X356Y961D01*
X205Y960D02*
X217Y960D01*
X244Y960D02*
X256Y960D01*
X305Y960D02*
X317Y960D01*
X344Y960D02*
X356Y960D01*
X205Y959D02*
X218Y959D01*
X243Y959D02*
X256Y959D01*
X305Y959D02*
X318Y959D01*
X343Y959D02*
X356Y959D01*
X205Y958D02*
X219Y958D01*
X242Y958D02*
X256Y958D01*
X305Y958D02*
X319Y958D01*
X342Y958D02*
X356Y958D01*
X205Y957D02*
X220Y957D01*
X241Y957D02*
X256Y957D01*
X305Y957D02*
X320Y957D01*
X341Y957D02*
X356Y957D01*
X205Y956D02*
X221Y956D01*
X240Y956D02*
X256Y956D01*
X305Y956D02*
X321Y956D01*
X340Y956D02*
X356Y956D01*
X205Y955D02*
X223Y955D01*
X238Y955D02*
X256Y955D01*
X305Y955D02*
X323Y955D01*
X338Y955D02*
X356Y955D01*
X205Y954D02*
X225Y954D01*
X236Y954D02*
X256Y954D01*
X305Y954D02*
X325Y954D01*
X336Y954D02*
X356Y954D01*
X205Y953D02*
X256Y953D01*
X305Y953D02*
X356Y953D01*
X205Y952D02*
X256Y952D01*
X305Y952D02*
X356Y952D01*
X205Y951D02*
X256Y951D01*
X305Y951D02*
X356Y951D01*
X205Y950D02*
X256Y950D01*
X305Y950D02*
X356Y950D01*
X205Y949D02*
X256Y949D01*
X305Y949D02*
X356Y949D01*
X205Y948D02*
X256Y948D01*
X305Y948D02*
X356Y948D01*
X205Y947D02*
X256Y947D01*
X305Y947D02*
X356Y947D01*
X205Y946D02*
X256Y946D01*
X305Y946D02*
X356Y946D01*
X205Y945D02*
X256Y945D01*
X305Y945D02*
X356Y945D01*
X205Y944D02*
X256Y944D01*
X305Y944D02*
X356Y944D01*
X205Y943D02*
X256Y943D01*
X305Y943D02*
X356Y943D01*
X205Y942D02*
X256Y942D01*
X305Y942D02*
X356Y942D01*
X205Y941D02*
X256Y941D01*
X305Y941D02*
X356Y941D01*
X205Y940D02*
X256Y940D01*
X305Y940D02*
X356Y940D01*
X205Y939D02*
X256Y939D01*
X305Y939D02*
X356Y939D01*
X206Y938D02*
X256Y938D01*
X306Y938D02*
X356Y938D01*
X206Y937D02*
X255Y937D01*
X306Y937D02*
X355Y937D01*
X206Y936D02*
X255Y936D01*
X306Y936D02*
X355Y936D01*
X206Y935D02*
X255Y935D01*
X306Y935D02*
X355Y935D01*
X207Y934D02*
X254Y934D01*
X307Y934D02*
X354Y934D01*
X207Y933D02*
X254Y933D01*
X307Y933D02*
X354Y933D01*
X208Y932D02*
X253Y932D01*
X308Y932D02*
X353Y932D01*
X208Y931D02*
X253Y931D01*
X308Y931D02*
X353Y931D01*
X209Y930D02*
X252Y930D01*
X309Y930D02*
X352Y930D01*
X209Y929D02*
X252Y929D01*
X309Y929D02*
X352Y929D01*
X210Y928D02*
X251Y928D01*
X310Y928D02*
X351Y928D01*
X211Y927D02*
X250Y927D01*
X311Y927D02*
X350Y927D01*
X212Y926D02*
X249Y926D01*
X312Y926D02*
X349Y926D01*
X213Y925D02*
X249Y925D01*
X313Y925D02*
X349Y925D01*
X214Y924D02*
X247Y924D01*
X314Y924D02*
X347Y924D01*
X215Y923D02*
X246Y923D01*
X315Y923D02*
X346Y923D01*
X216Y922D02*
X245Y922D01*
X316Y922D02*
X345Y922D01*
X218Y921D02*
X243Y921D01*
X318Y921D02*
X343Y921D01*
X220Y920D02*
X242Y920D01*
X320Y920D02*
X342Y920D01*
X222Y919D02*
X239Y919D01*
X322Y919D02*
X339Y919D01*
X225Y918D02*
X236Y918D01*
X325Y918D02*
X336Y918D01*
X228Y721D02*
X234Y721D01*
X328Y721D02*
X334Y721D01*
X223Y720D02*
X238Y720D01*
X323Y720D02*
X338Y720D01*
X221Y719D02*
X241Y719D01*
X321Y719D02*
X341Y719D01*
X219Y718D02*
X242Y718D01*
X319Y718D02*
X342Y718D01*
X217Y717D02*
X244Y717D01*
X317Y717D02*
X344Y717D01*
X216Y716D02*
X246Y716D01*
X316Y716D02*
X346Y716D01*
X214Y715D02*
X247Y715D01*
X314Y715D02*
X347Y715D01*
X213Y714D02*
X248Y714D01*
X313Y714D02*
X348Y714D01*
X212Y713D02*
X249Y713D01*
X312Y713D02*
X349Y713D01*
X211Y712D02*
X250Y712D01*
X311Y712D02*
X350Y712D01*
X211Y711D02*
X251Y711D01*
X311Y711D02*
X351Y711D01*
X210Y710D02*
X251Y710D01*
X310Y710D02*
X351Y710D01*
X209Y709D02*
X252Y709D01*
X309Y709D02*
X352Y709D01*
X209Y708D02*
X253Y708D01*
X309Y708D02*
X353Y708D01*
X208Y707D02*
X253Y707D01*
X308Y707D02*
X353Y707D01*
X207Y706D02*
X254Y706D01*
X307Y706D02*
X354Y706D01*
X207Y705D02*
X254Y705D01*
X307Y705D02*
X354Y705D01*
X207Y704D02*
X255Y704D01*
X307Y704D02*
X355Y704D01*
X206Y703D02*
X255Y703D01*
X306Y703D02*
X355Y703D01*
X206Y702D02*
X255Y702D01*
X306Y702D02*
X355Y702D01*
X206Y701D02*
X255Y701D01*
X306Y701D02*
X355Y701D01*
X206Y700D02*
X256Y700D01*
X306Y700D02*
X356Y700D01*
X205Y699D02*
X256Y699D01*
X305Y699D02*
X356Y699D01*
X205Y698D02*
X256Y698D01*
X305Y698D02*
X356Y698D01*
X205Y697D02*
X256Y697D01*
X305Y697D02*
X356Y697D01*
X205Y696D02*
X256Y696D01*
X305Y696D02*
X356Y696D01*
X205Y695D02*
X256Y695D01*
X305Y695D02*
X356Y695D01*
X205Y694D02*
X256Y694D01*
X305Y694D02*
X356Y694D01*
X205Y693D02*
X256Y693D01*
X305Y693D02*
X356Y693D01*
X205Y692D02*
X256Y692D01*
X305Y692D02*
X356Y692D01*
X205Y691D02*
X256Y691D01*
X305Y691D02*
X356Y691D01*
X205Y690D02*
X256Y690D01*
X305Y690D02*
X356Y690D01*
X205Y689D02*
X256Y689D01*
X305Y689D02*
X356Y689D01*
X205Y688D02*
X256Y688D01*
X305Y688D02*
X356Y688D01*
X205Y687D02*
X256Y687D01*
X305Y687D02*
X356Y687D01*
X205Y686D02*
X256Y686D01*
X305Y686D02*
X356Y686D01*
X205Y685D02*
X228Y685D01*
X234Y685D02*
X256Y685D01*
X305Y685D02*
X328Y685D01*
X334Y685D02*
X356Y685D01*
X205Y684D02*
X224Y684D01*
X237Y684D02*
X256Y684D01*
X305Y684D02*
X324Y684D01*
X337Y684D02*
X356Y684D01*
X205Y683D02*
X222Y683D01*
X239Y683D02*
X256Y683D01*
X305Y683D02*
X322Y683D01*
X339Y683D02*
X356Y683D01*
X205Y682D02*
X221Y682D01*
X241Y682D02*
X256Y682D01*
X305Y682D02*
X321Y682D01*
X341Y682D02*
X356Y682D01*
X205Y681D02*
X219Y681D01*
X242Y681D02*
X256Y681D01*
X305Y681D02*
X319Y681D01*
X342Y681D02*
X356Y681D01*
X205Y680D02*
X218Y680D01*
X243Y680D02*
X256Y680D01*
X305Y680D02*
X318Y680D01*
X343Y680D02*
X356Y680D01*
X205Y679D02*
X217Y679D01*
X244Y679D02*
X256Y679D01*
X305Y679D02*
X317Y679D01*
X344Y679D02*
X356Y679D01*
X205Y678D02*
X217Y678D01*
X244Y678D02*
X256Y678D01*
X305Y678D02*
X317Y678D01*
X344Y678D02*
X356Y678D01*
X205Y677D02*
X216Y677D01*
X245Y677D02*
X256Y677D01*
X305Y677D02*
X316Y677D01*
X345Y677D02*
X356Y677D01*
X205Y676D02*
X216Y676D01*
X246Y676D02*
X256Y676D01*
X305Y676D02*
X316Y676D01*
X346Y676D02*
X356Y676D01*
X205Y675D02*
X215Y675D01*
X246Y675D02*
X256Y675D01*
X305Y675D02*
X315Y675D01*
X346Y675D02*
X356Y675D01*
X205Y674D02*
X215Y674D01*
X246Y674D02*
X256Y674D01*
X305Y674D02*
X315Y674D01*
X346Y674D02*
X356Y674D01*
X205Y673D02*
X215Y673D01*
X247Y673D02*
X256Y673D01*
X305Y673D02*
X315Y673D01*
X347Y673D02*
X356Y673D01*
X205Y672D02*
X214Y672D01*
X247Y672D02*
X256Y672D01*
X305Y672D02*
X314Y672D01*
X347Y672D02*
X356Y672D01*
X205Y671D02*
X214Y671D01*
X247Y671D02*
X256Y671D01*
X305Y671D02*
X314Y671D01*
X347Y671D02*
X356Y671D01*
X205Y670D02*
X214Y670D01*
X247Y670D02*
X256Y670D01*
X305Y670D02*
X314Y670D01*
X347Y670D02*
X356Y670D01*
X205Y669D02*
X214Y669D01*
X247Y669D02*
X256Y669D01*
X305Y669D02*
X314Y669D01*
X347Y669D02*
X356Y669D01*
X205Y668D02*
X214Y668D01*
X247Y668D02*
X256Y668D01*
X305Y668D02*
X314Y668D01*
X347Y668D02*
X356Y668D01*
X205Y667D02*
X214Y667D01*
X247Y667D02*
X256Y667D01*
X305Y667D02*
X314Y667D01*
X347Y667D02*
X356Y667D01*
X205Y666D02*
X214Y666D01*
X247Y666D02*
X256Y666D01*
X305Y666D02*
X314Y666D01*
X347Y666D02*
X356Y666D01*
X205Y665D02*
X215Y665D01*
X246Y665D02*
X256Y665D01*
X305Y665D02*
X315Y665D01*
X346Y665D02*
X356Y665D01*
X205Y664D02*
X215Y664D01*
X246Y664D02*
X256Y664D01*
X305Y664D02*
X315Y664D01*
X346Y664D02*
X356Y664D01*
X205Y663D02*
X215Y663D01*
X246Y663D02*
X256Y663D01*
X305Y663D02*
X315Y663D01*
X346Y663D02*
X356Y663D01*
X205Y662D02*
X216Y662D01*
X245Y662D02*
X256Y662D01*
X305Y662D02*
X316Y662D01*
X345Y662D02*
X356Y662D01*
X205Y661D02*
X216Y661D01*
X245Y661D02*
X256Y661D01*
X305Y661D02*
X316Y661D01*
X345Y661D02*
X356Y661D01*
X205Y660D02*
X217Y660D01*
X244Y660D02*
X256Y660D01*
X305Y660D02*
X317Y660D01*
X344Y660D02*
X356Y660D01*
X205Y659D02*
X218Y659D01*
X243Y659D02*
X256Y659D01*
X305Y659D02*
X318Y659D01*
X343Y659D02*
X356Y659D01*
X205Y658D02*
X219Y658D01*
X242Y658D02*
X256Y658D01*
X305Y658D02*
X319Y658D01*
X342Y658D02*
X356Y658D01*
X205Y657D02*
X220Y657D01*
X241Y657D02*
X256Y657D01*
X305Y657D02*
X320Y657D01*
X341Y657D02*
X356Y657D01*
X205Y656D02*
X221Y656D01*
X240Y656D02*
X256Y656D01*
X305Y656D02*
X321Y656D01*
X340Y656D02*
X356Y656D01*
X205Y655D02*
X223Y655D01*
X238Y655D02*
X256Y655D01*
X305Y655D02*
X323Y655D01*
X338Y655D02*
X356Y655D01*
X205Y654D02*
X226Y654D01*
X236Y654D02*
X256Y654D01*
X305Y654D02*
X326Y654D01*
X336Y654D02*
X356Y654D01*
X205Y653D02*
X256Y653D01*
X305Y653D02*
X356Y653D01*
X205Y652D02*
X256Y652D01*
X305Y652D02*
X356Y652D01*
X205Y651D02*
X256Y651D01*
X305Y651D02*
X356Y651D01*
X205Y650D02*
X256Y650D01*
X305Y650D02*
X356Y650D01*
X205Y649D02*
X256Y649D01*
X305Y649D02*
X356Y649D01*
X205Y648D02*
X256Y648D01*
X305Y648D02*
X356Y648D01*
X205Y647D02*
X256Y647D01*
X305Y647D02*
X356Y647D01*
X205Y646D02*
X256Y646D01*
X305Y646D02*
X356Y646D01*
X205Y645D02*
X256Y645D01*
X305Y645D02*
X356Y645D01*
X205Y644D02*
X256Y644D01*
X305Y644D02*
X356Y644D01*
X205Y643D02*
X256Y643D01*
X305Y643D02*
X356Y643D01*
X205Y642D02*
X256Y642D01*
X305Y642D02*
X356Y642D01*
X205Y641D02*
X256Y641D01*
X305Y641D02*
X356Y641D01*
X205Y640D02*
X256Y640D01*
X305Y640D02*
X356Y640D01*
X205Y639D02*
X256Y639D01*
X305Y639D02*
X356Y639D01*
X206Y638D02*
X256Y638D01*
X306Y638D02*
X356Y638D01*
X206Y637D02*
X255Y637D01*
X306Y637D02*
X355Y637D01*
X206Y636D02*
X255Y636D01*
X306Y636D02*
X355Y636D01*
X206Y635D02*
X255Y635D01*
X306Y635D02*
X355Y635D01*
X207Y634D02*
X254Y634D01*
X307Y634D02*
X354Y634D01*
X207Y633D02*
X254Y633D01*
X307Y633D02*
X354Y633D01*
X208Y632D02*
X253Y632D01*
X308Y632D02*
X353Y632D01*
X208Y631D02*
X253Y631D01*
X308Y631D02*
X353Y631D01*
X209Y630D02*
X252Y630D01*
X309Y630D02*
X352Y630D01*
X209Y629D02*
X252Y629D01*
X309Y629D02*
X352Y629D01*
X210Y628D02*
X251Y628D01*
X310Y628D02*
X351Y628D01*
X211Y627D02*
X250Y627D01*
X311Y627D02*
X350Y627D01*
X212Y626D02*
X249Y626D01*
X312Y626D02*
X349Y626D01*
X213Y625D02*
X249Y625D01*
X313Y625D02*
X349Y625D01*
X214Y624D02*
X247Y624D01*
X314Y624D02*
X347Y624D01*
X215Y623D02*
X246Y623D01*
X315Y623D02*
X346Y623D01*
X216Y622D02*
X245Y622D01*
X316Y622D02*
X345Y622D01*
X218Y621D02*
X243Y621D01*
X318Y621D02*
X343Y621D01*
X220Y620D02*
X242Y620D01*
X320Y620D02*
X342Y620D01*
X222Y619D02*
X239Y619D01*
X322Y619D02*
X339Y619D01*
X225Y618D02*
X236Y618D01*
X325Y618D02*
X336Y618D01*
X222Y497D02*
X239Y497D01*
X470Y497D02*
X487Y497D01*
X219Y496D02*
X242Y496D01*
X467Y496D02*
X490Y496D01*
X216Y495D02*
X245Y495D01*
X464Y495D02*
X493Y495D01*
X214Y494D02*
X247Y494D01*
X462Y494D02*
X495Y494D01*
X212Y493D02*
X249Y493D01*
X460Y493D02*
X497Y493D01*
X210Y492D02*
X251Y492D01*
X458Y492D02*
X499Y492D01*
X209Y491D02*
X252Y491D01*
X457Y491D02*
X500Y491D01*
X207Y490D02*
X254Y490D01*
X455Y490D02*
X502Y490D01*
X206Y489D02*
X255Y489D01*
X454Y489D02*
X503Y489D01*
X205Y488D02*
X256Y488D01*
X453Y488D02*
X504Y488D01*
X204Y487D02*
X257Y487D01*
X452Y487D02*
X505Y487D01*
X203Y486D02*
X258Y486D01*
X451Y486D02*
X506Y486D01*
X202Y485D02*
X259Y485D01*
X450Y485D02*
X507Y485D01*
X201Y484D02*
X260Y484D01*
X449Y484D02*
X508Y484D01*
X200Y483D02*
X261Y483D01*
X448Y483D02*
X509Y483D01*
X199Y482D02*
X262Y482D01*
X447Y482D02*
X510Y482D01*
X199Y481D02*
X262Y481D01*
X447Y481D02*
X510Y481D01*
X198Y480D02*
X263Y480D01*
X446Y480D02*
X511Y480D01*
X197Y479D02*
X264Y479D01*
X445Y479D02*
X512Y479D01*
X197Y478D02*
X264Y478D01*
X445Y478D02*
X512Y478D01*
X196Y477D02*
X265Y477D01*
X444Y477D02*
X513Y477D01*
X196Y476D02*
X265Y476D01*
X444Y476D02*
X513Y476D01*
X195Y475D02*
X266Y475D01*
X443Y475D02*
X514Y475D01*
X195Y474D02*
X266Y474D01*
X443Y474D02*
X514Y474D01*
X194Y473D02*
X267Y473D01*
X442Y473D02*
X515Y473D01*
X194Y472D02*
X267Y472D01*
X442Y472D02*
X515Y472D01*
X194Y471D02*
X267Y471D01*
X442Y471D02*
X515Y471D01*
X193Y470D02*
X268Y470D01*
X441Y470D02*
X516Y470D01*
X193Y469D02*
X268Y469D01*
X441Y469D02*
X516Y469D01*
X193Y468D02*
X268Y468D01*
X441Y468D02*
X516Y468D01*
X193Y467D02*
X269Y467D01*
X441Y467D02*
X517Y467D01*
X192Y466D02*
X269Y466D01*
X440Y466D02*
X517Y466D01*
X192Y465D02*
X269Y465D01*
X440Y465D02*
X517Y465D01*
X192Y464D02*
X269Y464D01*
X440Y464D02*
X517Y464D01*
X192Y463D02*
X269Y463D01*
X440Y463D02*
X517Y463D01*
X192Y462D02*
X269Y462D01*
X440Y462D02*
X517Y462D01*
X192Y461D02*
X269Y461D01*
X440Y461D02*
X517Y461D01*
X192Y460D02*
X269Y460D01*
X440Y460D02*
X517Y460D01*
X192Y459D02*
X269Y459D01*
X440Y459D02*
X517Y459D01*
X192Y458D02*
X269Y458D01*
X440Y458D02*
X517Y458D01*
X192Y457D02*
X269Y457D01*
X440Y457D02*
X517Y457D01*
X192Y456D02*
X269Y456D01*
X440Y456D02*
X517Y456D01*
X192Y455D02*
X269Y455D01*
X440Y455D02*
X517Y455D01*
X192Y454D02*
X269Y454D01*
X440Y454D02*
X517Y454D01*
X192Y453D02*
X269Y453D01*
X440Y453D02*
X517Y453D01*
X192Y452D02*
X269Y452D01*
X440Y452D02*
X517Y452D01*
X192Y451D02*
X269Y451D01*
X440Y451D02*
X517Y451D01*
X192Y450D02*
X269Y450D01*
X440Y450D02*
X517Y450D01*
X192Y449D02*
X269Y449D01*
X440Y449D02*
X517Y449D01*
X192Y448D02*
X269Y448D01*
X440Y448D02*
X517Y448D01*
X192Y447D02*
X269Y447D01*
X440Y447D02*
X517Y447D01*
X192Y446D02*
X269Y446D01*
X440Y446D02*
X517Y446D01*
X192Y445D02*
X269Y445D01*
X440Y445D02*
X517Y445D01*
X192Y444D02*
X269Y444D01*
X440Y444D02*
X517Y444D01*
X192Y443D02*
X269Y443D01*
X440Y443D02*
X517Y443D01*
X192Y442D02*
X269Y442D01*
X440Y442D02*
X517Y442D01*
X192Y441D02*
X269Y441D01*
X440Y441D02*
X517Y441D01*
X192Y440D02*
X269Y440D01*
X440Y440D02*
X517Y440D01*
X192Y439D02*
X269Y439D01*
X440Y439D02*
X517Y439D01*
X192Y438D02*
X224Y438D01*
X237Y438D02*
X269Y438D01*
X440Y438D02*
X472Y438D01*
X485Y438D02*
X517Y438D01*
X192Y437D02*
X222Y437D01*
X239Y437D02*
X269Y437D01*
X440Y437D02*
X470Y437D01*
X487Y437D02*
X517Y437D01*
X192Y436D02*
X220Y436D01*
X241Y436D02*
X269Y436D01*
X440Y436D02*
X468Y436D01*
X489Y436D02*
X517Y436D01*
X192Y435D02*
X218Y435D01*
X243Y435D02*
X269Y435D01*
X440Y435D02*
X466Y435D01*
X491Y435D02*
X517Y435D01*
X192Y434D02*
X217Y434D01*
X244Y434D02*
X269Y434D01*
X440Y434D02*
X465Y434D01*
X492Y434D02*
X517Y434D01*
X192Y433D02*
X216Y433D01*
X245Y433D02*
X269Y433D01*
X440Y433D02*
X464Y433D01*
X493Y433D02*
X517Y433D01*
X192Y432D02*
X215Y432D01*
X246Y432D02*
X269Y432D01*
X440Y432D02*
X463Y432D01*
X494Y432D02*
X517Y432D01*
X192Y431D02*
X214Y431D01*
X247Y431D02*
X269Y431D01*
X440Y431D02*
X462Y431D01*
X495Y431D02*
X517Y431D01*
X192Y430D02*
X214Y430D01*
X248Y430D02*
X269Y430D01*
X440Y430D02*
X462Y430D01*
X496Y430D02*
X517Y430D01*
X192Y429D02*
X213Y429D01*
X248Y429D02*
X269Y429D01*
X440Y429D02*
X461Y429D01*
X496Y429D02*
X517Y429D01*
X192Y428D02*
X213Y428D01*
X249Y428D02*
X269Y428D01*
X440Y428D02*
X461Y428D01*
X497Y428D02*
X517Y428D01*
X192Y427D02*
X212Y427D01*
X249Y427D02*
X269Y427D01*
X440Y427D02*
X460Y427D01*
X497Y427D02*
X517Y427D01*
X192Y426D02*
X212Y426D01*
X250Y426D02*
X269Y426D01*
X440Y426D02*
X460Y426D01*
X498Y426D02*
X517Y426D01*
X192Y425D02*
X211Y425D01*
X250Y425D02*
X269Y425D01*
X440Y425D02*
X459Y425D01*
X498Y425D02*
X517Y425D01*
X192Y424D02*
X211Y424D01*
X250Y424D02*
X269Y424D01*
X440Y424D02*
X459Y424D01*
X498Y424D02*
X517Y424D01*
X192Y423D02*
X211Y423D01*
X250Y423D02*
X269Y423D01*
X440Y423D02*
X459Y423D01*
X498Y423D02*
X517Y423D01*
X192Y422D02*
X211Y422D01*
X250Y422D02*
X269Y422D01*
X440Y422D02*
X459Y422D01*
X499Y422D02*
X517Y422D01*
X192Y421D02*
X211Y421D01*
X251Y421D02*
X269Y421D01*
X440Y421D02*
X459Y421D01*
X499Y421D02*
X517Y421D01*
X192Y420D02*
X210Y420D01*
X251Y420D02*
X269Y420D01*
X440Y420D02*
X459Y420D01*
X499Y420D02*
X517Y420D01*
X192Y419D02*
X210Y419D01*
X251Y419D02*
X269Y419D01*
X440Y419D02*
X458Y419D01*
X499Y419D02*
X517Y419D01*
X192Y418D02*
X211Y418D01*
X251Y418D02*
X269Y418D01*
X440Y418D02*
X459Y418D01*
X499Y418D02*
X517Y418D01*
X192Y417D02*
X211Y417D01*
X251Y417D02*
X269Y417D01*
X440Y417D02*
X459Y417D01*
X499Y417D02*
X517Y417D01*
X192Y416D02*
X211Y416D01*
X250Y416D02*
X269Y416D01*
X440Y416D02*
X459Y416D01*
X498Y416D02*
X517Y416D01*
X192Y415D02*
X211Y415D01*
X250Y415D02*
X269Y415D01*
X440Y415D02*
X459Y415D01*
X498Y415D02*
X517Y415D01*
X192Y414D02*
X211Y414D01*
X250Y414D02*
X269Y414D01*
X440Y414D02*
X459Y414D01*
X498Y414D02*
X517Y414D01*
X192Y413D02*
X212Y413D01*
X250Y413D02*
X269Y413D01*
X440Y413D02*
X460Y413D01*
X498Y413D02*
X517Y413D01*
X192Y412D02*
X212Y412D01*
X249Y412D02*
X269Y412D01*
X440Y412D02*
X460Y412D01*
X497Y412D02*
X517Y412D01*
X192Y411D02*
X212Y411D01*
X249Y411D02*
X269Y411D01*
X440Y411D02*
X460Y411D01*
X497Y411D02*
X517Y411D01*
X192Y410D02*
X213Y410D01*
X248Y410D02*
X269Y410D01*
X440Y410D02*
X461Y410D01*
X496Y410D02*
X517Y410D01*
X192Y409D02*
X213Y409D01*
X248Y409D02*
X269Y409D01*
X440Y409D02*
X461Y409D01*
X496Y409D02*
X517Y409D01*
X192Y408D02*
X214Y408D01*
X247Y408D02*
X269Y408D01*
X440Y408D02*
X462Y408D01*
X495Y408D02*
X517Y408D01*
X192Y407D02*
X215Y407D01*
X246Y407D02*
X269Y407D01*
X440Y407D02*
X463Y407D01*
X494Y407D02*
X517Y407D01*
X192Y406D02*
X216Y406D01*
X246Y406D02*
X269Y406D01*
X440Y406D02*
X464Y406D01*
X494Y406D02*
X517Y406D01*
X192Y405D02*
X217Y405D01*
X245Y405D02*
X269Y405D01*
X440Y405D02*
X465Y405D01*
X493Y405D02*
X517Y405D01*
X192Y404D02*
X218Y404D01*
X243Y404D02*
X269Y404D01*
X440Y404D02*
X466Y404D01*
X491Y404D02*
X517Y404D01*
X192Y403D02*
X219Y403D01*
X242Y403D02*
X269Y403D01*
X440Y403D02*
X467Y403D01*
X490Y403D02*
X517Y403D01*
X192Y402D02*
X221Y402D01*
X240Y402D02*
X269Y402D01*
X440Y402D02*
X469Y402D01*
X488Y402D02*
X517Y402D01*
X192Y401D02*
X223Y401D01*
X238Y401D02*
X269Y401D01*
X440Y401D02*
X471Y401D01*
X486Y401D02*
X517Y401D01*
X192Y400D02*
X226Y400D01*
X235Y400D02*
X269Y400D01*
X440Y400D02*
X474Y400D01*
X483Y400D02*
X517Y400D01*
X192Y399D02*
X269Y399D01*
X440Y399D02*
X517Y399D01*
X192Y398D02*
X269Y398D01*
X440Y398D02*
X517Y398D01*
X192Y397D02*
X269Y397D01*
X440Y397D02*
X517Y397D01*
X192Y396D02*
X269Y396D01*
X440Y396D02*
X517Y396D01*
X192Y395D02*
X269Y395D01*
X440Y395D02*
X517Y395D01*
X192Y394D02*
X269Y394D01*
X440Y394D02*
X517Y394D01*
X192Y393D02*
X269Y393D01*
X440Y393D02*
X517Y393D01*
X192Y392D02*
X269Y392D01*
X440Y392D02*
X517Y392D01*
X192Y391D02*
X269Y391D01*
X440Y391D02*
X517Y391D01*
X192Y390D02*
X269Y390D01*
X440Y390D02*
X517Y390D01*
X192Y389D02*
X269Y389D01*
X440Y389D02*
X517Y389D01*
X192Y388D02*
X269Y388D01*
X440Y388D02*
X517Y388D01*
X192Y387D02*
X269Y387D01*
X440Y387D02*
X517Y387D01*
X192Y386D02*
X269Y386D01*
X440Y386D02*
X517Y386D01*
X192Y385D02*
X269Y385D01*
X440Y385D02*
X517Y385D01*
X192Y384D02*
X269Y384D01*
X440Y384D02*
X517Y384D01*
X192Y383D02*
X269Y383D01*
X440Y383D02*
X517Y383D01*
X192Y382D02*
X269Y382D01*
X440Y382D02*
X517Y382D01*
X192Y381D02*
X269Y381D01*
X440Y381D02*
X517Y381D01*
X192Y380D02*
X269Y380D01*
X440Y380D02*
X517Y380D01*
X192Y379D02*
X269Y379D01*
X440Y379D02*
X517Y379D01*
X192Y378D02*
X269Y378D01*
X440Y378D02*
X517Y378D01*
X192Y377D02*
X269Y377D01*
X440Y377D02*
X517Y377D01*
X192Y376D02*
X269Y376D01*
X440Y376D02*
X517Y376D01*
X192Y375D02*
X269Y375D01*
X440Y375D02*
X517Y375D01*
X192Y374D02*
X269Y374D01*
X440Y374D02*
X517Y374D01*
X192Y373D02*
X269Y373D01*
X440Y373D02*
X517Y373D01*
X193Y372D02*
X269Y372D01*
X441Y372D02*
X517Y372D01*
X193Y371D02*
X268Y371D01*
X441Y371D02*
X516Y371D01*
X193Y370D02*
X268Y370D01*
X441Y370D02*
X516Y370D01*
X193Y369D02*
X268Y369D01*
X441Y369D02*
X516Y369D01*
X194Y368D02*
X268Y368D01*
X442Y368D02*
X516Y368D01*
X194Y367D02*
X267Y367D01*
X442Y367D02*
X515Y367D01*
X194Y366D02*
X267Y366D01*
X442Y366D02*
X515Y366D01*
X195Y365D02*
X267Y365D01*
X443Y365D02*
X515Y365D01*
X195Y364D02*
X266Y364D01*
X443Y364D02*
X514Y364D01*
X196Y363D02*
X266Y363D01*
X444Y363D02*
X514Y363D01*
X196Y362D02*
X265Y362D01*
X444Y362D02*
X513Y362D01*
X197Y361D02*
X265Y361D01*
X445Y361D02*
X513Y361D01*
X197Y360D02*
X264Y360D01*
X445Y360D02*
X512Y360D01*
X198Y359D02*
X263Y359D01*
X446Y359D02*
X511Y359D01*
X198Y358D02*
X263Y358D01*
X446Y358D02*
X511Y358D01*
X199Y357D02*
X262Y357D01*
X447Y357D02*
X510Y357D01*
X200Y356D02*
X261Y356D01*
X448Y356D02*
X509Y356D01*
X201Y355D02*
X261Y355D01*
X449Y355D02*
X509Y355D01*
X201Y354D02*
X260Y354D01*
X449Y354D02*
X508Y354D01*
X202Y353D02*
X259Y353D01*
X450Y353D02*
X507Y353D01*
X203Y352D02*
X258Y352D01*
X451Y352D02*
X506Y352D01*
X204Y351D02*
X257Y351D01*
X452Y351D02*
X505Y351D01*
X205Y350D02*
X256Y350D01*
X454Y350D02*
X504Y350D01*
X207Y349D02*
X254Y349D01*
X455Y349D02*
X502Y349D01*
X208Y348D02*
X253Y348D01*
X456Y348D02*
X501Y348D01*
X209Y347D02*
X252Y347D01*
X457Y347D02*
X500Y347D01*
X211Y346D02*
X250Y346D01*
X459Y346D02*
X498Y346D01*
X213Y345D02*
X248Y345D01*
X461Y345D02*
X496Y345D01*
X215Y344D02*
X246Y344D01*
X463Y344D02*
X494Y344D01*
X217Y343D02*
X244Y343D01*
X465Y343D02*
X492Y343D01*
X220Y342D02*
X241Y342D01*
X469Y342D02*
X489Y342D01*
X225Y341D02*
X236Y341D01*
X473Y341D02*
X484Y341D01*
X314Y261D02*
X407Y261D01*
X310Y260D02*
X411Y260D01*
X307Y259D02*
X414Y259D01*
X305Y258D02*
X416Y258D01*
X303Y257D02*
X418Y257D01*
X301Y256D02*
X420Y256D01*
X300Y255D02*
X421Y255D01*
X298Y254D02*
X423Y254D01*
X297Y253D02*
X424Y253D01*
X296Y252D02*
X425Y252D01*
X295Y251D02*
X426Y251D01*
X294Y250D02*
X427Y250D01*
X293Y249D02*
X428Y249D01*
X292Y248D02*
X429Y248D01*
X291Y247D02*
X430Y247D01*
X290Y246D02*
X431Y246D01*
X289Y245D02*
X432Y245D01*
X289Y244D02*
X432Y244D01*
X288Y243D02*
X433Y243D01*
X288Y242D02*
X359Y242D01*
X362Y242D02*
X433Y242D01*
X287Y241D02*
X354Y241D01*
X367Y241D02*
X434Y241D01*
X286Y240D02*
X351Y240D01*
X370Y240D02*
X435Y240D01*
X286Y239D02*
X349Y239D01*
X372Y239D02*
X435Y239D01*
X285Y238D02*
X348Y238D01*
X373Y238D02*
X436Y238D01*
X285Y237D02*
X347Y237D01*
X374Y237D02*
X436Y237D01*
X285Y236D02*
X346Y236D01*
X375Y236D02*
X436Y236D01*
X284Y235D02*
X345Y235D01*
X376Y235D02*
X437Y235D01*
X284Y234D02*
X344Y234D01*
X377Y234D02*
X437Y234D01*
X284Y233D02*
X343Y233D01*
X378Y233D02*
X437Y233D01*
X283Y232D02*
X343Y232D01*
X378Y232D02*
X438Y232D01*
X283Y231D02*
X342Y231D01*
X379Y231D02*
X438Y231D01*
X283Y230D02*
X342Y230D01*
X379Y230D02*
X438Y230D01*
X283Y229D02*
X342Y229D01*
X379Y229D02*
X438Y229D01*
X283Y228D02*
X341Y228D01*
X380Y228D02*
X438Y228D01*
X283Y227D02*
X341Y227D01*
X380Y227D02*
X438Y227D01*
X282Y226D02*
X341Y226D01*
X380Y226D02*
X439Y226D01*
X282Y225D02*
X341Y225D01*
X380Y225D02*
X439Y225D01*
X282Y224D02*
X340Y224D01*
X381Y224D02*
X439Y224D01*
X282Y223D02*
X340Y223D01*
X381Y223D02*
X439Y223D01*
X282Y222D02*
X340Y222D01*
X381Y222D02*
X439Y222D01*
X282Y221D02*
X340Y221D01*
X381Y221D02*
X439Y221D01*
X282Y220D02*
X341Y220D01*
X380Y220D02*
X439Y220D01*
X282Y219D02*
X341Y219D01*
X380Y219D02*
X439Y219D01*
X283Y218D02*
X341Y218D01*
X380Y218D02*
X438Y218D01*
X283Y217D02*
X341Y217D01*
X380Y217D02*
X438Y217D01*
X283Y216D02*
X341Y216D01*
X380Y216D02*
X438Y216D01*
X283Y215D02*
X342Y215D01*
X379Y215D02*
X438Y215D01*
X283Y214D02*
X342Y214D01*
X379Y214D02*
X438Y214D01*
X283Y213D02*
X343Y213D01*
X378Y213D02*
X438Y213D01*
X284Y212D02*
X343Y212D01*
X378Y212D02*
X437Y212D01*
X284Y211D02*
X344Y211D01*
X377Y211D02*
X437Y211D01*
X284Y210D02*
X345Y210D01*
X376Y210D02*
X437Y210D01*
X285Y209D02*
X346Y209D01*
X375Y209D02*
X436Y209D01*
X285Y208D02*
X347Y208D01*
X374Y208D02*
X436Y208D01*
X285Y207D02*
X348Y207D01*
X373Y207D02*
X436Y207D01*
X286Y206D02*
X349Y206D01*
X372Y206D02*
X435Y206D01*
X286Y205D02*
X351Y205D01*
X370Y205D02*
X435Y205D01*
X287Y204D02*
X353Y204D01*
X368Y204D02*
X434Y204D01*
X287Y203D02*
X357Y203D01*
X364Y203D02*
X434Y203D01*
X288Y202D02*
X433Y202D01*
X289Y201D02*
X432Y201D01*
X289Y200D02*
X432Y200D01*
X290Y199D02*
X431Y199D01*
X291Y198D02*
X430Y198D01*
X292Y197D02*
X429Y197D01*
X293Y196D02*
X429Y196D01*
X293Y195D02*
X428Y195D01*
X294Y194D02*
X427Y194D01*
X296Y193D02*
X425Y193D01*
X297Y192D02*
X424Y192D01*
X298Y191D02*
X423Y191D01*
X299Y190D02*
X422Y190D01*
X301Y189D02*
X420Y189D01*
X303Y188D02*
X418Y188D01*
X305Y187D02*
X416Y187D01*
X307Y186D02*
X414Y186D01*
X309Y185D02*
X412Y185D01*
X313Y184D02*
X408Y184D01*
D02*
G04 End of Copper1*
M02*