M48
;GenerationSoftware,Autodesk,EAGLE,9.6.2*%
;CreationDate,2020-11-24T21:02:54Z*%
FMAT,2
ICI,OFF
METRIC,TZ,000.000
T15C0.300
T14C0.350
T13C0.600
T12C0.762
T11C0.800
T10C0.813
T9C0.900
T8C0.991
T7C1.010
T6C1.016
T5C1.100
T4C1.200
T3C1.295
T2C1.300
T1C2.600
%
G90
M71
T1
X58770Y43770
X2500Y2500
X2500Y43770
X58770Y2500
T2
X54921Y14678
X54921Y9598
X54931Y34995
X54931Y29915
X54931Y24835
X54931Y19755
X48950Y32540
X36950Y32540
X36950Y20340
X43030Y34540
X48950Y20340
T3
X22264Y40401
X29275Y40401
T4
X45300Y8529
X42760Y8529
X40220Y8529
T5
X33046Y16321
X33046Y23941
T6
X15494Y37030
X12954Y37030
X10414Y37030
X7874Y37030
X5334Y37030
X2794Y37030
X20574Y9090
X18034Y9090
X15494Y9090
X12954Y9090
X10414Y9090
X7874Y9090
X5334Y9090
X2794Y9090
X12954Y11637
X7880Y34470
X5340Y34470
X15500Y34470
X12960Y34470
X18040Y34470
X20580Y34470
X23120Y34470
X2794Y11637
X5334Y11637
X7874Y11637
X10414Y11637
X10420Y34470
X15494Y11637
X18034Y11637
X20574Y11637
X25660Y34470
X7040Y3810
X9580Y3810
X12120Y3810
X9650Y42090
X12190Y42090
X14730Y42090
X17270Y42090
X33770Y42870
X33770Y40330
X19740Y3810
X17200Y3810
X18034Y37030
X20574Y37030
X35525Y3090
X32985Y3090
X30445Y3090
X2800Y34470
X43017Y38585
X43017Y43665
X14660Y3810
T7
X2470Y25660
X2470Y23120
X2470Y20580
T8
X28030Y42890
X23534Y42890
T9
X36473Y37233
X36473Y44853
T10
X54109Y1442
X49029Y1442
X54074Y4670
X51534Y4670
X36301Y6007
X36301Y8547
X22026Y30374
X49233Y8554
X49233Y6014
X30230Y13570
X30230Y8490
X14406Y30374
X20790Y16880
X23330Y16880
X33600Y26680
X19330Y39440
X25100Y2300
X25100Y4840
X5260Y15870
X12880Y15870
X28970Y32970
X34050Y32970
X31510Y32970
X25980Y26680
X14250Y39440
X4090Y39470
X9170Y39470
T11
X15732Y26877
X18272Y26877
X20812Y26877
X23352Y26877
X13192Y26877
X10652Y26877
X8112Y26877
X10652Y19257
X23352Y19257
X20812Y19257
X18272Y19257
X15732Y19257
X13192Y19257
X33014Y8361
X33014Y13441
X8112Y19257
T12
X27520Y7270
X27520Y9810
X27520Y12350
T13
X37840Y14970
X47740Y11570
X37840Y11570
X28950Y19240
X47740Y14970
T14
X30810Y22000
X39300Y27830
X18560Y28980
X25190Y28980
X35300Y29040
X31960Y28980
X39270Y25270
X16707Y32220
X10480Y32240
X4815Y19685
X6535Y13095
T15
X59913Y44976
X60421Y43770
X58770Y42119
X58770Y45421
X849Y43770
X1357Y42564
X1357Y44976
X3643Y42564
X59913Y1294
X4151Y43770
X2500Y42119
X2500Y45421
X849Y2500
X1357Y1294
X1357Y3706
X3643Y1294
X3643Y3706
X4151Y2500
X2500Y849
X2500Y4151
X59913Y42564
X57627Y44976
X57627Y42564
X57119Y43770
X57627Y1294
X58770Y4151
X58770Y849
X60421Y2500
X57119Y2500
X57627Y3706
X59913Y3706
X3643Y44976
M30