G04 EAGLE Gerber RS-274X export*
G75*
%MOMM*%
%FSLAX34Y34*%
%LPD*%
%INTop Copper*%
%IPPOS*%
%AMOC8*
5,1,8,0,0,1.08239X$1,22.5*%
G01*
%ADD10C,1.879600*%
%ADD11C,1.600000*%
%ADD12R,1.600000X1.600000*%
%ADD13P,1.429621X8X202.500000*%
%ADD14P,1.429621X8X22.500000*%
%ADD15C,2.540000*%
%ADD16P,2.749271X8X112.500000*%
%ADD17C,2.000000*%
%ADD18R,0.635000X1.270000*%
%ADD19P,1.429621X8X292.500000*%
%ADD20R,1.800000X1.800000*%
%ADD21C,1.800000*%
%ADD22C,1.700000*%
%ADD23P,1.732040X8X292.500000*%
%ADD24C,1.600200*%
%ADD25C,1.320800*%
%ADD26C,1.408000*%
%ADD27C,2.540000*%
%ADD28R,1.270000X1.270000*%
%ADD29P,1.429621X8X112.500000*%
%ADD30C,2.184400*%
%ADD31C,4.200000*%
%ADD32R,1.518000X1.518000*%
%ADD33C,1.518000*%
%ADD34C,1.498600*%
%ADD35C,1.943100*%
%ADD36C,0.254000*%
%ADD37C,0.654800*%
%ADD38C,0.508000*%
%ADD39C,0.406400*%
%ADD40C,0.904800*%
%ADD41C,0.812800*%
%ADD42C,1.270000*%


D10*
X27940Y116370D03*
X53340Y116370D03*
X78740Y116370D03*
X104140Y116370D03*
X129540Y116370D03*
X154940Y116370D03*
X180340Y116370D03*
X205740Y116370D03*
D11*
X157320Y192570D03*
X182720Y192570D03*
X208120Y192570D03*
X233520Y192570D03*
D12*
X233520Y268770D03*
D11*
X208120Y268770D03*
X182720Y268770D03*
X157320Y268770D03*
X131920Y268770D03*
X106520Y268770D03*
X81120Y268770D03*
X81120Y192570D03*
X106520Y192570D03*
X131920Y192570D03*
D13*
X233300Y168800D03*
X207900Y168800D03*
D14*
X144060Y303740D03*
X220260Y303740D03*
D15*
X430170Y385850D03*
D16*
X430170Y436650D03*
D17*
X549310Y197549D03*
X549310Y248349D03*
X549310Y299149D03*
X549310Y349949D03*
D18*
X117376Y301940D03*
X125504Y301940D03*
D17*
X549210Y95979D03*
X549210Y146779D03*
D19*
X363010Y85470D03*
X363010Y60070D03*
D13*
X541090Y14420D03*
X490290Y14420D03*
X540740Y46700D03*
X515340Y46700D03*
D20*
X453000Y85290D03*
D21*
X427600Y85290D03*
X402200Y85290D03*
D19*
X492330Y85540D03*
X492330Y60140D03*
D10*
X330140Y134410D03*
X330140Y83610D03*
X304450Y30900D03*
X329850Y30900D03*
X355250Y30900D03*
D22*
X330460Y163210D03*
X330460Y239410D03*
D23*
X251000Y23000D03*
D24*
X251000Y48400D03*
D14*
X52600Y158700D03*
X128800Y158700D03*
D25*
X289700Y323096D02*
X289700Y336304D01*
X340500Y336304D02*
X340500Y323096D01*
X315100Y323096D02*
X315100Y336304D01*
D26*
X364730Y372330D03*
X364730Y448530D03*
D10*
X337700Y403300D03*
X337700Y428700D03*
X172700Y420900D03*
X147300Y420900D03*
X121900Y420900D03*
X96500Y420900D03*
D13*
X91700Y394700D03*
X40900Y394700D03*
D14*
X142500Y394400D03*
X193300Y394400D03*
D27*
X489500Y338100D02*
X489500Y312700D01*
X369500Y312700D02*
X369500Y338100D01*
X369500Y228800D02*
X369500Y203400D01*
X430300Y320000D02*
X430300Y345400D01*
X489500Y228800D02*
X489500Y203400D01*
D28*
X275200Y72700D03*
X275200Y98100D03*
X275200Y123500D03*
D29*
X302300Y84900D03*
X302300Y135700D03*
D30*
X466478Y149700D02*
X488322Y149700D01*
X389322Y149700D02*
X367478Y149700D01*
X466478Y115700D02*
X488322Y115700D01*
X389322Y115700D02*
X367478Y115700D01*
D31*
X25000Y25000D03*
X25000Y437700D03*
X587700Y437700D03*
X587700Y25000D03*
D14*
X259800Y266800D03*
X336000Y266800D03*
D32*
X24700Y256600D03*
D33*
X24700Y231200D03*
X24700Y205800D03*
D10*
X27940Y90900D03*
X53340Y90900D03*
X78740Y90900D03*
X104140Y90900D03*
X129540Y90900D03*
X154940Y90900D03*
X180340Y90900D03*
X205740Y90900D03*
X27940Y370300D03*
X53340Y370300D03*
X78740Y370300D03*
X104140Y370300D03*
X129540Y370300D03*
X154940Y370300D03*
X180340Y370300D03*
X205740Y370300D03*
X28000Y344700D03*
X53400Y344700D03*
X78800Y344700D03*
X104200Y344700D03*
X129600Y344700D03*
X155000Y344700D03*
X180400Y344700D03*
X205800Y344700D03*
X231200Y344700D03*
X256600Y344700D03*
X70400Y38100D03*
X95800Y38100D03*
X121200Y38100D03*
X146600Y38100D03*
X172000Y38100D03*
X197400Y38100D03*
D34*
X280300Y428900D03*
X235342Y428900D03*
D35*
X292746Y404008D03*
X222642Y404008D03*
D36*
X91700Y394700D02*
X71500Y394700D01*
X66300Y389500D01*
X66300Y355600D01*
X91700Y394700D02*
X121100Y394700D01*
X147300Y420900D01*
X78800Y344700D02*
X77200Y344700D01*
X66300Y355600D01*
X116900Y351800D02*
X116900Y377200D01*
X123000Y383300D01*
X172700Y419100D02*
X172700Y420900D01*
X109800Y344700D02*
X104200Y344700D01*
X109800Y344700D02*
X116900Y351800D01*
X142500Y394400D02*
X148000Y394400D01*
X172700Y419100D01*
X142500Y394400D02*
X131400Y383300D01*
X123000Y383300D01*
X33500Y256600D02*
X24700Y256600D01*
X104140Y127560D02*
X104140Y116370D01*
X39200Y250900D02*
X33500Y256600D01*
X39200Y250900D02*
X39200Y192500D01*
X104140Y127560D01*
D37*
X308100Y220000D03*
D38*
X129540Y116370D02*
X128800Y117110D01*
X128800Y158700D01*
D36*
X304800Y223300D02*
X308100Y220000D01*
X304800Y319400D02*
X315100Y329700D01*
X304800Y319400D02*
X304800Y223300D01*
D38*
X278500Y98100D02*
X275200Y98100D01*
X291700Y84900D02*
X302300Y84900D01*
X291700Y84900D02*
X278500Y98100D01*
D36*
X146000Y357600D02*
X146100Y357700D01*
X146000Y357600D02*
X135070Y357600D01*
X131920Y268770D02*
X131746Y268770D01*
X117376Y283140D02*
X117376Y301940D01*
X117376Y283140D02*
X131746Y268770D01*
X117376Y301940D02*
X117376Y322206D01*
X186734Y357700D02*
X193142Y364108D01*
X193142Y376808D01*
X201642Y385308D01*
X186734Y357700D02*
X146100Y357700D01*
X129600Y344700D02*
X129600Y334430D01*
X117376Y322206D01*
X129600Y352130D02*
X135070Y357600D01*
X129600Y352130D02*
X129600Y344700D01*
X201642Y385308D02*
X251392Y385308D01*
X251400Y385300D01*
X259800Y393700D02*
X259800Y415400D01*
X273300Y428900D01*
X280300Y428900D01*
X259800Y393700D02*
X251400Y385300D01*
X280300Y428900D02*
X337500Y428900D01*
X337700Y428700D01*
X208120Y275270D02*
X208120Y268770D01*
X208120Y275270D02*
X201520Y281870D01*
X172530Y281870D01*
X161000Y293400D01*
X155000Y334900D02*
X155000Y344700D01*
X155000Y334900D02*
X161000Y328900D01*
X161000Y293400D01*
D38*
X205740Y116370D02*
X213240Y116370D01*
D39*
X275200Y178330D01*
X275200Y280000D01*
D38*
X275200Y123500D02*
X290100Y123500D01*
X302300Y135700D01*
D39*
X40900Y394900D02*
X52600Y406600D01*
D38*
X40900Y394900D02*
X40900Y394700D01*
D39*
X52600Y406600D02*
X107600Y406600D01*
X121900Y420900D01*
X205740Y116370D02*
X214230Y116370D01*
X221900Y108700D01*
X221900Y57500D01*
D36*
X40900Y335700D02*
X40900Y394700D01*
X24700Y205800D02*
X15400Y205800D01*
X7800Y302600D02*
X40900Y335700D01*
X7800Y302600D02*
X7800Y213400D01*
X15400Y205800D01*
D39*
X202500Y38100D02*
X221900Y57500D01*
X202500Y38100D02*
X197400Y38100D01*
X220260Y303740D02*
X251460Y303740D01*
X275200Y280000D01*
D37*
X393000Y278300D03*
D38*
X518800Y297200D02*
X518800Y336100D01*
X518800Y297200D02*
X499600Y278000D01*
X532649Y349949D02*
X549310Y349949D01*
X532649Y349949D02*
X518800Y336100D01*
X499600Y278000D02*
X393299Y278001D01*
X393000Y278300D01*
D37*
X185600Y289800D03*
X251900Y289800D03*
X353000Y290400D03*
X319600Y289800D03*
D36*
X251900Y289800D02*
X185600Y289800D01*
X319600Y289800D02*
X320200Y290400D01*
X353000Y290400D01*
D37*
X392700Y252700D03*
D38*
X534200Y276100D02*
X534200Y288600D01*
X544749Y299149D02*
X549310Y299149D01*
X544749Y299149D02*
X534200Y288600D01*
X534200Y276100D02*
X510800Y252700D01*
X392700Y252700D01*
D40*
X289500Y192400D03*
D41*
X289500Y170800D02*
X251000Y132300D01*
X251000Y48400D01*
X363630Y447430D02*
X364730Y448530D01*
X363630Y447430D02*
X363630Y412000D01*
X363630Y392900D01*
D38*
X402200Y85290D02*
X402200Y49200D01*
X417800Y33600D01*
X476290Y33600D01*
X490290Y19600D02*
X490290Y14420D01*
X490290Y19600D02*
X476290Y33600D01*
D41*
X363630Y392900D02*
X355000Y392900D01*
X275600Y346100D02*
X275600Y308317D01*
X325300Y363200D02*
X355000Y392900D01*
X325300Y363200D02*
X292700Y363200D01*
X278000Y348500D01*
X275600Y346100D01*
X275600Y308317D02*
X289400Y294517D01*
X289400Y218000D01*
D38*
X233300Y192350D02*
X233300Y168800D01*
X233300Y192350D02*
X233520Y192570D01*
D41*
X289500Y192400D02*
X289500Y170800D01*
X276700Y48400D02*
X294200Y30900D01*
X276700Y48400D02*
X251000Y48400D01*
X294200Y30900D02*
X304450Y30900D01*
X489400Y386900D02*
X464300Y412000D01*
X363630Y412000D01*
X489400Y325500D02*
X489500Y325400D01*
X489400Y325500D02*
X489400Y386900D01*
X224100Y363000D02*
X205800Y344700D01*
X263500Y363000D02*
X278000Y348500D01*
X263500Y363000D02*
X224100Y363000D01*
X289500Y217900D02*
X289500Y192400D01*
X289500Y217900D02*
X289400Y218000D01*
D36*
X144060Y303740D02*
X127304Y303740D01*
X125504Y301940D01*
D38*
X541090Y46350D02*
X541090Y14420D01*
X541090Y46350D02*
X540740Y46700D01*
D42*
X330140Y31190D02*
X329850Y30900D01*
X330140Y31190D02*
X330140Y83610D01*
X330140Y134410D02*
X330140Y162890D01*
X330460Y163210D01*
D38*
X182720Y253680D02*
X182720Y268770D01*
X182720Y253680D02*
X191800Y244600D01*
X249200Y244600D01*
X259800Y255200D02*
X259800Y266800D01*
X259800Y255200D02*
X249200Y244600D01*
D36*
X146600Y51500D02*
X146600Y38100D01*
X180340Y74200D02*
X180340Y90900D01*
X180340Y74200D02*
X173540Y67400D01*
X162500Y67400D01*
X146600Y51500D01*
X208400Y321900D02*
X231200Y344700D01*
X208400Y321900D02*
X166000Y321900D01*
X166300Y322200D01*
X167068Y322200D01*
D37*
X167068Y322200D03*
X104800Y322400D03*
D36*
X95300Y322400D01*
X62200Y289300D01*
X62200Y183800D01*
X117000Y42300D02*
X121200Y38100D01*
X117000Y42300D02*
X117000Y129000D01*
X62200Y183800D01*
X91600Y357760D02*
X104140Y370300D01*
X91600Y335400D02*
X48300Y292100D01*
X48300Y197000D01*
X48150Y196850D01*
D37*
X48150Y196850D03*
X65350Y130950D03*
D36*
X83150Y130950D01*
X91400Y122700D01*
X91400Y42500D02*
X95800Y38100D01*
X91400Y42500D02*
X91400Y122700D01*
X91600Y335400D02*
X91600Y357760D01*
M02*
