G04 EAGLE Gerber RS-274X export*
G75*
%MOMM*%
%FSLAX34Y34*%
%LPD*%
%IN*%
%IPPOS*%
%AMOC8*
5,1,8,0,0,1.08239X$1,22.5*%
G01*
%ADD10C,0.254000*%


D10*
X0Y20000D02*
X76Y18257D01*
X304Y16527D01*
X681Y14824D01*
X1206Y13160D01*
X1874Y11548D01*
X2680Y10000D01*
X3617Y8528D01*
X4679Y7144D01*
X5858Y5858D01*
X7144Y4679D01*
X8528Y3617D01*
X10000Y2680D01*
X11548Y1874D01*
X13160Y1206D01*
X14824Y681D01*
X16527Y304D01*
X18257Y76D01*
X20000Y0D01*
X592700Y0D01*
X594443Y76D01*
X596173Y304D01*
X597876Y681D01*
X599540Y1206D01*
X601152Y1874D01*
X602700Y2680D01*
X604172Y3617D01*
X605556Y4679D01*
X606842Y5858D01*
X608021Y7144D01*
X609083Y8528D01*
X610021Y10000D01*
X610826Y11548D01*
X611494Y13160D01*
X612019Y14824D01*
X612396Y16527D01*
X612624Y18257D01*
X612700Y20000D01*
X612700Y442700D01*
X612624Y444443D01*
X612396Y446173D01*
X612019Y447876D01*
X611494Y449540D01*
X610826Y451152D01*
X610021Y452700D01*
X609083Y454172D01*
X608021Y455556D01*
X606842Y456842D01*
X605556Y458021D01*
X604172Y459083D01*
X602700Y460021D01*
X601152Y460826D01*
X599540Y461494D01*
X597876Y462019D01*
X596173Y462396D01*
X594443Y462624D01*
X592700Y462700D01*
X20000Y462700D01*
X18257Y462624D01*
X16527Y462396D01*
X14824Y462019D01*
X13160Y461494D01*
X11548Y460826D01*
X10000Y460021D01*
X8528Y459083D01*
X7144Y458021D01*
X5858Y456842D01*
X4679Y455556D01*
X3617Y454172D01*
X2680Y452700D01*
X1874Y451152D01*
X1206Y449540D01*
X681Y447876D01*
X304Y446173D01*
X76Y444443D01*
X0Y442700D01*
X0Y20000D01*
X468430Y149845D02*
X468445Y149496D01*
X468491Y149150D01*
X468566Y148810D01*
X468671Y148477D01*
X468805Y148155D01*
X468966Y147845D01*
X469153Y147551D01*
X469366Y147274D01*
X469602Y147017D01*
X469859Y146781D01*
X470136Y146568D01*
X470430Y146381D01*
X470740Y146220D01*
X471062Y146086D01*
X471395Y145981D01*
X471735Y145906D01*
X472081Y145860D01*
X472430Y145845D01*
X482430Y145845D01*
X482779Y145860D01*
X483125Y145906D01*
X483465Y145981D01*
X483798Y146086D01*
X484120Y146220D01*
X484430Y146381D01*
X484724Y146568D01*
X485001Y146781D01*
X485258Y147017D01*
X485494Y147274D01*
X485707Y147551D01*
X485894Y147845D01*
X486055Y148155D01*
X486189Y148477D01*
X486294Y148810D01*
X486369Y149150D01*
X486415Y149496D01*
X486430Y149845D01*
X486415Y150194D01*
X486369Y150540D01*
X486294Y150880D01*
X486189Y151213D01*
X486055Y151535D01*
X485894Y151845D01*
X485707Y152139D01*
X485494Y152416D01*
X485258Y152673D01*
X485001Y152909D01*
X484724Y153122D01*
X484430Y153309D01*
X484120Y153470D01*
X483798Y153604D01*
X483465Y153709D01*
X483125Y153784D01*
X482779Y153830D01*
X482430Y153845D01*
X472430Y153845D01*
X472081Y153830D01*
X471735Y153784D01*
X471395Y153709D01*
X471062Y153604D01*
X470740Y153470D01*
X470430Y153309D01*
X470136Y153122D01*
X469859Y152909D01*
X469602Y152673D01*
X469366Y152416D01*
X469153Y152139D01*
X468966Y151845D01*
X468805Y151535D01*
X468671Y151213D01*
X468566Y150880D01*
X468491Y150540D01*
X468445Y150194D01*
X468430Y149845D01*
X369370Y115555D02*
X369385Y115206D01*
X369431Y114860D01*
X369506Y114520D01*
X369611Y114187D01*
X369745Y113865D01*
X369906Y113555D01*
X370093Y113261D01*
X370306Y112984D01*
X370542Y112727D01*
X370799Y112491D01*
X371076Y112278D01*
X371370Y112091D01*
X371680Y111930D01*
X372002Y111796D01*
X372335Y111691D01*
X372675Y111616D01*
X373021Y111570D01*
X373370Y111555D01*
X383370Y111555D01*
X383719Y111570D01*
X384065Y111616D01*
X384405Y111691D01*
X384738Y111796D01*
X385060Y111930D01*
X385370Y112091D01*
X385664Y112278D01*
X385941Y112491D01*
X386198Y112727D01*
X386434Y112984D01*
X386647Y113261D01*
X386834Y113555D01*
X386995Y113865D01*
X387129Y114187D01*
X387234Y114520D01*
X387309Y114860D01*
X387355Y115206D01*
X387370Y115555D01*
X387355Y115904D01*
X387309Y116250D01*
X387234Y116590D01*
X387129Y116923D01*
X386995Y117245D01*
X386834Y117555D01*
X386647Y117849D01*
X386434Y118126D01*
X386198Y118383D01*
X385941Y118619D01*
X385664Y118832D01*
X385370Y119019D01*
X385060Y119180D01*
X384738Y119314D01*
X384405Y119419D01*
X384065Y119494D01*
X383719Y119540D01*
X383370Y119555D01*
X373370Y119555D01*
X373021Y119540D01*
X372675Y119494D01*
X372335Y119419D01*
X372002Y119314D01*
X371680Y119180D01*
X371370Y119019D01*
X371076Y118832D01*
X370799Y118619D01*
X370542Y118383D01*
X370306Y118126D01*
X370093Y117849D01*
X369906Y117555D01*
X369745Y117245D01*
X369611Y116923D01*
X369506Y116590D01*
X369431Y116250D01*
X369385Y115904D01*
X369370Y115555D01*
X468430Y115555D02*
X468445Y115206D01*
X468491Y114860D01*
X468566Y114520D01*
X468671Y114187D01*
X468805Y113865D01*
X468966Y113555D01*
X469153Y113261D01*
X469366Y112984D01*
X469602Y112727D01*
X469859Y112491D01*
X470136Y112278D01*
X470430Y112091D01*
X470740Y111930D01*
X471062Y111796D01*
X471395Y111691D01*
X471735Y111616D01*
X472081Y111570D01*
X472430Y111555D01*
X482430Y111555D01*
X482779Y111570D01*
X483125Y111616D01*
X483465Y111691D01*
X483798Y111796D01*
X484120Y111930D01*
X484430Y112091D01*
X484724Y112278D01*
X485001Y112491D01*
X485258Y112727D01*
X485494Y112984D01*
X485707Y113261D01*
X485894Y113555D01*
X486055Y113865D01*
X486189Y114187D01*
X486294Y114520D01*
X486369Y114860D01*
X486415Y115206D01*
X486430Y115555D01*
X486415Y115904D01*
X486369Y116250D01*
X486294Y116590D01*
X486189Y116923D01*
X486055Y117245D01*
X485894Y117555D01*
X485707Y117849D01*
X485494Y118126D01*
X485258Y118383D01*
X485001Y118619D01*
X484724Y118832D01*
X484430Y119019D01*
X484120Y119180D01*
X483798Y119314D01*
X483465Y119419D01*
X483125Y119494D01*
X482779Y119540D01*
X482430Y119555D01*
X472430Y119555D01*
X472081Y119540D01*
X471735Y119494D01*
X471395Y119419D01*
X471062Y119314D01*
X470740Y119180D01*
X470430Y119019D01*
X470136Y118832D01*
X469859Y118619D01*
X469602Y118383D01*
X469366Y118126D01*
X469153Y117849D01*
X468966Y117555D01*
X468805Y117245D01*
X468671Y116923D01*
X468566Y116590D01*
X468491Y116250D01*
X468445Y115904D01*
X468430Y115555D01*
X369370Y149845D02*
X369385Y149496D01*
X369431Y149150D01*
X369506Y148810D01*
X369611Y148477D01*
X369745Y148155D01*
X369906Y147845D01*
X370093Y147551D01*
X370306Y147274D01*
X370542Y147017D01*
X370799Y146781D01*
X371076Y146568D01*
X371370Y146381D01*
X371680Y146220D01*
X372002Y146086D01*
X372335Y145981D01*
X372675Y145906D01*
X373021Y145860D01*
X373370Y145845D01*
X383370Y145845D01*
X383719Y145860D01*
X384065Y145906D01*
X384405Y145981D01*
X384738Y146086D01*
X385060Y146220D01*
X385370Y146381D01*
X385664Y146568D01*
X385941Y146781D01*
X386198Y147017D01*
X386434Y147274D01*
X386647Y147551D01*
X386834Y147845D01*
X386995Y148155D01*
X387129Y148477D01*
X387234Y148810D01*
X387309Y149150D01*
X387355Y149496D01*
X387370Y149845D01*
X387355Y150194D01*
X387309Y150540D01*
X387234Y150880D01*
X387129Y151213D01*
X386995Y151535D01*
X386834Y151845D01*
X386647Y152139D01*
X386434Y152416D01*
X386198Y152673D01*
X385941Y152909D01*
X385664Y153122D01*
X385370Y153309D01*
X385060Y153470D01*
X384738Y153604D01*
X384405Y153709D01*
X384065Y153784D01*
X383719Y153830D01*
X383370Y153845D01*
X373370Y153845D01*
X373021Y153830D01*
X372675Y153784D01*
X372335Y153709D01*
X372002Y153604D01*
X371680Y153470D01*
X371370Y153309D01*
X371076Y153122D01*
X370799Y152909D01*
X370542Y152673D01*
X370306Y152416D01*
X370093Y152139D01*
X369906Y151845D01*
X369745Y151535D01*
X369611Y151213D01*
X369506Y150880D01*
X369431Y150540D01*
X369385Y150194D01*
X369370Y149845D01*
X26500Y41362D02*
X26442Y41072D01*
X26329Y40799D01*
X26165Y40554D01*
X25956Y40345D01*
X25711Y40181D01*
X25438Y40068D01*
X25148Y40010D01*
X24852Y40010D01*
X24562Y40068D01*
X24289Y40181D01*
X24044Y40345D01*
X23835Y40554D01*
X23671Y40799D01*
X23558Y41072D01*
X23500Y41362D01*
X23500Y41658D01*
X23558Y41948D01*
X23671Y42221D01*
X23835Y42466D01*
X24044Y42675D01*
X24289Y42839D01*
X24562Y42952D01*
X24852Y43010D01*
X25148Y43010D01*
X25438Y42952D01*
X25711Y42839D01*
X25956Y42675D01*
X26165Y42466D01*
X26329Y42221D01*
X26442Y41948D01*
X26500Y41658D01*
X26500Y41362D01*
X26500Y8342D02*
X26442Y8052D01*
X26329Y7779D01*
X26165Y7534D01*
X25956Y7325D01*
X25711Y7161D01*
X25438Y7048D01*
X25148Y6990D01*
X24852Y6990D01*
X24562Y7048D01*
X24289Y7161D01*
X24044Y7325D01*
X23835Y7534D01*
X23671Y7779D01*
X23558Y8052D01*
X23500Y8342D01*
X23500Y8638D01*
X23558Y8928D01*
X23671Y9201D01*
X23835Y9446D01*
X24044Y9655D01*
X24289Y9819D01*
X24562Y9932D01*
X24852Y9990D01*
X25148Y9990D01*
X25438Y9932D01*
X25711Y9819D01*
X25956Y9655D01*
X26165Y9446D01*
X26329Y9201D01*
X26442Y8928D01*
X26500Y8638D01*
X26500Y8342D01*
X43010Y24852D02*
X42952Y24562D01*
X42839Y24289D01*
X42675Y24044D01*
X42466Y23835D01*
X42221Y23671D01*
X41948Y23558D01*
X41658Y23500D01*
X41362Y23500D01*
X41072Y23558D01*
X40799Y23671D01*
X40554Y23835D01*
X40345Y24044D01*
X40181Y24289D01*
X40068Y24562D01*
X40010Y24852D01*
X40010Y25148D01*
X40068Y25438D01*
X40181Y25711D01*
X40345Y25956D01*
X40554Y26165D01*
X40799Y26329D01*
X41072Y26442D01*
X41362Y26500D01*
X41658Y26500D01*
X41948Y26442D01*
X42221Y26329D01*
X42466Y26165D01*
X42675Y25956D01*
X42839Y25711D01*
X42952Y25438D01*
X43010Y25148D01*
X43010Y24852D01*
X37930Y36917D02*
X37872Y36627D01*
X37759Y36354D01*
X37595Y36109D01*
X37386Y35900D01*
X37141Y35736D01*
X36868Y35623D01*
X36578Y35565D01*
X36282Y35565D01*
X35992Y35623D01*
X35719Y35736D01*
X35474Y35900D01*
X35265Y36109D01*
X35101Y36354D01*
X34988Y36627D01*
X34930Y36917D01*
X34930Y37213D01*
X34988Y37503D01*
X35101Y37776D01*
X35265Y38021D01*
X35474Y38230D01*
X35719Y38394D01*
X35992Y38507D01*
X36282Y38565D01*
X36578Y38565D01*
X36868Y38507D01*
X37141Y38394D01*
X37386Y38230D01*
X37595Y38021D01*
X37759Y37776D01*
X37872Y37503D01*
X37930Y37213D01*
X37930Y36917D01*
X37930Y12787D02*
X37872Y12497D01*
X37759Y12224D01*
X37595Y11979D01*
X37386Y11770D01*
X37141Y11606D01*
X36868Y11493D01*
X36578Y11435D01*
X36282Y11435D01*
X35992Y11493D01*
X35719Y11606D01*
X35474Y11770D01*
X35265Y11979D01*
X35101Y12224D01*
X34988Y12497D01*
X34930Y12787D01*
X34930Y13083D01*
X34988Y13373D01*
X35101Y13646D01*
X35265Y13891D01*
X35474Y14100D01*
X35719Y14264D01*
X35992Y14377D01*
X36282Y14435D01*
X36578Y14435D01*
X36868Y14377D01*
X37141Y14264D01*
X37386Y14100D01*
X37595Y13891D01*
X37759Y13646D01*
X37872Y13373D01*
X37930Y13083D01*
X37930Y12787D01*
X15070Y36917D02*
X15012Y36627D01*
X14899Y36354D01*
X14735Y36109D01*
X14526Y35900D01*
X14281Y35736D01*
X14008Y35623D01*
X13718Y35565D01*
X13422Y35565D01*
X13132Y35623D01*
X12859Y35736D01*
X12614Y35900D01*
X12405Y36109D01*
X12241Y36354D01*
X12128Y36627D01*
X12070Y36917D01*
X12070Y37213D01*
X12128Y37503D01*
X12241Y37776D01*
X12405Y38021D01*
X12614Y38230D01*
X12859Y38394D01*
X13132Y38507D01*
X13422Y38565D01*
X13718Y38565D01*
X14008Y38507D01*
X14281Y38394D01*
X14526Y38230D01*
X14735Y38021D01*
X14899Y37776D01*
X15012Y37503D01*
X15070Y37213D01*
X15070Y36917D01*
X15070Y12787D02*
X15012Y12497D01*
X14899Y12224D01*
X14735Y11979D01*
X14526Y11770D01*
X14281Y11606D01*
X14008Y11493D01*
X13718Y11435D01*
X13422Y11435D01*
X13132Y11493D01*
X12859Y11606D01*
X12614Y11770D01*
X12405Y11979D01*
X12241Y12224D01*
X12128Y12497D01*
X12070Y12787D01*
X12070Y13083D01*
X12128Y13373D01*
X12241Y13646D01*
X12405Y13891D01*
X12614Y14100D01*
X12859Y14264D01*
X13132Y14377D01*
X13422Y14435D01*
X13718Y14435D01*
X14008Y14377D01*
X14281Y14264D01*
X14526Y14100D01*
X14735Y13891D01*
X14899Y13646D01*
X15012Y13373D01*
X15070Y13083D01*
X15070Y12787D01*
X9990Y24852D02*
X9932Y24562D01*
X9819Y24289D01*
X9655Y24044D01*
X9446Y23835D01*
X9201Y23671D01*
X8928Y23558D01*
X8638Y23500D01*
X8342Y23500D01*
X8052Y23558D01*
X7779Y23671D01*
X7534Y23835D01*
X7325Y24044D01*
X7161Y24289D01*
X7048Y24562D01*
X6990Y24852D01*
X6990Y25148D01*
X7048Y25438D01*
X7161Y25711D01*
X7325Y25956D01*
X7534Y26165D01*
X7779Y26329D01*
X8052Y26442D01*
X8342Y26500D01*
X8638Y26500D01*
X8928Y26442D01*
X9201Y26329D01*
X9446Y26165D01*
X9655Y25956D01*
X9819Y25711D01*
X9932Y25438D01*
X9990Y25148D01*
X9990Y24852D01*
X26500Y454062D02*
X26442Y453772D01*
X26329Y453499D01*
X26165Y453254D01*
X25956Y453045D01*
X25711Y452881D01*
X25438Y452768D01*
X25148Y452710D01*
X24852Y452710D01*
X24562Y452768D01*
X24289Y452881D01*
X24044Y453045D01*
X23835Y453254D01*
X23671Y453499D01*
X23558Y453772D01*
X23500Y454062D01*
X23500Y454358D01*
X23558Y454648D01*
X23671Y454921D01*
X23835Y455166D01*
X24044Y455375D01*
X24289Y455539D01*
X24562Y455652D01*
X24852Y455710D01*
X25148Y455710D01*
X25438Y455652D01*
X25711Y455539D01*
X25956Y455375D01*
X26165Y455166D01*
X26329Y454921D01*
X26442Y454648D01*
X26500Y454358D01*
X26500Y454062D01*
X26500Y421042D02*
X26442Y420752D01*
X26329Y420479D01*
X26165Y420234D01*
X25956Y420025D01*
X25711Y419861D01*
X25438Y419748D01*
X25148Y419690D01*
X24852Y419690D01*
X24562Y419748D01*
X24289Y419861D01*
X24044Y420025D01*
X23835Y420234D01*
X23671Y420479D01*
X23558Y420752D01*
X23500Y421042D01*
X23500Y421338D01*
X23558Y421628D01*
X23671Y421901D01*
X23835Y422146D01*
X24044Y422355D01*
X24289Y422519D01*
X24562Y422632D01*
X24852Y422690D01*
X25148Y422690D01*
X25438Y422632D01*
X25711Y422519D01*
X25956Y422355D01*
X26165Y422146D01*
X26329Y421901D01*
X26442Y421628D01*
X26500Y421338D01*
X26500Y421042D01*
X43010Y437552D02*
X42952Y437262D01*
X42839Y436989D01*
X42675Y436744D01*
X42466Y436535D01*
X42221Y436371D01*
X41948Y436258D01*
X41658Y436200D01*
X41362Y436200D01*
X41072Y436258D01*
X40799Y436371D01*
X40554Y436535D01*
X40345Y436744D01*
X40181Y436989D01*
X40068Y437262D01*
X40010Y437552D01*
X40010Y437848D01*
X40068Y438138D01*
X40181Y438411D01*
X40345Y438656D01*
X40554Y438865D01*
X40799Y439029D01*
X41072Y439142D01*
X41362Y439200D01*
X41658Y439200D01*
X41948Y439142D01*
X42221Y439029D01*
X42466Y438865D01*
X42675Y438656D01*
X42839Y438411D01*
X42952Y438138D01*
X43010Y437848D01*
X43010Y437552D01*
X37930Y449617D02*
X37872Y449327D01*
X37759Y449054D01*
X37595Y448809D01*
X37386Y448600D01*
X37141Y448436D01*
X36868Y448323D01*
X36578Y448265D01*
X36282Y448265D01*
X35992Y448323D01*
X35719Y448436D01*
X35474Y448600D01*
X35265Y448809D01*
X35101Y449054D01*
X34988Y449327D01*
X34930Y449617D01*
X34930Y449913D01*
X34988Y450203D01*
X35101Y450476D01*
X35265Y450721D01*
X35474Y450930D01*
X35719Y451094D01*
X35992Y451207D01*
X36282Y451265D01*
X36578Y451265D01*
X36868Y451207D01*
X37141Y451094D01*
X37386Y450930D01*
X37595Y450721D01*
X37759Y450476D01*
X37872Y450203D01*
X37930Y449913D01*
X37930Y449617D01*
X37930Y425487D02*
X37872Y425197D01*
X37759Y424924D01*
X37595Y424679D01*
X37386Y424470D01*
X37141Y424306D01*
X36868Y424193D01*
X36578Y424135D01*
X36282Y424135D01*
X35992Y424193D01*
X35719Y424306D01*
X35474Y424470D01*
X35265Y424679D01*
X35101Y424924D01*
X34988Y425197D01*
X34930Y425487D01*
X34930Y425783D01*
X34988Y426073D01*
X35101Y426346D01*
X35265Y426591D01*
X35474Y426800D01*
X35719Y426964D01*
X35992Y427077D01*
X36282Y427135D01*
X36578Y427135D01*
X36868Y427077D01*
X37141Y426964D01*
X37386Y426800D01*
X37595Y426591D01*
X37759Y426346D01*
X37872Y426073D01*
X37930Y425783D01*
X37930Y425487D01*
X15070Y449617D02*
X15012Y449327D01*
X14899Y449054D01*
X14735Y448809D01*
X14526Y448600D01*
X14281Y448436D01*
X14008Y448323D01*
X13718Y448265D01*
X13422Y448265D01*
X13132Y448323D01*
X12859Y448436D01*
X12614Y448600D01*
X12405Y448809D01*
X12241Y449054D01*
X12128Y449327D01*
X12070Y449617D01*
X12070Y449913D01*
X12128Y450203D01*
X12241Y450476D01*
X12405Y450721D01*
X12614Y450930D01*
X12859Y451094D01*
X13132Y451207D01*
X13422Y451265D01*
X13718Y451265D01*
X14008Y451207D01*
X14281Y451094D01*
X14526Y450930D01*
X14735Y450721D01*
X14899Y450476D01*
X15012Y450203D01*
X15070Y449913D01*
X15070Y449617D01*
X15070Y425487D02*
X15012Y425197D01*
X14899Y424924D01*
X14735Y424679D01*
X14526Y424470D01*
X14281Y424306D01*
X14008Y424193D01*
X13718Y424135D01*
X13422Y424135D01*
X13132Y424193D01*
X12859Y424306D01*
X12614Y424470D01*
X12405Y424679D01*
X12241Y424924D01*
X12128Y425197D01*
X12070Y425487D01*
X12070Y425783D01*
X12128Y426073D01*
X12241Y426346D01*
X12405Y426591D01*
X12614Y426800D01*
X12859Y426964D01*
X13132Y427077D01*
X13422Y427135D01*
X13718Y427135D01*
X14008Y427077D01*
X14281Y426964D01*
X14526Y426800D01*
X14735Y426591D01*
X14899Y426346D01*
X15012Y426073D01*
X15070Y425783D01*
X15070Y425487D01*
X9990Y437552D02*
X9932Y437262D01*
X9819Y436989D01*
X9655Y436744D01*
X9446Y436535D01*
X9201Y436371D01*
X8928Y436258D01*
X8638Y436200D01*
X8342Y436200D01*
X8052Y436258D01*
X7779Y436371D01*
X7534Y436535D01*
X7325Y436744D01*
X7161Y436989D01*
X7048Y437262D01*
X6990Y437552D01*
X6990Y437848D01*
X7048Y438138D01*
X7161Y438411D01*
X7325Y438656D01*
X7534Y438865D01*
X7779Y439029D01*
X8052Y439142D01*
X8342Y439200D01*
X8638Y439200D01*
X8928Y439142D01*
X9201Y439029D01*
X9446Y438865D01*
X9655Y438656D01*
X9819Y438411D01*
X9932Y438138D01*
X9990Y437848D01*
X9990Y437552D01*
X589200Y454062D02*
X589142Y453772D01*
X589029Y453499D01*
X588865Y453254D01*
X588656Y453045D01*
X588411Y452881D01*
X588138Y452768D01*
X587848Y452710D01*
X587552Y452710D01*
X587262Y452768D01*
X586989Y452881D01*
X586744Y453045D01*
X586535Y453254D01*
X586371Y453499D01*
X586258Y453772D01*
X586200Y454062D01*
X586200Y454358D01*
X586258Y454648D01*
X586371Y454921D01*
X586535Y455166D01*
X586744Y455375D01*
X586989Y455539D01*
X587262Y455652D01*
X587552Y455710D01*
X587848Y455710D01*
X588138Y455652D01*
X588411Y455539D01*
X588656Y455375D01*
X588865Y455166D01*
X589029Y454921D01*
X589142Y454648D01*
X589200Y454358D01*
X589200Y454062D01*
X589200Y421042D02*
X589142Y420752D01*
X589029Y420479D01*
X588865Y420234D01*
X588656Y420025D01*
X588411Y419861D01*
X588138Y419748D01*
X587848Y419690D01*
X587552Y419690D01*
X587262Y419748D01*
X586989Y419861D01*
X586744Y420025D01*
X586535Y420234D01*
X586371Y420479D01*
X586258Y420752D01*
X586200Y421042D01*
X586200Y421338D01*
X586258Y421628D01*
X586371Y421901D01*
X586535Y422146D01*
X586744Y422355D01*
X586989Y422519D01*
X587262Y422632D01*
X587552Y422690D01*
X587848Y422690D01*
X588138Y422632D01*
X588411Y422519D01*
X588656Y422355D01*
X588865Y422146D01*
X589029Y421901D01*
X589142Y421628D01*
X589200Y421338D01*
X589200Y421042D01*
X605710Y437552D02*
X605652Y437262D01*
X605539Y436989D01*
X605375Y436744D01*
X605166Y436535D01*
X604921Y436371D01*
X604648Y436258D01*
X604358Y436200D01*
X604062Y436200D01*
X603772Y436258D01*
X603499Y436371D01*
X603254Y436535D01*
X603045Y436744D01*
X602881Y436989D01*
X602768Y437262D01*
X602710Y437552D01*
X602710Y437848D01*
X602768Y438138D01*
X602881Y438411D01*
X603045Y438656D01*
X603254Y438865D01*
X603499Y439029D01*
X603772Y439142D01*
X604062Y439200D01*
X604358Y439200D01*
X604648Y439142D01*
X604921Y439029D01*
X605166Y438865D01*
X605375Y438656D01*
X605539Y438411D01*
X605652Y438138D01*
X605710Y437848D01*
X605710Y437552D01*
X600630Y449617D02*
X600572Y449327D01*
X600459Y449054D01*
X600295Y448809D01*
X600086Y448600D01*
X599841Y448436D01*
X599568Y448323D01*
X599278Y448265D01*
X598982Y448265D01*
X598692Y448323D01*
X598419Y448436D01*
X598174Y448600D01*
X597965Y448809D01*
X597801Y449054D01*
X597688Y449327D01*
X597630Y449617D01*
X597630Y449913D01*
X597688Y450203D01*
X597801Y450476D01*
X597965Y450721D01*
X598174Y450930D01*
X598419Y451094D01*
X598692Y451207D01*
X598982Y451265D01*
X599278Y451265D01*
X599568Y451207D01*
X599841Y451094D01*
X600086Y450930D01*
X600295Y450721D01*
X600459Y450476D01*
X600572Y450203D01*
X600630Y449913D01*
X600630Y449617D01*
X600630Y425487D02*
X600572Y425197D01*
X600459Y424924D01*
X600295Y424679D01*
X600086Y424470D01*
X599841Y424306D01*
X599568Y424193D01*
X599278Y424135D01*
X598982Y424135D01*
X598692Y424193D01*
X598419Y424306D01*
X598174Y424470D01*
X597965Y424679D01*
X597801Y424924D01*
X597688Y425197D01*
X597630Y425487D01*
X597630Y425783D01*
X597688Y426073D01*
X597801Y426346D01*
X597965Y426591D01*
X598174Y426800D01*
X598419Y426964D01*
X598692Y427077D01*
X598982Y427135D01*
X599278Y427135D01*
X599568Y427077D01*
X599841Y426964D01*
X600086Y426800D01*
X600295Y426591D01*
X600459Y426346D01*
X600572Y426073D01*
X600630Y425783D01*
X600630Y425487D01*
X577770Y449617D02*
X577712Y449327D01*
X577599Y449054D01*
X577435Y448809D01*
X577226Y448600D01*
X576981Y448436D01*
X576708Y448323D01*
X576418Y448265D01*
X576122Y448265D01*
X575832Y448323D01*
X575559Y448436D01*
X575314Y448600D01*
X575105Y448809D01*
X574941Y449054D01*
X574828Y449327D01*
X574770Y449617D01*
X574770Y449913D01*
X574828Y450203D01*
X574941Y450476D01*
X575105Y450721D01*
X575314Y450930D01*
X575559Y451094D01*
X575832Y451207D01*
X576122Y451265D01*
X576418Y451265D01*
X576708Y451207D01*
X576981Y451094D01*
X577226Y450930D01*
X577435Y450721D01*
X577599Y450476D01*
X577712Y450203D01*
X577770Y449913D01*
X577770Y449617D01*
X577770Y425487D02*
X577712Y425197D01*
X577599Y424924D01*
X577435Y424679D01*
X577226Y424470D01*
X576981Y424306D01*
X576708Y424193D01*
X576418Y424135D01*
X576122Y424135D01*
X575832Y424193D01*
X575559Y424306D01*
X575314Y424470D01*
X575105Y424679D01*
X574941Y424924D01*
X574828Y425197D01*
X574770Y425487D01*
X574770Y425783D01*
X574828Y426073D01*
X574941Y426346D01*
X575105Y426591D01*
X575314Y426800D01*
X575559Y426964D01*
X575832Y427077D01*
X576122Y427135D01*
X576418Y427135D01*
X576708Y427077D01*
X576981Y426964D01*
X577226Y426800D01*
X577435Y426591D01*
X577599Y426346D01*
X577712Y426073D01*
X577770Y425783D01*
X577770Y425487D01*
X572690Y437552D02*
X572632Y437262D01*
X572519Y436989D01*
X572355Y436744D01*
X572146Y436535D01*
X571901Y436371D01*
X571628Y436258D01*
X571338Y436200D01*
X571042Y436200D01*
X570752Y436258D01*
X570479Y436371D01*
X570234Y436535D01*
X570025Y436744D01*
X569861Y436989D01*
X569748Y437262D01*
X569690Y437552D01*
X569690Y437848D01*
X569748Y438138D01*
X569861Y438411D01*
X570025Y438656D01*
X570234Y438865D01*
X570479Y439029D01*
X570752Y439142D01*
X571042Y439200D01*
X571338Y439200D01*
X571628Y439142D01*
X571901Y439029D01*
X572146Y438865D01*
X572355Y438656D01*
X572519Y438411D01*
X572632Y438138D01*
X572690Y437848D01*
X572690Y437552D01*
X589200Y41362D02*
X589142Y41072D01*
X589029Y40799D01*
X588865Y40554D01*
X588656Y40345D01*
X588411Y40181D01*
X588138Y40068D01*
X587848Y40010D01*
X587552Y40010D01*
X587262Y40068D01*
X586989Y40181D01*
X586744Y40345D01*
X586535Y40554D01*
X586371Y40799D01*
X586258Y41072D01*
X586200Y41362D01*
X586200Y41658D01*
X586258Y41948D01*
X586371Y42221D01*
X586535Y42466D01*
X586744Y42675D01*
X586989Y42839D01*
X587262Y42952D01*
X587552Y43010D01*
X587848Y43010D01*
X588138Y42952D01*
X588411Y42839D01*
X588656Y42675D01*
X588865Y42466D01*
X589029Y42221D01*
X589142Y41948D01*
X589200Y41658D01*
X589200Y41362D01*
X589200Y8342D02*
X589142Y8052D01*
X589029Y7779D01*
X588865Y7534D01*
X588656Y7325D01*
X588411Y7161D01*
X588138Y7048D01*
X587848Y6990D01*
X587552Y6990D01*
X587262Y7048D01*
X586989Y7161D01*
X586744Y7325D01*
X586535Y7534D01*
X586371Y7779D01*
X586258Y8052D01*
X586200Y8342D01*
X586200Y8638D01*
X586258Y8928D01*
X586371Y9201D01*
X586535Y9446D01*
X586744Y9655D01*
X586989Y9819D01*
X587262Y9932D01*
X587552Y9990D01*
X587848Y9990D01*
X588138Y9932D01*
X588411Y9819D01*
X588656Y9655D01*
X588865Y9446D01*
X589029Y9201D01*
X589142Y8928D01*
X589200Y8638D01*
X589200Y8342D01*
X605710Y24852D02*
X605652Y24562D01*
X605539Y24289D01*
X605375Y24044D01*
X605166Y23835D01*
X604921Y23671D01*
X604648Y23558D01*
X604358Y23500D01*
X604062Y23500D01*
X603772Y23558D01*
X603499Y23671D01*
X603254Y23835D01*
X603045Y24044D01*
X602881Y24289D01*
X602768Y24562D01*
X602710Y24852D01*
X602710Y25148D01*
X602768Y25438D01*
X602881Y25711D01*
X603045Y25956D01*
X603254Y26165D01*
X603499Y26329D01*
X603772Y26442D01*
X604062Y26500D01*
X604358Y26500D01*
X604648Y26442D01*
X604921Y26329D01*
X605166Y26165D01*
X605375Y25956D01*
X605539Y25711D01*
X605652Y25438D01*
X605710Y25148D01*
X605710Y24852D01*
X600630Y36917D02*
X600572Y36627D01*
X600459Y36354D01*
X600295Y36109D01*
X600086Y35900D01*
X599841Y35736D01*
X599568Y35623D01*
X599278Y35565D01*
X598982Y35565D01*
X598692Y35623D01*
X598419Y35736D01*
X598174Y35900D01*
X597965Y36109D01*
X597801Y36354D01*
X597688Y36627D01*
X597630Y36917D01*
X597630Y37213D01*
X597688Y37503D01*
X597801Y37776D01*
X597965Y38021D01*
X598174Y38230D01*
X598419Y38394D01*
X598692Y38507D01*
X598982Y38565D01*
X599278Y38565D01*
X599568Y38507D01*
X599841Y38394D01*
X600086Y38230D01*
X600295Y38021D01*
X600459Y37776D01*
X600572Y37503D01*
X600630Y37213D01*
X600630Y36917D01*
X600630Y12787D02*
X600572Y12497D01*
X600459Y12224D01*
X600295Y11979D01*
X600086Y11770D01*
X599841Y11606D01*
X599568Y11493D01*
X599278Y11435D01*
X598982Y11435D01*
X598692Y11493D01*
X598419Y11606D01*
X598174Y11770D01*
X597965Y11979D01*
X597801Y12224D01*
X597688Y12497D01*
X597630Y12787D01*
X597630Y13083D01*
X597688Y13373D01*
X597801Y13646D01*
X597965Y13891D01*
X598174Y14100D01*
X598419Y14264D01*
X598692Y14377D01*
X598982Y14435D01*
X599278Y14435D01*
X599568Y14377D01*
X599841Y14264D01*
X600086Y14100D01*
X600295Y13891D01*
X600459Y13646D01*
X600572Y13373D01*
X600630Y13083D01*
X600630Y12787D01*
X577770Y36917D02*
X577712Y36627D01*
X577599Y36354D01*
X577435Y36109D01*
X577226Y35900D01*
X576981Y35736D01*
X576708Y35623D01*
X576418Y35565D01*
X576122Y35565D01*
X575832Y35623D01*
X575559Y35736D01*
X575314Y35900D01*
X575105Y36109D01*
X574941Y36354D01*
X574828Y36627D01*
X574770Y36917D01*
X574770Y37213D01*
X574828Y37503D01*
X574941Y37776D01*
X575105Y38021D01*
X575314Y38230D01*
X575559Y38394D01*
X575832Y38507D01*
X576122Y38565D01*
X576418Y38565D01*
X576708Y38507D01*
X576981Y38394D01*
X577226Y38230D01*
X577435Y38021D01*
X577599Y37776D01*
X577712Y37503D01*
X577770Y37213D01*
X577770Y36917D01*
X577770Y12787D02*
X577712Y12497D01*
X577599Y12224D01*
X577435Y11979D01*
X577226Y11770D01*
X576981Y11606D01*
X576708Y11493D01*
X576418Y11435D01*
X576122Y11435D01*
X575832Y11493D01*
X575559Y11606D01*
X575314Y11770D01*
X575105Y11979D01*
X574941Y12224D01*
X574828Y12497D01*
X574770Y12787D01*
X574770Y13083D01*
X574828Y13373D01*
X574941Y13646D01*
X575105Y13891D01*
X575314Y14100D01*
X575559Y14264D01*
X575832Y14377D01*
X576122Y14435D01*
X576418Y14435D01*
X576708Y14377D01*
X576981Y14264D01*
X577226Y14100D01*
X577435Y13891D01*
X577599Y13646D01*
X577712Y13373D01*
X577770Y13083D01*
X577770Y12787D01*
X572690Y24852D02*
X572632Y24562D01*
X572519Y24289D01*
X572355Y24044D01*
X572146Y23835D01*
X571901Y23671D01*
X571628Y23558D01*
X571338Y23500D01*
X571042Y23500D01*
X570752Y23558D01*
X570479Y23671D01*
X570234Y23835D01*
X570025Y24044D01*
X569861Y24289D01*
X569748Y24562D01*
X569690Y24852D01*
X569690Y25148D01*
X569748Y25438D01*
X569861Y25711D01*
X570025Y25956D01*
X570234Y26165D01*
X570479Y26329D01*
X570752Y26442D01*
X571042Y26500D01*
X571338Y26500D01*
X571628Y26442D01*
X571901Y26329D01*
X572146Y26165D01*
X572355Y25956D01*
X572519Y25711D01*
X572632Y25438D01*
X572690Y25148D01*
X572690Y24852D01*
M02*
